AC-Jade.ufo
<glyph name="exclam" format="2">
	<advance width="261"/>
	<unicode hex="0021"/>
	<outline>
		<contour>
			<point x="93" y="250" type="line"/>
			<point x="164" y="250" type="line"/>
			<point x="186" y="770" type="line"/>
			<point x="181" y="780" type="line"/>
			<point x="77" y="780" type="line"/>
			<point x="72" y="770" type="line"/>
		</contour>
		<contour>
			<point x="140" y="-6" type="curve" smooth="yes"/>
			<point x="179" y="2"/>
			<point x="194" y="21"/>
			<point x="185" y="65" type="curve" smooth="yes"/>
			<point x="178" y="102"/>
			<point x="157" y="117"/>
			<point x="118" y="109" type="curve" smooth="yes"/>
			<point x="77" y="101"/>
			<point x="61" y="83"/>
			<point x="70" y="44" type="curve" smooth="yes"/>
			<point x="77" y="2"/>
			<point x="98" y="-14"/>
		</contour>
	</outline>
</glyph>
<glyph name="percent" format="2">
	<advance width="811"/>
	<unicode hex="0025"/>
	<outline>
		<contour>
			<point x="134" y="0" type="line"/>
			<point x="220" y="0" type="line"/>
			<point x="228" y="10" type="line"/>
			<point x="680" y="692" type="line"/>
			<point x="676" y="700" type="line"/>
			<point x="591" y="700" type="line"/>
			<point x="584" y="693" type="line"/>
			<point x="132" y="10" type="line"/>
		</contour>
		<contour>
			<point x="198" y="331" type="curve" smooth="yes"/>
			<point x="294" y="331"/>
			<point x="354" y="405"/>
			<point x="354" y="523" type="curve" smooth="yes"/>
			<point x="354" y="637"/>
			<point x="293" y="709"/>
			<point x="196" y="709" type="curve" smooth="yes"/>
			<point x="100" y="709"/>
			<point x="40" y="637"/>
			<point x="40" y="523" type="curve" smooth="yes"/>
			<point x="40" y="405"/>
			<point x="101" y="331"/>
		</contour>
		<contour>
			<point x="196" y="406" type="curve" smooth="yes"/>
			<point x="148" y="406"/>
			<point x="124" y="445"/>
			<point x="124" y="523" type="curve" smooth="yes"/>
			<point x="124" y="597"/>
			<point x="147" y="634"/>
			<point x="192" y="634" type="curve" smooth="yes"/>
			<point x="243" y="634"/>
			<point x="269" y="597"/>
			<point x="269" y="523" type="curve" smooth="yes"/>
			<point x="269" y="445"/>
			<point x="245" y="406"/>
		</contour>
		<contour>
			<point x="615" y="-9" type="curve" smooth="yes"/>
			<point x="711" y="-9"/>
			<point x="771" y="65"/>
			<point x="771" y="183" type="curve" smooth="yes"/>
			<point x="771" y="297"/>
			<point x="710" y="369"/>
			<point x="613" y="369" type="curve" smooth="yes"/>
			<point x="517" y="369"/>
			<point x="457" y="297"/>
			<point x="457" y="183" type="curve" smooth="yes"/>
			<point x="457" y="65"/>
			<point x="518" y="-9"/>
		</contour>
		<contour>
			<point x="613" y="66" type="curve" smooth="yes"/>
			<point x="565" y="66"/>
			<point x="541" y="105"/>
			<point x="541" y="183" type="curve" smooth="yes"/>
			<point x="541" y="257"/>
			<point x="564" y="294"/>
			<point x="609" y="294" type="curve" smooth="yes"/>
			<point x="660" y="294"/>
			<point x="686" y="257"/>
			<point x="686" y="183" type="curve" smooth="yes"/>
			<point x="686" y="105"/>
			<point x="662" y="66"/>
		</contour>
	</outline>
</glyph>
<glyph name="ampersand" format="2">
  <advance width="600"/>
  <unicode hex="0026"/>
  <outline>
    <contour>
      <point x="512.0" y="598.0" type="curve"/>
      <point x="509.0" y="650.0"/>
      <point x="404.0" y="680.0"/>
      <point x="300.0" y="680.0" type="curve" smooth="yes"/>
      <point x="158.0" y="680.0"/>
      <point x="86.0" y="621.0"/>
      <point x="86.0" y="506.0" type="curve" smooth="yes"/>
      <point x="86.0" y="411.0"/>
      <point x="158.0" y="357.0"/>
      <point x="269.0" y="350.0" type="curve"/>
      <point x="260.0" y="356.0" type="line"/>
      <point x="263.0" y="358.0"/>
      <point x="247.0" y="358.0"/>
      <point x="232.0" y="358.0" type="curve" smooth="yes"/>
      <point x="95.0" y="358.0"/>
      <point x="40.0" y="291.0"/>
      <point x="40.0" y="196.0" type="curve" smooth="yes"/>
      <point x="40.0" y="56.0"/>
      <point x="150.0" y="-11.0"/>
      <point x="300.0" y="-11.0" type="curve" smooth="yes"/>
      <point x="421.0" y="-11.0"/>
      <point x="527.0" y="38.0"/>
      <point x="527.0" y="137.0" type="curve" smooth="yes"/>
      <point x="525.0" y="209.0"/>
      <point x="524.0" y="235.0"/>
      <point x="524.0" y="273.0" type="curve" smooth="yes"/>
      <point x="524.0" y="356.0" type="line"/>
      <point x="432.0" y="356.0" type="line"/>
      <point x="435.0" y="58.0" type="line"/>
      <point x="444.0" y="115.0" type="line"/>
      <point x="421.0" y="92.0"/>
      <point x="360.0" y="77.0"/>
      <point x="300.0" y="77.0" type="curve" smooth="yes"/>
      <point x="191.0" y="77.0"/>
      <point x="140.0" y="121.0"/>
      <point x="140.0" y="196.0" type="curve" smooth="yes"/>
      <point x="140.0" y="310.0"/>
      <point x="225.0" y="319.0"/>
      <point x="336.0" y="319.0" type="curve" smooth="yes"/>
      <point x="357.0" y="319.0"/>
      <point x="379.0" y="319.0"/>
      <point x="402.0" y="319.0" type="curve" smooth="yes"/>
      <point x="423.0" y="319.0"/>
      <point x="444.0" y="319.0"/>
      <point x="465.0" y="319.0" type="curve" smooth="yes"/>
      <point x="541.0" y="319.0"/>
      <point x="596.0" y="307.0"/>
      <point x="616.0" y="307.0" type="curve" smooth="yes"/>
      <point x="621.0" y="307.0"/>
      <point x="624.0" y="308.0"/>
      <point x="624.0" y="310.0" type="curve"/>
      <point x="632.0" y="314.0" type="line"/>
      <point x="632.0" y="386.0" type="line"/>
      <point x="624.0" y="390.0" type="line"/>
      <point x="624.0" y="390.0"/>
      <point x="548.0" y="387.0"/>
      <point x="468.0" y="387.0" type="curve" smooth="yes"/>
      <point x="450.0" y="387.0"/>
      <point x="426.0" y="386.0"/>
      <point x="401.0" y="386.0" type="curve" smooth="yes"/>
      <point x="307.0" y="386.0"/>
      <point x="186.0" y="397.0"/>
      <point x="186.0" y="503.0" type="curve" smooth="yes"/>
      <point x="186.0" y="575.0"/>
      <point x="223.0" y="605.0"/>
      <point x="294.0" y="605.0" type="curve" smooth="yes"/>
      <point x="345.0" y="605.0"/>
      <point x="406.0" y="592.0"/>
      <point x="465.0" y="559.0" type="curve"/>
      <point x="433.0" y="623.0" type="line"/>
      <point x="435.0" y="482.0" type="line"/>
      <point x="503.0" y="480.0" type="line"/>
      <point x="507.0" y="507.0"/>
      <point x="513.0" y="549.0"/>
      <point x="513.0" y="578.0" type="curve" smooth="yes"/>
      <point x="513.0" y="585.0"/>
      <point x="513.0" y="592.0"/>
    </contour>
  </outline>
</glyph>
<glyph name="parenright" format="2">
  <advance width="334"/>
  <unicode hex="0029"/>
  <outline>
    <contour>
      <point x="274" y="326" type="qcurve" smooth="yes"/>
      <point x="274.0" y="460.32835820895525"/>
      <point x="154.7462686567164" y="704.6119402985074"/>
      <point x="54" y="777" type="qcurve"/>
      <point x="46" y="776" type="line"/>
      <point x="10" y="727" type="line"/>
      <point x="10" y="720" type="line"/>
      <point x="85.3731343283582" y="667.0149253731344"/>
      <point x="174.0" y="454.35820895522386"/>
      <point x="174" y="326" type="qcurve" smooth="yes"/>
      <point x="174.0" y="198.38805970149255"/>
      <point x="85.3731343283582" y="-14.014925373134332"/>
      <point x="10" y="-67" type="qcurve"/>
      <point x="10" y="-74" type="line"/>
      <point x="46" y="-124" type="line"/>
      <point x="54" y="-125" type="line"/>
      <point x="154.7462686567164" y="-52.61194029850746"/>
      <point x="274.0" y="191.67164179104478"/>
    </contour>
  </outline>
</glyph>
<glyph name="comma" format="2">
	<advance width="232"/>
	<unicode hex="002C"/>
	<outline>
		<contour>
			<point x="152" y="56" type="curve" smooth="yes"/>
			<point x="152" y="5"/>
			<point x="114" y="-78"/>
			<point x="71" y="-181" type="curve"/>
			<point x="64" y="-181" type="line"/>
			<point x="35" y="-168" type="line"/>
			<point x="32" y="-162" type="line"/>
			<point x="77" y="10"/>
			<point x="32" y="15"/>
			<point x="32" y="56" type="curve" smooth="yes"/>
			<point x="32" y="78"/>
			<point x="67" y="118"/>
			<point x="91" y="118" type="curve" smooth="yes"/>
			<point x="115" y="118"/>
			<point x="152" y="78"/>
		</contour>
	</outline>
</glyph>
<glyph name="hyphen" format="2">
	<advance width="280"/>
	<unicode hex="002D"/>
	<outline>
		<contour>
			<point x="240" y="273" type="line"/>
			<point x="117" y="276"/>
			<point x="163" y="276"/>
			<point x="37" y="273" type="curve"/>
			<point x="30" y="279" type="line"/>
			<point x="30" y="346" type="line"/>
			<point x="38" y="351" type="line"/>
			<point x="164" y="348"/>
			<point x="117" y="348"/>
			<point x="240" y="351" type="curve"/>
			<point x="250" y="346" type="line"/>
			<point x="250" y="278" type="line"/>
		</contour>
	</outline>
</glyph>
<glyph name="slash" format="2">
	<advance width="337"/>
	<unicode hex="002F"/>
	<outline>
		<contour>
			<point x="12" y="0" type="line"/>
			<point x="87" y="0" type="line"/>
			<point x="95" y="10" type="line"/>
			<point x="297" y="692" type="line"/>
			<point x="293" y="700" type="line"/>
			<point x="219" y="700" type="line"/>
			<point x="212" y="693" type="line"/>
			<point x="10" y="10" type="line"/>
		</contour>
	</outline>
</glyph>
<glyph name="zero" format="2">
  <advance width="600"/>
  <unicode hex="0030"/>
  <outline>
    <contour>
      <point x="297.0" y="80.0" type="qcurve" smooth="yes"/>
      <point x="381.9301877708233" y="80.0"/>
      <point x="437.0" y="234.2537313432836"/>
      <point x="437.0" y="335.0" type="qcurve" smooth="yes"/>
      <point x="437.0" y="435.74626865671644"/>
      <point x="381.9301877708233" y="590.0"/>
      <point x="297.0" y="590.0" type="qcurve" smooth="yes"/>
      <point x="212.0698122291767" y="590.0"/>
      <point x="157.0" y="435.74626865671644"/>
      <point x="157.0" y="335.0" type="qcurve" smooth="yes"/>
      <point x="157.0" y="234.2537313432836"/>
      <point x="212.0698122291767" y="80.0"/>
    </contour>
    <contour>
      <point x="297.0" y="-10.0" type="qcurve" smooth="yes"/>
      <point x="167.7638279192274" y="-10.0"/>
      <point x="57.0" y="196.94029850746267"/>
      <point x="57.0" y="335.0" type="qcurve" smooth="yes"/>
      <point x="57.0" y="473.05970149253733"/>
      <point x="167.7638279192274" y="680.0"/>
      <point x="297.0" y="680.0" type="qcurve" smooth="yes"/>
      <point x="426.2361720807726" y="680.0"/>
      <point x="537.0" y="473.05970149253733"/>
      <point x="537.0" y="335.0" type="qcurve" smooth="yes"/>
      <point x="537.0" y="196.9402985074627"/>
      <point x="426.2361720807726" y="-10.0"/>
    </contour>
  </outline>
</glyph>
<glyph name="one" format="2">
  <advance width="359"/>
  <unicode hex="0031"/>
  <outline>
    <contour>
      <point x="209" y="0" type="line"/>
      <point x="301" y="0" type="line"/>
      <point x="306" y="10" type="line"/>
      <point x="303" y="54"/>
      <point x="296.0" y="233"/>
      <point x="296" y="335" type="qcurve" smooth="yes"/>
      <point x="296.0" y="414"/>
      <point x="303" y="603"/>
      <point x="306" y="660" type="qcurve"/>
      <point x="301" y="670" type="line"/>
      <point x="208" y="670" type="line"/>
      <point x="165" y="637"/>
      <point x="74" y="576"/>
      <point x="24" y="549" type="qcurve"/>
      <point x="19" y="539" type="line"/>
      <point x="63" y="472" type="line"/>
      <point x="72" y="469" type="line"/>
      <point x="109.50210811788439" y="497.6200298794381"/>
      <point x="219" y="567"/>
      <point x="246" y="579" type="qcurve"/>
      <point x="205" y="617" type="line"/>
      <point x="207" y="580"/>
      <point x="212.0" y="440"/>
      <point x="212" y="337" type="qcurve" smooth="yes"/>
      <point x="212.0" y="234"/>
      <point x="208" y="47"/>
      <point x="204" y="10" type="qcurve"/>
    </contour>
  </outline>
</glyph>
<glyph name="two" format="2">
  <advance width="533"/>
  <unicode hex="0032"/>
  <outline>
    <contour>
      <point x="343" y="488" type="qcurve"/>
      <point x="343.0" y="386.5074626865672"/>
      <point x="125.22388059701493" y="140.47761194029852"/>
      <point x="70" y="86" type="qcurve" smooth="yes"/>
      <point x="55.07462686567165" y="71.07462686567165"/>
      <point x="73.55223880597015" y="0.0"/>
      <point x="84" y="0" type="qcurve" smooth="yes"/>
      <point x="454" y="0" type="line" smooth="yes"/>
      <point x="485.34328358208955" y="0.0"/>
      <point x="493.74626865671644" y="102.7910447761194"/>
      <point x="493" y="161" type="qcurve"/>
      <point x="426" y="168" type="line"/>
      <point x="407" y="65" type="line"/>
      <point x="472" y="90" type="line"/>
      <point x="127" y="90" type="line"/>
      <point x="135" y="62" type="line"/>
      <point x="188.73134328358208" y="111.25373134328358"/>
      <point x="443.0" y="377.70149253731347"/>
      <point x="443" y="518" type="qcurve"/>
      <point x="443.0" y="587.4029850746268"/>
      <point x="354" y="680"/>
      <point x="259" y="680" type="qcurve"/>
      <point x="195.0" y="680.0"/>
      <point x="91.25813399071659" y="636.3672319332583"/>
      <point x="58" y="608" type="qcurve"/>
      <point x="58" y="605" type="line"/>
      <point x="90" y="550" type="line"/>
      <point x="92" y="551" type="line"/>
      <point x="126" y="568"/>
      <point x="193" y="589.0"/>
      <point x="235" y="589" type="qcurve"/>
      <point x="285.0" y="589.0"/>
      <point x="343.0" y="533.8455146945684"/>
    </contour>
  </outline>
</glyph>
<glyph name="three" format="2">
<<<<<<< HEAD
	<advance width="600"/>
	<unicode hex="0033"/>
	<outline>
	</outline>
=======
	<advance width="534"/>
	<unicode hex="0033"/>
	<outline>
		<contour>
			<point x="79" y="633" type="curve"/>
			<point x="76" y="628" type="line"/>
			<point x="103" y="558" type="line"/>
			<point x="107" y="556" type="line"/>
			<point x="150" y="576"/>
			<point x="203" y="590"/>
			<point x="250" y="590" type="curve" smooth="yes"/>
			<point x="311" y="590"/>
			<point x="360" y="566"/>
			<point x="360" y="502" type="curve" smooth="yes"/>
			<point x="360" y="435"/>
			<point x="314" y="398"/>
			<point x="231" y="398" type="curve" smooth="yes"/>
			<point x="192" y="398" type="line"/>
			<point x="192" y="316" type="line"/>
			<point x="235" y="318" type="line" smooth="yes"/>
			<point x="343" y="323"/>
			<point x="404" y="282"/>
			<point x="404" y="203" type="curve" smooth="yes"/>
			<point x="404" y="125"/>
			<point x="347" y="78"/>
			<point x="245" y="78" type="curve" smooth="yes"/>
			<point x="190" y="78"/>
			<point x="129" y="93"/>
			<point x="77" y="108" type="curve"/>
			<point x="73" y="106" type="line"/>
			<point x="45" y="44" type="line"/>
			<point x="48" y="39" type="line"/>
			<point x="105" y="6"/>
			<point x="178" y="-12"/>
			<point x="249" y="-12" type="curve" smooth="yes"/>
			<point x="380" y="-12"/>
			<point x="504" y="50"/>
			<point x="504" y="191" type="curve" smooth="yes"/>
			<point x="504" y="301"/>
			<point x="424" y="363"/>
			<point x="282" y="363" type="curve"/>
			<point x="282" y="360" type="line"/>
			<point x="395" y="367"/>
			<point x="458" y="423"/>
			<point x="458" y="516" type="curve" smooth="yes"/>
			<point x="458" y="628"/>
			<point x="365" y="680"/>
			<point x="258" y="680" type="curve" smooth="yes"/>
			<point x="198" y="680"/>
			<point x="134" y="664"/>
		</contour>
	</outline>
>>>>>>> Miguel
</glyph>
<glyph name="four" format="2">
	<advance width="550"/>
	<unicode hex="0034"/>
	<outline>
		<contour>
			<point x="520" y="191" type="curve"/>
			<point x="520" y="283" type="line"/>
			<point x="516" y="283"/>
			<point x="461" y="279"/>
			<point x="355" y="275" type="curve" smooth="yes"/>
			<point x="278" y="272"/>
			<point x="216" y="270"/>
			<point x="160" y="270" type="curve" smooth="yes"/>
			<point x="140" y="270"/>
			<point x="120" y="270"/>
			<point x="101" y="271" type="curve"/>
			<point x="121" y="241" type="line"/>
			<point x="367" y="646" type="line"/>
			<point x="369" y="657" type="line"/>
			<point x="289" y="711" type="line"/>
			<point x="277" y="705" type="line"/>
			<point x="49" y="243" type="line" smooth="yes"/>
			<point x="47" y="239"/>
			<point x="45" y="233"/>
			<point x="45" y="226" type="curve" smooth="yes"/>
			<point x="45" y="212"/>
			<point x="53" y="196"/>
			<point x="77" y="196" type="curve" smooth="yes"/>
			<point x="171" y="194"/>
			<point x="480" y="191"/>
		</contour>
		<contour>
			<point x="346" y="0" type="line"/>
			<point x="440" y="0" type="line"/>
			<point x="445" y="10" type="line"/>
			<point x="444" y="23"/>
			<point x="442" y="58"/>
			<point x="440" y="104" type="curve" smooth="yes"/>
			<point x="437" y="166"/>
			<point x="435" y="221"/>
			<point x="435" y="269" type="curve" smooth="yes"/>
			<point x="435" y="363"/>
			<point x="442" y="469"/>
			<point x="445" y="508" type="curve"/>
			<point x="444" y="510"/>
			<point x="443" y="512"/>
			<point x="443" y="514" type="curve" smooth="yes"/>
			<point x="442" y="516"/>
			<point x="441" y="518"/>
			<point x="440" y="520" type="curve"/>
			<point x="351" y="520" type="line"/>
			<point x="349" y="515"/>
			<point x="348" y="513"/>
			<point x="346" y="509" type="curve"/>
			<point x="351" y="469"/>
			<point x="351" y="362"/>
			<point x="351" y="269" type="curve" smooth="yes"/>
			<point x="351" y="221"/>
			<point x="349" y="166"/>
			<point x="346" y="104" type="curve" smooth="yes"/>
			<point x="344" y="58"/>
			<point x="342" y="23"/>
			<point x="341" y="10" type="curve"/>
		</contour>
	</outline>
</glyph>
<glyph name="five" format="2">
  <advance width="600"/>
  <unicode hex="0035"/>
  <outline>
    <contour>
      <point x="489" y="681" type="qcurve"/>
      <point x="493" y="671" type="line"/>
      <point x="493" y="600" type="line"/>
      <point x="488" y="591" type="line"/>
      <point x="426.05970149253733" y="596.223880597015"/>
      <point x="281.43283582089555" y="599.7462686567164"/>
      <point x="218" y="599" type="qcurve"/>
      <point x="239" y="627" type="line"/>
      <point x="223" y="438" type="line"/>
      <point x="209" y="457" type="line"/>
      <point x="333.6268656716418" y="457.0"/>
      <point x="527.0" y="343.65671641791045"/>
      <point x="527" y="225" type="qcurve" smooth="yes"/>
      <point x="527.0" y="140.67164179104478"/>
      <point x="397.7313432835821" y="0.0"/>
      <point x="294" y="0" type="qcurve"/>
      <point x="239.52238805970148" y="-5.223880597014925"/>
      <point x="134.71641791044777" y="24.850746268656717"/>
      <point x="78" y="45" type="qcurve"/>
      <point x="76" y="52" type="line"/>
      <point x="100" y="122" type="line"/>
      <point x="105" y="125" type="line"/>
      <point x="160.22388059701493" y="105.59701492537314"/>
      <point x="238.53731343283582" y="89.0"/>
      <point x="296" y="89" type="qcurve" smooth="yes"/>
      <point x="367.64179104477614" y="89.0"/>
      <point x="436.0" y="185.55223880597015"/>
      <point x="436" y="246" type="qcurve" smooth="yes"/>
      <point x="436.0" y="332.56716417910445"/>
      <point x="248.2238805970149" y="385.0"/>
      <point x="143" y="385" type="qcurve"/>
      <point x="140.01492537313433" y="391.7164179104478"/>
      <point x="131.98507462686567" y="406.02985074626866"/>
      <point x="129" y="412" type="qcurve"/>
      <point x="132" y="670" type="line"/>
      <point x="138" y="680" type="line"/>
      <point x="215.61194029850745" y="676.2686567164179"/>
      <point x="409.8955223880597" y="676.5223880597015"/>
    </contour>
  </outline>
</glyph>
<glyph name="six" format="2">
	<advance width="600"/>
	<unicode hex="0036"/>
	<outline>
		<contour>
			<point x="331" y="710" type="curve" smooth="yes"/>
			<point x="170" y="710"/>
			<point x="71" y="564"/>
			<point x="71" y="305" type="curve" smooth="yes"/>
			<point x="71" y="103"/>
			<point x="170" y="-10"/>
			<point x="311" y="-10" type="curve" smooth="yes"/>
			<point x="432" y="-10"/>
			<point x="539" y="83"/>
			<point x="539" y="220" type="curve" smooth="yes"/>
			<point x="539" y="371"/>
			<point x="458" y="465"/>
			<point x="335" y="465" type="curve" smooth="yes"/>
			<point x="242" y="465"/>
			<point x="156" y="378"/>
			<point x="119" y="331" type="curve"/>
			<point x="146" y="281" type="line"/>
			<point x="186" y="352"/>
			<point x="263" y="375"/>
			<point x="308" y="375" type="curve" smooth="yes"/>
			<point x="376" y="375"/>
			<point x="439" y="329"/>
			<point x="439" y="225" type="curve" smooth="yes"/>
			<point x="439" y="135"/>
			<point x="406" y="57"/>
			<point x="318" y="57" type="curve" smooth="yes"/>
			<point x="223" y="57"/>
			<point x="171" y="162"/>
			<point x="171" y="350" type="curve" smooth="yes"/>
			<point x="171" y="548"/>
			<point x="213" y="620"/>
			<point x="342" y="620" type="curve" smooth="yes"/>
			<point x="406" y="620"/>
			<point x="456" y="598"/>
			<point x="488" y="580" type="curve"/>
			<point x="494" y="582" type="line"/>
			<point x="522" y="650" type="line"/>
			<point x="519" y="657" type="line"/>
			<point x="474" y="675"/>
			<point x="412" y="710"/>
		</contour>
	</outline>
</glyph>
<glyph name="seven" format="2">
  <advance width="477"/>
  <unicode hex="0037"/>
  <outline>
    <contour>
      <point x="204" y="10" type="line"/>
      <point x="234.22175619717427" y="95.5054565578589"/>
      <point x="383.5074626865672" y="467.2985074626866"/>
      <point x="435" y="577" type="qcurve" smooth="yes"/>
      <point x="446.94029850746267" y="601.6268656716418"/>
      <point x="440.4179104477612" y="670.0"/>
      <point x="424" y="670" type="qcurve" smooth="yes"/>
      <point x="71" y="670" type="line" smooth="yes"/>
      <point x="38.16417910447761" y="670.0"/>
      <point x="25.0" y="593.3283582089553"/>
      <point x="25" y="509" type="qcurve"/>
      <point x="87" y="505" type="line"/>
      <point x="111" y="605" type="line"/>
      <point x="79" y="580" type="line"/>
      <point x="401" y="580" type="line"/>
      <point x="385" y="608" type="line"/>
      <point x="312.6119402985075" y="478.8955223880597"/>
      <point x="146.7462686567164" y="148.8059701492537"/>
      <point x="96" y="10" type="qcurve"/>
      <point x="101" y="0" type="line"/>
      <point x="199" y="0" type="line"/>
    </contour>
  </outline>
</glyph>
<glyph name="eight" format="2">
	<advance width="605"/>
	<unicode hex="0038"/>
	<outline>
		<contour>
<<<<<<< HEAD
			<point x="408" y="510" type="curve" smooth="yes"/>
			<point x="408" y="358"/>
			<point x="67" y="392"/>
			<point x="67" y="186" type="curve" smooth="yes"/>
			<point x="67" y="60"/>
			<point x="157" y="-10"/>
			<point x="295" y="-10" type="curve" smooth="yes"/>
			<point x="424" y="-10"/>
			<point x="525" y="60"/>
			<point x="525" y="181" type="curve" smooth="yes"/>
			<point x="525" y="374"/>
			<point x="188" y="390"/>
			<point x="188" y="504" type="curve" smooth="yes"/>
			<point x="188" y="568"/>
			<point x="231" y="598"/>
			<point x="296" y="598" type="curve" smooth="yes"/>
			<point x="357" y="598"/>
			<point x="408" y="573"/>
		</contour>
		<contour>
			<point x="436" y="181" type="curve" smooth="yes"/>
			<point x="436" y="116"/>
			<point x="379" y="74"/>
			<point x="295" y="74" type="curve" smooth="yes"/>
			<point x="202" y="74"/>
			<point x="153" y="116"/>
			<point x="153" y="187" type="curve" smooth="yes"/>
			<point x="153" y="326"/>
			<point x="499" y="334"/>
			<point x="499" y="510" type="curve" smooth="yes"/>
			<point x="499" y="614"/>
			<point x="419" y="678"/>
			<point x="295" y="678" type="curve" smooth="yes"/>
			<point x="168" y="678"/>
			<point x="98" y="609"/>
			<point x="98" y="504" type="curve" smooth="yes"/>
			<point x="98" y="343"/>
			<point x="436" y="338"/>
=======
			<point x="300" y="-10" type="curve" smooth="yes"/>
			<point x="435" y="-10"/>
			<point x="530" y="69"/>
			<point x="530" y="181" type="curve" smooth="yes"/>
			<point x="530" y="296"/>
			<point x="473" y="373"/>
			<point x="362" y="403" type="curve" smooth="yes"/>
			<point x="251" y="433"/>
			<point x="203" y="479"/>
			<point x="203" y="542" type="curve" smooth="yes"/>
			<point x="203" y="597"/>
			<point x="240" y="628"/>
			<point x="306" y="628" type="curve" smooth="yes"/>
			<point x="375" y="628"/>
			<point x="414" y="593"/>
			<point x="414" y="530" type="curve" smooth="yes"/>
			<point x="414" y="463"/>
			<point x="379" y="427"/>
			<point x="299" y="408" type="curve"/>
			<point x="234" y="381" type="line"/>
			<point x="145" y="357"/>
			<point x="75" y="280"/>
			<point x="75" y="180" type="curve" smooth="yes"/>
			<point x="75" y="68"/>
			<point x="168" y="-10"/>
		</contour>
		<contour>
			<point x="300" y="70" type="curve" smooth="yes"/>
			<point x="210" y="70"/>
			<point x="160" y="110"/>
			<point x="160" y="181" type="curve" smooth="yes"/>
			<point x="160" y="263"/>
			<point x="218" y="312"/>
			<point x="299" y="336" type="curve"/>
			<point x="352" y="362" type="line"/>
			<point x="441" y="397"/>
			<point x="499" y="447"/>
			<point x="499" y="530" type="curve" smooth="yes"/>
			<point x="499" y="635"/>
			<point x="418" y="708"/>
			<point x="302" y="708" type="curve" smooth="yes"/>
			<point x="191" y="708"/>
			<point x="113" y="639"/>
			<point x="113" y="541" type="curve" smooth="yes"/>
			<point x="113" y="437"/>
			<point x="159" y="369"/>
			<point x="272" y="337" type="curve" smooth="yes"/>
			<point x="384" y="306"/>
			<point x="440" y="260"/>
			<point x="440" y="181" type="curve" smooth="yes"/>
			<point x="440" y="110"/>
			<point x="390" y="70"/>
>>>>>>> 63ab59a4907c3c208bd4e3ce4e29d61fad11b722
		</contour>
	</outline>
</glyph>
<glyph name="nine" format="2">
  <advance width="496"/>
  <unicode hex="0039"/>
  <outline>
    <contour>
      <point x="391" y="298" type="line"/>
      <point x="353.6865671641791" y="271.13432835820896"/>
      <point x="273.05970149253733" y="245.0"/>
      <point x="235" y="245" type="qcurve" smooth="yes"/>
      <point x="152.16417910447763" y="245.0"/>
      <point x="30.0" y="358.5074626865672"/>
      <point x="30" y="460" type="qcurve" smooth="yes"/>
      <point x="30.0" y="561.4925373134329"/>
      <point x="146.28358208955225" y="677.0"/>
      <point x="253" y="677" type="qcurve" smooth="yes"/>
      <point x="332.1044776119403" y="677.0"/>
      <point x="466.0" y="535.9402985074627"/>
      <point x="466" y="374" type="qcurve" smooth="yes"/>
      <point x="466.0" y="229.22388059701493"/>
      <point x="345.76119402985074" y="-10.0"/>
      <point x="198" y="-10" type="qcurve" smooth="yes"/>
      <point x="169.6417910447761" y="-10.0"/>
      <point x="105.82089552238806" y="0.5522388059701502"/>
      <point x="70" y="11" type="qcurve"/>
      <point x="89" y="92" type="line"/>
      <point x="92" y="98" type="line"/>
      <point x="120.35820895522389" y="91.28358208955224"/>
      <point x="170.1044776119403" y="85.0"/>
      <point x="191" y="85" type="qcurve" smooth="yes"/>
      <point x="314.88059701492534" y="85.0"/>
      <point x="377.0" y="257.5820895522388"/>
      <point x="377" y="374" type="qcurve" smooth="yes"/>
      <point x="377.0" y="495.64179104477614"/>
      <point x="310.14925373134326" y="590.0"/>
      <point x="240" y="590" type="qcurve" smooth="yes"/>
      <point x="181.7910447761194" y="590.0"/>
      <point x="114.0" y="511.5074626865672"/>
      <point x="114" y="463" type="qcurve" smooth="yes"/>
      <point x="114.0" y="396.5820895522388"/>
      <point x="201.7910447761194" y="325.0"/>
      <point x="260" y="325" type="qcurve" smooth="yes"/>
      <point x="291.34328358208955" y="325.0"/>
      <point x="355.8955223880597" y="346.35820895522386"/>
      <point x="385" y="368" type="qcurve"/>
    </contour>
  </outline>
</glyph>
<glyph name="semicolon" format="2">
  <advance width="251"/>
  <unicode hex="003B"/>
  <outline>
    <contour>
      <point x="55" y="81" type="qcurve" smooth="yes"/>
      <point x="55.0" y="59.35820895522389"/>
      <point x="81.43283582089552" y="18.626865671641788"/>
      <point x="118" y="-6" type="qcurve"/>
      <point x="106" y="40" type="line"/>
      <point x="103.02944776119402" y="-7.52880597014925"/>
      <point x="83.86567164179104" y="-95.44776119402985"/>
      <point x="57" y="-185" type="qcurve"/>
      <point x="106" y="-208" type="line"/>
      <point x="138.08955223880596" y="-151.28358208955223"/>
      <point x="201.0" y="-16.850746268656707"/>
      <point x="201" y="63" type="qcurve"/>
      <point x="201.0" y="108.52238805970148"/>
      <point x="163.08955223880596" y="151.0"/>
      <point x="131" y="151" type="qcurve" smooth="yes"/>
      <point x="96.67164179104478" y="151.0"/>
      <point x="55.0" y="113.08955223880596"/>
    </contour>
    <contour>
      <point x="55" y="427" type="qcurve" smooth="yes"/>
      <point x="55.0" y="458.34328358208955"/>
      <point x="96.65671641791045" y="496.0"/>
      <point x="128" y="496" type="qcurve" smooth="yes"/>
      <point x="160.08955223880596" y="496.0"/>
      <point x="200.0" y="457.5970149253731"/>
      <point x="200" y="427" type="qcurve" smooth="yes"/>
      <point x="200.0" y="391.92537313432837"/>
      <point x="158.59701492537312" y="351.0"/>
      <point x="128" y="351" type="qcurve" smooth="yes"/>
      <point x="93.67164179104478" y="351.0"/>
      <point x="55.0" y="394.91044776119406"/>
    </contour>
  </outline>
</glyph>
<glyph name="less" format="2">
	<advance width="575"/>
	<unicode hex="003C"/>
	<outline>
		<contour>
			<point x="88" y="283" type="line"/>
			<point x="235" y="343"/>
			<point x="359" y="395"/>
			<point x="497" y="454" type="curve"/>
			<point x="506" y="463" type="line"/>
			<point x="502" y="547" type="line"/>
			<point x="493" y="552" type="line"/>
			<point x="354" y="481"/>
			<point x="218" y="418"/>
			<point x="72" y="360" type="curve"/>
			<point x="62" y="348" type="line"/>
			<point x="63" y="238" type="line"/>
			<point x="73" y="226" type="line"/>
			<point x="219" y="168"/>
			<point x="355" y="105"/>
			<point x="494" y="34" type="curve"/>
			<point x="503" y="39" type="line"/>
			<point x="507" y="123" type="line"/>
			<point x="498" y="132" type="line"/>
			<point x="360" y="191"/>
			<point x="235" y="247"/>
			<point x="88" y="307" type="curve"/>
		</contour>
	</outline>
</glyph>
<glyph name="greater" format="2">
	<advance width="600"/>
	<unicode hex="003E"/>
	<outline>
		<contour>
			<point x="481" y="283" type="curve"/>
			<point x="481" y="307" type="line"/>
			<point x="334" y="247"/>
			<point x="209" y="191"/>
			<point x="71" y="132" type="curve"/>
			<point x="62" y="123" type="line"/>
			<point x="66" y="39" type="line"/>
			<point x="75" y="34" type="line"/>
			<point x="214" y="105"/>
			<point x="350" y="168"/>
			<point x="496" y="226" type="curve"/>
			<point x="506" y="238" type="line"/>
			<point x="507" y="348" type="line"/>
			<point x="497" y="360" type="line"/>
			<point x="351" y="418"/>
			<point x="215" y="481"/>
			<point x="76" y="552" type="curve"/>
			<point x="67" y="547" type="line"/>
			<point x="63" y="463" type="line"/>
			<point x="72" y="454" type="line"/>
			<point x="210" y="395"/>
			<point x="334" y="343"/>
		</contour>
	</outline>
</glyph>
<glyph name="question" format="2">
  <advance width="554"/>
  <unicode hex="003F"/>
  <outline>
    <contour>
      <point x="273" y="239" type="line"/>
      <point x="180" y="239" type="line"/>
      <point x="174" y="249" type="line"/>
      <point x="176" y="364" type="line"/>
      <point x="190" y="391" type="line"/>
      <point x="273" y="415"/>
      <point x="385.0" y="503"/>
      <point x="385" y="584" type="qcurve" smooth="yes"/>
      <point x="385" y="633"/>
      <point x="319.0" y="691.0"/>
      <point x="249" y="691" type="qcurve" smooth="yes"/>
      <point x="205" y="691"/>
      <point x="134.80279896067944" y="669.5646541675198"/>
      <point x="92" y="654" type="qcurve"/>
      <point x="87" y="657" type="line"/>
      <point x="60" y="726" type="line"/>
      <point x="62" y="733" type="line"/>
      <point x="98" y="748"/>
      <point x="203" y="780"/>
      <point x="256" y="780" type="qcurve"/>
      <point x="372.0" y="780.0"/>
      <point x="474" y="679"/>
      <point x="474" y="599" type="qcurve" smooth="yes"/>
      <point x="474" y="478"/>
      <point x="339" y="376"/>
      <point x="257" y="333" type="qcurve"/>
      <point x="271" y="349" type="line"/>
      <point x="279" y="249" type="line"/>
    </contour>
    <contour>
      <point x="162" y="62" type="qcurve"/>
      <point x="162" y="93"/>
      <point x="202" y="130"/>
      <point x="233" y="130" type="qcurve" smooth="yes"/>
      <point x="264" y="130"/>
      <point x="303" y="93"/>
      <point x="303" y="62" type="qcurve" smooth="yes"/>
      <point x="303" y="32"/>
      <point x="264" y="-10"/>
      <point x="233" y="-10" type="qcurve" smooth="yes"/>
      <point x="200" y="-10"/>
      <point x="162" y="32"/>
    </contour>
  </outline>
</glyph>
<glyph name="at" format="2">
  <advance width="912"/>
  <unicode hex="0040"/>
  <outline>
    <contour>
      <point x="782" y="-80" type="line"/>
      <point x="707.3731343283582" y="-115.07462686567163"/>
      <point x="523.5970149253732" y="-166.0"/>
      <point x="443" y="-166" type="qcurve" smooth="yes"/>
      <point x="269.8656716417911" y="-166.0"/>
      <point x="70.0" y="41.64179104477614"/>
      <point x="70" y="220" type="qcurve"/>
      <point x="70.0" y="428.95522388059703"/>
      <point x="288.05970149253733" y="728.0"/>
      <point x="500" y="728" type="qcurve"/>
      <point x="694.0298507462686" y="728.0"/>
      <point x="860.0" y="507.98507462686564"/>
      <point x="860" y="355" type="qcurve" smooth="yes"/>
      <point x="860.0" y="246.7910447761194"/>
      <point x="759.8358208955224" y="60.0"/>
      <point x="677" y="60" type="qcurve"/>
      <point x="621.0298507462687" y="60.0"/>
      <point x="548.2388059701492" y="120.46268656716418"/>
      <point x="546" y="163" type="qcurve"/>
      <point x="546.0" y="163.0"/>
      <point x="575.0" y="195.0"/>
      <point x="575" y="195" type="qcurve"/>
      <point x="546.6417910447761" y="124.10447761194031"/>
      <point x="463.2238805970149" y="60.0"/>
      <point x="408" y="60" type="qcurve" smooth="yes"/>
      <point x="347.55223880597015" y="60.0"/>
      <point x="268.0" y="158.6865671641791"/>
      <point x="268" y="246" type="qcurve" smooth="yes"/>
      <point x="268.0" y="364.65671641791045"/>
      <point x="383.35820895522386" y="505.0"/>
      <point x="455" y="505" type="qcurve" smooth="yes"/>
      <point x="502.76119402985074" y="505.0"/>
      <point x="549.3283582089553" y="451.1194029850746"/>
      <point x="565" y="425" type="qcurve"/>
      <point x="598" y="425" type="line"/>
      <point x="572" y="371" type="line"/>
      <point x="548.1194029850747" y="391.8955223880597"/>
      <point x="500.8358208955224" y="433.0"/>
      <point x="468" y="433" type="qcurve" smooth="yes"/>
      <point x="409.7910447761194" y="433.0"/>
      <point x="345.0" y="319.98507462686564"/>
      <point x="345" y="267" type="qcurve" smooth="yes"/>
      <point x="345.0" y="211.02985074626866"/>
      <point x="389.9850746268657" y="132.0"/>
      <point x="437" y="132" type="qcurve" smooth="yes"/>
      <point x="478.04477611940297" y="132.0"/>
      <point x="545.5373134328358" y="199.85074626865674"/>
      <point x="553" y="270" type="qcurve" smooth="yes"/>
      <point x="567" y="401" type="line"/>
      <point x="580" y="485" type="line"/>
      <point x="588" y="492" type="line"/>
      <point x="650" y="485" type="line"/>
      <point x="655" y="475" type="line"/>
      <point x="651.2686567164179" y="454.1044776119403"/>
      <point x="628.4626865671642" y="346.2089552238806"/>
      <point x="621" y="288" type="qcurve" smooth="yes"/>
      <point x="612.7910447761194" y="211.8805970149254"/>
      <point x="625.7910447761194" y="123.0"/>
      <point x="684" y="123" type="qcurve"/>
      <point x="724.2985074626865" y="123.0"/>
      <point x="790.0" y="258.7313432835821"/>
      <point x="790" y="355" type="qcurve"/>
      <point x="790.0" y="513.955223880597"/>
      <point x="637.8358208955224" y="661.0"/>
      <point x="505" y="661" type="qcurve"/>
      <point x="319.179104477612" y="661.0"/>
      <point x="137.75626334274622" y="408.6842113719231"/>
      <point x="140" y="206" type="qcurve"/>
      <point x="140.0" y="54.50746268656718"/>
      <point x="322.8805970149254" y="-100.0"/>
      <point x="449" y="-100" type="qcurve" smooth="yes"/>
      <point x="543.776119402985" y="-100.0"/>
      <point x="696.2985074626865" y="-48.134328358208954"/>
      <point x="756" y="-25" type="qcurve"/>
      <point x="759" y="-26" type="line"/>
      <point x="783" y="-77" type="line"/>
    </contour>
  </outline>
</glyph>
<glyph name="A" format="2">
	<advance width="533"/>
	<unicode hex="0041"/>
	<outline>
		<contour>
			<point x="121" y="211" type="line"/>
			<point x="131" y="211"/>
			<point x="178" y="213"/>
			<point x="261" y="213" type="curve" smooth="yes"/>
			<point x="344" y="213"/>
			<point x="402" y="212"/>
			<point x="412" y="211" type="curve"/>
			<point x="412" y="300" type="line"/>
			<point x="404" y="300"/>
			<point x="342" y="298"/>
			<point x="261" y="298" type="curve" smooth="yes"/>
			<point x="180" y="298"/>
			<point x="129" y="300"/>
			<point x="121" y="300" type="curve"/>
		</contour>
		<contour>
			<point x="27" y="0" type="line"/>
			<point x="27" y="0"/>
			<point x="123" y="0"/>
			<point x="123" y="0" type="curve"/>
			<point x="130" y="8" type="line"/>
			<point x="130" y="8"/>
			<point x="153" y="155"/>
			<point x="185" y="300" type="curve" smooth="yes"/>
			<point x="231" y="510"/>
			<point x="278" y="631"/>
			<point x="273" y="631" type="curve"/>
			<point x="252" y="631" type="line"/>
			<point x="252" y="631"/>
			<point x="282" y="510"/>
			<point x="342" y="300" type="curve" smooth="yes"/>
			<point x="374" y="187"/>
			<point x="425" y="13"/>
			<point x="425" y="13" type="curve"/>
			<point x="431" y="3" type="line"/>
			<point x="431" y="3"/>
			<point x="523" y="3"/>
			<point x="523" y="3" type="curve"/>
			<point x="528" y="13" type="line"/>
			<point x="320" y="661" type="line"/>
			<point x="320" y="661"/>
			<point x="314" y="671"/>
			<point x="314" y="671" type="curve"/>
			<point x="201" y="671" type="line"/>
			<point x="195" y="661" type="line"/>
			<point x="21" y="10" type="line"/>
		</contour>
	</outline>
</glyph>
<glyph name="B" format="2">
  <advance width="506"/>
  <unicode hex="0042"/>
  <outline>
    <contour>
      <point x="65" y="0" type="line"/>
      <point x="235" y="0" type="line" smooth="yes"/>
      <point x="347.6865671641791" y="0.0"/>
      <point x="476.0" y="94.73134328358209"/>
      <point x="476" y="191" type="qcurve" smooth="yes"/>
      <point x="476.0" y="287.2686567164179"/>
      <point x="343.1194029850746" y="375.1940298507463"/>
      <point x="217" y="364" type="qcurve"/>
      <point x="238" y="359" type="line"/>
      <point x="320.8358208955224" y="364.2238805970149"/>
      <point x="430.0" y="445.1044776119403"/>
      <point x="430" y="516" type="qcurve"/>
      <point x="430.0" y="589.1343283582089"/>
      <point x="323.04477611940297" y="675.0"/>
      <point x="232" y="675" type="qcurve" smooth="yes"/>
      <point x="65" y="675" type="line"/>
      <point x="60" y="666" type="line"/>
      <point x="62.98507462686567" y="593.6119402985074"/>
      <point x="65.0" y="430.8358208955224"/>
      <point x="65" y="348" type="qcurve" smooth="yes"/>
      <point x="65.0" y="261.43283582089555"/>
      <point x="62.98507462686567" y="88.86567164179104"/>
      <point x="60" y="12" type="qcurve"/>
    </contour>
    <contour>
      <point x="205" y="85" type="qcurve" smooth="yes"/>
      <point x="90" y="85" type="line"/>
      <point x="160" y="66" type="line"/>
      <point x="157.76119402985074" y="135.40298507462686"/>
      <point x="155.0" y="275.11940298507466"/>
      <point x="155" y="349" type="qcurve" smooth="yes"/>
      <point x="155.0" y="410.19402985074623"/>
      <point x="157.76119402985074" y="545.3582089552239"/>
      <point x="160" y="617" type="qcurve"/>
      <point x="130" y="590" type="line"/>
      <point x="213" y="590" type="line" smooth="yes"/>
      <point x="273.44776119402985" y="590.0"/>
      <point x="330.0" y="545.4925373134329"/>
      <point x="330" y="494" type="qcurve" smooth="yes"/>
      <point x="330.0" y="451.46268656716416"/>
      <point x="269.4179104477612" y="388.0"/>
      <point x="203" y="388" type="qcurve" smooth="yes"/>
      <point x="134" y="388" type="line"/>
      <point x="134" y="316" type="line"/>
      <point x="207" y="318" type="line" smooth="yes"/>
      <point x="287.5970149253731" y="320.23880597014926"/>
      <point x="376.0" y="264.19402985074623"/>
      <point x="376" y="203" type="qcurve" smooth="yes"/>
      <point x="376.0" y="141.80597014925374"/>
      <point x="293.8059701492537" y="85.0"/>
    </contour>
  </outline>
</glyph>
<glyph name="C" format="2">
  <advance width="564"/>
  <unicode hex="0043"/>
  <outline>
    <contour>
      <point x="341" y="-10" type="qcurve"/>
      <point x="405.92537313432837" y="-10.0"/>
      <point x="507.91044776119406" y="21.08955223880597"/>
      <point x="540" y="39" type="qcurve"/>
      <point x="543" y="44" type="line"/>
      <point x="515" y="106" type="line"/>
      <point x="511" y="108" type="line"/>
      <point x="469.95522388059703" y="96.05970149253731"/>
      <point x="395.07462686567163" y="82.0"/>
      <point x="360" y="82" type="qcurve"/>
      <point x="257.76119402985074" y="82.0"/>
      <point x="150.0" y="214.65671641791045"/>
      <point x="150" y="346" type="qcurve" smooth="yes"/>
      <point x="150.0" y="477.34328358208955"/>
      <point x="255.73134328358208" y="590.0"/>
      <point x="352" y="590" type="qcurve" smooth="yes"/>
      <point x="399.0149253731343" y="590.0"/>
      <point x="462.94029850746267" y="571.6716417910447"/>
      <point x="501" y="556" type="qcurve"/>
      <point x="505" y="558" type="line"/>
      <point x="535" y="640" type="line"/>
      <point x="532" y="645" type="line"/>
      <point x="503.64179104477614" y="659.179104477612"/>
      <point x="413.95522388059703" y="680.0"/>
      <point x="355" y="680" type="qcurve" smooth="yes"/>
      <point x="232.61194029850748" y="680.0"/>
      <point x="50.0" y="528.5820895522388"/>
      <point x="50" y="345" type="qcurve" smooth="yes"/>
      <point x="50.0" y="161.41791044776122"/>
      <point x="231.2985074626866" y="-10.0"/>
    </contour>
  </outline>
</glyph>
<glyph name="D" format="2">
  <advance width="576"/>
  <unicode hex="0044"/>
  <outline>
    <contour>
      <point x="55" y="0" type="line"/>
      <point x="250" y="0" type="line" smooth="yes"/>
      <point x="382.8358208955224" y="0.0"/>
      <point x="536.0" y="163.089552238806"/>
      <point x="536" y="331" type="qcurve" smooth="yes"/>
      <point x="536.0" y="498.910447761194"/>
      <point x="384.34328358208955" y="675.0"/>
      <point x="253" y="675" type="qcurve" smooth="yes"/>
      <point x="55" y="675" type="line"/>
      <point x="50" y="666" type="line"/>
      <point x="53.73134328358209" y="580.179104477612"/>
      <point x="57.0" y="415.35820895522386"/>
      <point x="57" y="337" type="qcurve" smooth="yes"/>
      <point x="57.0" y="260.13432835820896"/>
      <point x="53.73134328358209" y="97.82089552238806"/>
      <point x="50" y="12" type="qcurve"/>
    </contour>
    <contour>
      <point x="323.8059701492537" y="590.0"/>
      <point x="436.0" y="464.5820895522388"/>
      <point x="436" y="331" type="qcurve" smooth="yes"/>
      <point x="436.0" y="196.67164179104478"/>
      <point x="321.25373134328356" y="85.0"/>
      <point x="222" y="85" type="qcurve" smooth="yes"/>
      <point x="113" y="85" type="line"/>
      <point x="152" y="66" type="line"/>
      <point x="152.0" y="101.82089552238806"/>
      <point x="147.0" y="230.7910447761194"/>
      <point x="147" y="339" type="qcurve" smooth="yes"/>
      <point x="147.0" y="437.5074626865671"/>
      <point x="149.76119402985074" y="566.4477611940299"/>
      <point x="152" y="606" type="qcurve"/>
      <point x="123" y="590" type="line"/>
      <point x="235" y="590" type="line" smooth="yes"/>
    </contour>
  </outline>
</glyph>
<glyph name="E" format="2">
<<<<<<< HEAD
	<advance width="450"/>
	<unicode hex="0045"/>
	<outline>
		<contour>
			<point x="150" y="335" type="curve" smooth="yes"/>
			<point x="150" y="172"/>
			<point x="152" y="96"/>
			<point x="158" y="53" type="curve"/>
			<point x="124" y="82" type="line"/>
			<point x="341" y="82"/>
			<point x="405" y="90"/>
			<point x="405" y="90" type="curve"/>
			<point x="410" y="81" type="line"/>
			<point x="410" y="10" type="line"/>
			<point x="405" y="0" type="line"/>
			<point x="379" y="5"/>
			<point x="312" y="3"/>
			<point x="230" y="4" type="curve"/>
			<point x="145" y="5"/>
			<point x="100" y="3"/>
			<point x="55" y="0" type="curve"/>
			<point x="50" y="10" type="line"/>
			<point x="50" y="10"/>
			<point x="60" y="190"/>
			<point x="60" y="335" type="curve" smooth="yes"/>
			<point x="60" y="480"/>
			<point x="50" y="660"/>
			<point x="50" y="660" type="curve"/>
			<point x="55" y="670" type="line"/>
			<point x="98" y="669"/>
			<point x="132" y="665"/>
			<point x="224" y="666" type="curve"/>
			<point x="332" y="666"/>
			<point x="380" y="669"/>
			<point x="405" y="670" type="curve"/>
			<point x="410" y="660" type="line"/>
			<point x="410" y="589" type="line"/>
			<point x="405" y="580" type="line"/>
			<point x="405" y="580"/>
			<point x="341" y="588"/>
			<point x="124" y="588" type="curve"/>
			<point x="158" y="617" type="line"/>
			<point x="152" y="574"/>
			<point x="150" y="498"/>
		</contour>
		<contour>
			<point x="120" y="313" type="curve"/>
			<point x="120" y="387" type="line"/>
			<point x="258" y="387"/>
			<point x="341" y="395"/>
			<point x="341" y="395" type="curve"/>
			<point x="351" y="391" type="line"/>
			<point x="351" y="309" type="line"/>
			<point x="341" y="305" type="line"/>
			<point x="341" y="305"/>
			<point x="261" y="313"/>
=======
	<advance width="495"/>
	<unicode hex="0045"/>
	<anchor x="275" y="699" name="top"/>
	<anchor x="248" y="0" name="bottom"/>
	<anchor x="409" y="9" name="ogonek"/>
	<anchor x="20" y="700" name="topleft"/>
	<outline>
		<contour>
			<point x="90" y="0" type="line"/>
			<point x="135" y="3"/>
			<point x="181" y="5"/>
			<point x="275" y="4" type="curve" smooth="yes"/>
			<point x="316" y="4"/>
			<point x="437" y="3"/>
			<point x="450" y="0" type="curve"/>
			<point x="455" y="10" type="line"/>
			<point x="455" y="81" type="line"/>
			<point x="450" y="90" type="line"/>
			<point x="345" y="83"/>
			<point x="296" y="82"/>
			<point x="159" y="82" type="curve"/>
			<point x="193" y="53" type="line"/>
			<point x="185" y="116"/>
			<point x="185" y="271"/>
			<point x="185" y="335" type="curve" smooth="yes"/>
			<point x="185" y="399"/>
			<point x="185" y="584"/>
			<point x="193" y="647" type="curve"/>
			<point x="159" y="618" type="line"/>
			<point x="300" y="618"/>
			<point x="347" y="617"/>
			<point x="450" y="610" type="curve"/>
			<point x="455" y="619" type="line"/>
			<point x="455" y="690" type="line"/>
			<point x="450" y="700" type="line"/>
			<point x="390" y="697"/>
			<point x="329" y="697"/>
			<point x="269" y="696" type="curve" smooth="yes"/>
			<point x="213" y="695"/>
			<point x="179" y="696"/>
			<point x="156" y="697" type="curve" smooth="yes"/>
			<point x="133" y="698"/>
			<point x="111" y="699"/>
			<point x="90" y="700" type="curve"/>
			<point x="85" y="690" type="line"/>
			<point x="89" y="631"/>
			<point x="95" y="426"/>
			<point x="95" y="335" type="curve" smooth="yes"/>
			<point x="95" y="244"/>
			<point x="89" y="69"/>
			<point x="85" y="10" type="curve"/>
		</contour>
		<contour>
			<point x="386" y="305" type="curve"/>
			<point x="396" y="309" type="line"/>
			<point x="396" y="391" type="line"/>
			<point x="386" y="395" type="line"/>
			<point x="320" y="390"/>
			<point x="255" y="387"/>
			<point x="155" y="387" type="curve"/>
			<point x="155" y="313" type="line"/>
			<point x="256" y="313"/>
			<point x="317" y="310"/>
>>>>>>> 63ab59a4907c3c208bd4e3ce4e29d61fad11b722
		</contour>
	</outline>
</glyph>
<glyph name="F" format="2">
  <advance width="392"/>
  <unicode hex="0046"/>
  <outline>
    <contour>
      <point x="164" y="-2" type="line"/>
      <point x="141.61194029850748" y="-0.5074626865671643"/>
      <point x="75.8955223880597" y="-0.5074626865671643"/>
      <point x="55" y="-2" type="qcurve"/>
      <point x="50" y="8" type="line"/>
      <point x="50.0" y="8.0"/>
      <point x="66.0" y="239.32835820895525"/>
      <point x="66" y="355" type="qcurve" smooth="yes"/>
      <point x="66.0" y="455.74626865671644"/>
      <point x="57.0" y="658.0"/>
      <point x="57" y="658" type="qcurve"/>
      <point x="62" y="668" type="line"/>
      <point x="98.56716417910448" y="668.7462686567164"/>
      <point x="172.86567164179104" y="666.0"/>
      <point x="246" y="666" type="qcurve"/>
      <point x="316.14925373134326" y="666.0"/>
      <point x="385.5820895522388" y="668.0"/>
      <point x="402" y="668" type="qcurve"/>
      <point x="407" y="658" type="line"/>
      <point x="407" y="588" type="line"/>
      <point x="402" y="579" type="line"/>
      <point x="402.0" y="579.0"/>
      <point x="224.5820895522388" y="587.0"/>
      <point x="141" y="587" type="qcurve"/>
      <point x="165" y="615" type="line"/>
      <point x="161.26865671641792" y="585.8955223880597"/>
      <point x="157.0" y="470.7014925373134"/>
      <point x="157" y="361" type="qcurve" smooth="yes"/>
      <point x="157.0" y="205.02985074626866"/>
      <point x="163.53731343283582" y="76.65671641791045"/>
      <point x="171" y="8" type="qcurve"/>
    </contour>
    <contour>
      <point x="107" y="299" type="qcurve"/>
      <point x="107" y="373" type="line"/>
      <point x="183.86567164179104" y="373.0"/>
      <point x="338.0" y="381.0"/>
      <point x="338" y="381" type="qcurve"/>
      <point x="348" y="377" type="line"/>
      <point x="348" y="295" type="line"/>
      <point x="338" y="291" type="line"/>
      <point x="338.0" y="291.0"/>
      <point x="186.8507462686567" y="299.0"/>
    </contour>
  </outline>
</glyph>
<glyph name="G" format="2">
<<<<<<< HEAD
	<advance width="602"/>
	<unicode hex="0047"/>
	<outline>
		<contour>
			<point x="150" y="335" type="curve" smooth="yes"/>
			<point x="150" y="133.08163"/>
			<point x="232.99974" y="78"/>
			<point x="357" y="80" type="curve"/>
			<point x="428" y="80"/>
			<point x="475" y="93"/>
			<point x="512" y="114" type="curve"/>
			<point x="454" y="43" type="line"/>
			<point x="460" y="85"/>
			<point x="468" y="122"/>
			<point x="468" y="206" type="curve"/>
			<point x="468" y="260"/>
			<point x="466" y="301"/>
			<point x="458" y="330" type="curve"/>
			<point x="484" y="291" type="line"/>
			<point x="340" y="291" type="line"/>
			<point x="335" y="296" type="line"/>
			<point x="335" y="366" type="line"/>
			<point x="340" y="371" type="line"/>
			<point x="358.40129" y="369.68562"/>
			<point x="405.21739" y="369"/>
			<point x="465" y="369" type="curve" smooth="yes"/>
			<point x="503.73684" y="369"/>
			<point x="538.59832" y="370.03149"/>
			<point x="557" y="371" type="curve"/>
			<point x="562" y="366" type="line"/>
			<point x="561" y="332"/>
			<point x="557" y="286"/>
			<point x="557" y="234" type="curve"/>
			<point x="557" y="134"/>
			<point x="560" y="93"/>
			<point x="562" y="53" type="curve"/>
			<point x="561" y="48" type="line"/>
			<point x="488.60132" y="-3.23599"/>
			<point x="410" y="-10"/>
			<point x="351" y="-10" type="curve" smooth="yes"/>
			<point x="196" y="-10"/>
			<point x="50" y="71"/>
			<point x="50" y="335" type="curve" smooth="yes"/>
			<point x="50" y="599.76744"/>
			<point x="199" y="680"/>
			<point x="351" y="680" type="curve" smooth="yes"/>
			<point x="431.22857" y="680"/>
			<point x="496.76434" y="663.42791"/>
			<point x="546" y="650" type="curve"/>
			<point x="549" y="645" type="line"/>
			<point x="525" y="557" type="line"/>
			<point x="521" y="555" type="line"/>
			<point x="467.71377" y="573.13999"/>
			<point x="422.55263" y="590"/>
			<point x="349" y="590" type="curve"/>
			<point x="224" y="590"/>
			<point x="150" y="529.76378"/>
=======
	<advance width="662"/>
	<unicode hex="0047"/>
	<outline>
		<contour>
			<point x="376" y="-10" type="curve" smooth="yes"/>
			<point x="435" y="-10"/>
			<point x="514" y="-3"/>
			<point x="586" y="48" type="curve"/>
			<point x="587" y="53" type="line"/>
			<point x="585" y="115"/>
			<point x="582" y="156"/>
			<point x="582" y="249" type="curve" smooth="yes"/>
			<point x="582" y="295"/>
			<point x="585" y="335"/>
			<point x="587" y="381" type="curve"/>
			<point x="582" y="386" type="line"/>
			<point x="563" y="385"/>
			<point x="529" y="384"/>
			<point x="490" y="384" type="curve" smooth="yes"/>
			<point x="430" y="384"/>
			<point x="384" y="385"/>
			<point x="365" y="386" type="curve"/>
			<point x="360" y="381" type="line"/>
			<point x="360" y="311" type="line"/>
			<point x="365" y="306" type="line"/>
			<point x="509" y="306" type="line"/>
			<point x="483" y="345" type="line"/>
			<point x="491" y="316"/>
			<point x="493" y="274"/>
			<point x="493" y="221" type="curve" smooth="yes"/>
			<point x="493" y="128"/>
			<point x="488" y="114"/>
			<point x="479" y="43" type="curve"/>
			<point x="537" y="114" type="line"/>
			<point x="500" y="93"/>
			<point x="453" y="80"/>
			<point x="382" y="80" type="curve" smooth="yes"/>
			<point x="258" y="79"/>
			<point x="175" y="134"/>
			<point x="175" y="350" type="curve" smooth="yes"/>
			<point x="175" y="558"/>
			<point x="250" y="620"/>
			<point x="374" y="620" type="curve" smooth="yes"/>
			<point x="447" y="620"/>
			<point x="493" y="604"/>
			<point x="546" y="585" type="curve"/>
			<point x="550" y="587" type="line"/>
			<point x="574" y="675" type="line"/>
			<point x="571" y="680" type="line"/>
			<point x="522" y="693"/>
			<point x="456" y="710"/>
			<point x="376" y="710" type="curve" smooth="yes"/>
			<point x="225" y="710"/>
			<point x="75" y="629"/>
			<point x="75" y="350" type="curve" smooth="yes"/>
			<point x="75" y="72"/>
			<point x="221" y="-10"/>
>>>>>>> 63ab59a4907c3c208bd4e3ce4e29d61fad11b722
		</contour>
	</outline>
</glyph>
<glyph name="H" format="2">
  <advance width="654"/>
  <unicode hex="0048"/>
  <outline>
    <contour>
      <point x="351" y="398" type="qcurve" smooth="yes"/>
      <point x="290.55223880597015" y="398.0"/>
      <point x="176.97014925373134" y="400.0"/>
      <point x="171" y="400" type="qcurve"/>
      <point x="171" y="311" type="line"/>
      <point x="178.46268656716418" y="311.0"/>
      <point x="289.05970149253733" y="313.0"/>
      <point x="351" y="313" type="qcurve" smooth="yes"/>
      <point x="412.94029850746267" y="313.0"/>
      <point x="524.5373134328358" y="311.0"/>
      <point x="532" y="311" type="qcurve"/>
      <point x="532" y="400" type="line"/>
      <point x="526.0298507462686" y="400.0"/>
      <point x="411.44776119402985" y="398.0"/>
    </contour>
    <contour>
      <point x="100" y="632" type="line"/>
      <point x="100.0" y="632.0"/>
      <point x="110.74626865671642" y="422.14925373134326"/>
      <point x="110" y="352" type="qcurve" smooth="yes"/>
      <point x="109.25373134328358" y="281.85074626865674"/>
      <point x="100.0" y="10.0"/>
      <point x="100" y="10" type="qcurve"/>
      <point x="105" y="0" type="line"/>
      <point x="205" y="0" type="line"/>
      <point x="210" y="10" type="line"/>
      <point x="210.0" y="10.0"/>
      <point x="200.0" y="282.5970149253732"/>
      <point x="200" y="352" type="qcurve" smooth="yes"/>
      <point x="200.0" y="421.4029850746268"/>
      <point x="203.0" y="618.0"/>
      <point x="203" y="618" type="qcurve"/>
      <point x="203.0" y="647.1044776119403"/>
      <point x="174.07462686567163" y="680.0"/>
      <point x="139" y="680" type="qcurve"/>
      <point x="113.6268656716418" y="680.0"/>
      <point x="63.88059701492537" y="667.7164179104477"/>
      <point x="40" y="661" type="qcurve"/>
      <point x="47" y="589" type="line"/>
      <point x="119" y="595" type="line"/>
    </contour>
    <contour>
      <point x="504" y="0" type="qcurve"/>
      <point x="599" y="0" type="line"/>
      <point x="599.0" y="2.2388059701492535"/>
      <point x="604.0" y="8.268656716417912"/>
      <point x="604" y="12" type="qcurve" smooth="yes"/>
      <point x="603.2537313432836" y="64.23880597014926"/>
      <point x="594.0" y="283.34328358208955"/>
      <point x="594" y="352" type="qcurve" smooth="yes"/>
      <point x="594.0" y="420.65671641791045"/>
      <point x="604.0" y="660.0"/>
      <point x="604" y="660" type="qcurve"/>
      <point x="599" y="670" type="line"/>
      <point x="499" y="670" type="line"/>
      <point x="494" y="660" type="line"/>
      <point x="494.0" y="660.0"/>
      <point x="504.0" y="421.4029850746268"/>
      <point x="504" y="352" type="qcurve" smooth="yes"/>
      <point x="504.0" y="282.5970149253732"/>
      <point x="498.25373134328356" y="60.253731343283576"/>
      <point x="499" y="11" type="qcurve"/>
      <point x="500.4925373134328" y="8.014925373134329"/>
      <point x="502.5074626865672" y="2.2388059701492535"/>
    </contour>
  </outline>
</glyph>
<glyph name="I" format="2">
  <advance width="461"/>
  <unicode hex="0049"/>
  <outline>
    <contour>
      <point x="200" y="593" type="curve"/>
      <point x="178" y="610" type="line"/>
      <point x="181.06665696000596" y="560.9334886399046"/>
      <point x="186.0" y="415.7620817843866"/>
      <point x="186" y="335" type="curve" smooth="yes"/>
      <point x="186" y="256"/>
      <point x="181" y="109"/>
      <point x="178" y="55" type="curve"/>
      <point x="284" y="55" type="line"/>
      <point x="281" y="109"/>
      <point x="276" y="256"/>
      <point x="276" y="335" type="curve" smooth="yes"/>
      <point x="276.0" y="414.75280898876406"/>
      <point x="280.9328437160364" y="558.9254994565824"/>
      <point x="284" y="608" type="curve"/>
      <point x="255" y="592" type="line"/>
      <point x="289" y="590"/>
      <point x="357" y="590"/>
      <point x="399" y="587" type="curve"/>
      <point x="409" y="595" type="line"/>
      <point x="409" y="664" type="line"/>
      <point x="402" y="672" type="line"/>
      <point x="334" y="671"/>
      <point x="282" y="670"/>
      <point x="230" y="670" type="curve" smooth="yes"/>
      <point x="179" y="670"/>
      <point x="126" y="671"/>
      <point x="56" y="672" type="curve"/>
      <point x="50" y="665" type="line"/>
      <point x="50" y="595" type="line"/>
      <point x="56" y="587" type="line"/>
      <point x="113" y="592"/>
      <point x="158" y="592"/>
    </contour>
    <contour>
      <point x="57" y="-2" type="line"/>
      <point x="127" y="-1"/>
      <point x="179" y="0"/>
      <point x="231" y="0" type="curve" smooth="yes"/>
      <point x="283" y="0"/>
      <point x="334" y="-1"/>
      <point x="402" y="-2" type="curve"/>
      <point x="411" y="11" type="line"/>
      <point x="411" y="68" type="line"/>
      <point x="399" y="83" type="line"/>
      <point x="332" y="77"/>
      <point x="281" y="76"/>
      <point x="230" y="76" type="curve" smooth="yes"/>
      <point x="178" y="76"/>
      <point x="125" y="77"/>
      <point x="56" y="83" type="curve"/>
      <point x="50" y="68" type="line"/>
      <point x="50" y="10" type="line"/>
    </contour>
  </outline>
</glyph>
<glyph name="J" format="2">
	<advance width="412"/>
	<unicode hex="004A"/>
	<outline>
		<contour>
			<point x="0" y="0"/>
			<point x="0" y="0"/>
		</contour>
		<contour>
			<point x="20" y="182" type="move"/>
		</contour>
		<contour>
			<point x="20" y="171" type="curve"/>
			<point x="20" y="176"/>
			<point x="20" y="181"/>
			<point x="20" y="181" type="curve"/>
			<point x="24" y="191" type="line"/>
			<point x="109" y="191" type="line"/>
			<point x="113" y="181" type="line"/>
			<point x="113" y="181"/>
			<point x="113" y="179"/>
			<point x="113" y="176" type="curve"/>
			<point x="113" y="124"/>
			<point x="133" y="75"/>
			<point x="206" y="75" type="curve"/>
			<point x="292" y="75"/>
			<point x="290" y="139"/>
			<point x="290" y="274" type="curve"/>
			<point x="290" y="275" type="line"/>
			<point x="291" y="302"/>
			<point x="291" y="327"/>
			<point x="291" y="348" type="curve" smooth="yes"/>
			<point x="291" y="458"/>
			<point x="288" y="600"/>
			<point x="288" y="600" type="curve"/>
			<point x="337" y="582" type="line"/>
			<point x="213" y="582"/>
			<point x="132" y="571"/>
			<point x="132" y="571" type="curve"/>
			<point x="122" y="576" type="line"/>
			<point x="122" y="665" type="line"/>
			<point x="132" y="670" type="line"/>
			<point x="132" y="670"/>
			<point x="218" y="667"/>
			<point x="259" y="667" type="curve" smooth="yes"/>
			<point x="297" y="667"/>
			<point x="361" y="670"/>
			<point x="392" y="670" type="curve"/>
			<point x="387" y="348" type="line" smooth="yes"/>
			<point x="387" y="331"/>
			<point x="387" y="312"/>
			<point x="387" y="290" type="curve"/>
			<point x="384" y="169" type="line"/>
			<point x="384" y="108"/>
			<point x="353" y="-10"/>
			<point x="206" y="-10" type="curve"/>
			<point x="68" y="-10"/>
			<point x="28" y="70"/>
		</contour>
	</outline>
</glyph>
<glyph name="K" format="2">
	<advance width="540"/>
	<unicode hex="004B"/>
	<anchor x="270" y="0" name="bottom"/>
	<anchor x="270" y="700" name="top"/>
	<outline>
		<contour>
			<point x="104" y="0" type="line"/>
			<point x="203" y="0" type="line"/>
			<point x="208" y="10" type="line"/>
			<point x="201.6509" y="97.82926"/>
			<point x="198" y="266"/>
			<point x="198" y="372" type="curve" smooth="yes"/>
			<point x="198" y="472"/>
			<point x="203" y="624.43836"/>
			<point x="203" y="644" type="curve" smooth="yes"/>
			<point x="203" y="683"/>
			<point x="187" y="706"/>
			<point x="142" y="706" type="curve" smooth="yes"/>
			<point x="110" y="706"/>
			<point x="71" y="696"/>
			<point x="40" y="688" type="curve"/>
			<point x="48" y="625" type="line"/>
			<point x="119" y="629" type="line"/>
			<point x="98" y="658" type="line"/>
			<point x="104" y="572"/>
			<point x="109" y="487"/>
			<point x="109" y="356" type="curve" smooth="yes"/>
			<point x="109" y="244"/>
			<point x="105" y="93"/>
			<point x="99" y="10" type="curve"/>
		</contour>
		<contour>
			<point x="154" y="406" type="line"/>
			<point x="154" y="305" type="line"/>
			<point x="229" y="305" type="line" smooth="yes"/>
			<point x="256.83478" y="305"/>
			<point x="404" y="519"/>
			<point x="520" y="685" type="curve"/>
			<point x="515" y="700" type="line"/>
			<point x="425" y="700" type="line"/>
			<point x="417" y="696" type="line"/>
			<point x="338" y="577"/>
			<point x="230.12617" y="406"/>
			<point x="214" y="406" type="curve" smooth="yes"/>
		</contour>
		<contour>
			<point x="458" y="67" type="line"/>
			<point x="274" y="389" type="line"/>
			<point x="190" y="344" type="line"/>
			<point x="284" y="165" type="line" smooth="yes"/>
			<point x="344.92955" y="48.97457"/>
			<point x="367" y="-10"/>
			<point x="433" y="-10" type="curve" smooth="yes"/>
			<point x="475" y="-10"/>
			<point x="498" y="1"/>
			<point x="542" y="32" type="curve"/>
			<point x="524" y="88" type="line"/>
			<point x="427" y="77" type="line"/>
		</contour>
	</outline>
</glyph>
<glyph name="L" format="2">
<<<<<<< HEAD
	<advance width="400"/>
	<unicode hex="004C"/>
	<outline>
		<contour>
			<point x="150" y="333" type="curve" smooth="yes"/>
			<point x="150" y="195"/>
			<point x="154" y="103"/>
			<point x="157" y="53" type="curve"/>
			<point x="114" y="81" type="line"/>
			<point x="265" y="81"/>
			<point x="385" y="89"/>
			<point x="385" y="89" type="curve"/>
			<point x="390" y="80" type="line"/>
			<point x="390" y="10" type="line"/>
			<point x="385" y="0" type="line"/>
			<point x="329.99121" y="2.9469"/>
			<point x="266" y="4"/>
			<point x="219" y="4" type="curve" smooth="yes"/>
			<point x="174" y="4"/>
			<point x="124.26464" y="3.05579"/>
			<point x="55" y="0" type="curve"/>
			<point x="50" y="10" type="line"/>
			<point x="50" y="10"/>
			<point x="60" y="190"/>
			<point x="60" y="335" type="curve" smooth="yes"/>
			<point x="60" y="472"/>
			<point x="54" y="601"/>
			<point x="50" y="660" type="curve"/>
			<point x="55" y="670" type="line"/>
			<point x="153" y="670" type="line"/>
			<point x="158" y="660" type="line"/>
			<point x="152" y="610"/>
			<point x="150" y="471"/>
=======
	<advance width="470"/>
	<unicode hex="004C"/>
	<anchor x="235" y="700" name="top"/>
	<anchor x="254" y="4" name="bottom"/>
	<anchor x="235" y="350" name="center"/>
	<anchor x="450" y="700" name="topright"/>
	<outline>
		<contour>
			<point x="90" y="0" type="line"/>
			<point x="159" y="3"/>
			<point x="209" y="4"/>
			<point x="254" y="4" type="curve" smooth="yes"/>
			<point x="301" y="4"/>
			<point x="385" y="3"/>
			<point x="440" y="0" type="curve"/>
			<point x="445" y="10" type="line"/>
			<point x="445" y="80" type="line"/>
			<point x="440" y="89" type="line"/>
			<point x="440" y="89"/>
			<point x="414" y="88"/>
			<point x="341" y="85" type="curve" smooth="yes"/>
			<point x="288" y="83"/>
			<point x="224" y="81"/>
			<point x="149" y="81" type="curve"/>
			<point x="192" y="53" type="line"/>
			<point x="189" y="102"/>
			<point x="185" y="196"/>
			<point x="185" y="333" type="curve" smooth="yes"/>
			<point x="185" y="500"/>
			<point x="188" y="641"/>
			<point x="193" y="690" type="curve"/>
			<point x="188" y="700" type="line"/>
			<point x="90" y="700" type="line"/>
			<point x="85" y="690" type="line"/>
			<point x="89" y="631"/>
			<point x="95" y="501"/>
			<point x="95" y="335" type="curve" smooth="yes"/>
			<point x="95" y="219"/>
			<point x="91" y="170"/>
			<point x="85" y="10" type="curve"/>
>>>>>>> 63ab59a4907c3c208bd4e3ce4e29d61fad11b722
		</contour>
	</outline>
</glyph>
<glyph name="M" format="2">
<<<<<<< HEAD
	<advance width="753"/>
	<unicode hex="004D"/>
	<outline>
		<contour>
			<point x="380" y="63" type="line"/>
			<point x="403" y="63" type="line"/>
			<point x="191" y="670" type="line"/>
			<point x="55" y="670" type="line"/>
			<point x="50" y="664" type="line"/>
			<point x="64" y="568"/>
			<point x="65" y="482"/>
			<point x="65" y="375" type="curve" smooth="yes"/>
			<point x="65" y="186"/>
			<point x="65" y="109"/>
			<point x="55" y="10" type="curve"/>
			<point x="60" y="0" type="line"/>
			<point x="150" y="0" type="line"/>
			<point x="155" y="10" type="line"/>
			<point x="145" y="108"/>
			<point x="145" y="186"/>
			<point x="145" y="440" type="curve"/>
			<point x="127" y="618" type="line"/>
			<point x="114" y="609" type="line"/>
			<point x="169" y="425" type="line"/>
			<point x="325" y="0" type="line"/>
			<point x="442" y="0" type="line"/>
			<point x="577" y="433" type="line"/>
			<point x="630" y="609" type="line"/>
			<point x="617" y="618" type="line"/>
			<point x="603" y="440" type="line"/>
			<point x="603" y="186"/>
			<point x="600" y="109"/>
			<point x="593" y="10" type="curve"/>
			<point x="598" y="0" type="line"/>
			<point x="698" y="0" type="line"/>
			<point x="703" y="10" type="line"/>
			<point x="694" y="109"/>
			<point x="693" y="186"/>
			<point x="693" y="375" type="curve" smooth="yes"/>
			<point x="693" y="476"/>
			<point x="693" y="568"/>
			<point x="703" y="664" type="curve"/>
			<point x="698" y="670" type="line"/>
			<point x="566" y="670" type="line"/>
		</contour>
	</outline>
=======
	<advance width="889"/>
	<unicode hex="004D"/>
	<guideline x="388" y="551" angle="0"/>
	<guideline x="479" y="314" angle="0"/>
	<outline>
		<contour>
			<point x="66" y="0" type="line"/>
			<point x="154" y="0" type="line"/>
			<point x="158" y="10" type="line"/>
			<point x="174" y="214"/>
			<point x="205" y="422"/>
			<point x="236" y="650" type="curve"/>
			<point x="194" y="650" type="line"/>
			<point x="243" y="523"/>
			<point x="344" y="178"/>
			<point x="381" y="10" type="curve"/>
			<point x="388" y="0" type="line"/>
			<point x="499" y="0" type="line"/>
			<point x="506" y="9" type="line"/>
			<point x="544" y="164"/>
			<point x="642" y="493"/>
			<point x="677" y="650" type="curve"/>
			<point x="644" y="650" type="line"/>
			<point x="665" y="482"/>
			<point x="697" y="248"/>
			<point x="723" y="10" type="curve"/>
			<point x="730" y="0" type="line"/>
			<point x="824" y="0" type="line"/>
			<point x="829" y="10" type="line"/>
			<point x="801" y="174"/>
			<point x="747" y="518"/>
			<point x="734" y="694" type="curve"/>
			<point x="720" y="700" type="line"/>
			<point x="604" y="700" type="line"/>
			<point x="598" y="692" type="line"/>
			<point x="560" y="492"/>
			<point x="488" y="270"/>
			<point x="438" y="63" type="curve"/>
			<point x="468" y="63" type="line"/>
			<point x="410" y="277"/>
			<point x="335" y="484"/>
			<point x="290" y="693" type="curve"/>
			<point x="284" y="700" type="line"/>
			<point x="162" y="700" type="line"/>
			<point x="154" y="694" type="line"/>
			<point x="141" y="506"/>
			<point x="95" y="197"/>
			<point x="60" y="10" type="curve"/>
		</contour>
	</outline>
>>>>>>> 63ab59a4907c3c208bd4e3ce4e29d61fad11b722
</glyph>
<glyph name="N" format="2">
<<<<<<< HEAD
	<advance width="616"/>
	<unicode hex="004E"/>
	<anchor x="276" y="670" name="top"/>
	<outline>
		<contour>
			<point x="481" y="59" type="line"/>
			<point x="507" y="107" type="line"/>
			<point x="461" y="205" type="line"/>
			<point x="148" y="670" type="line"/>
			<point x="55" y="670" type="line"/>
			<point x="50" y="664" type="line"/>
			<point x="54" y="637"/>
			<point x="65" y="476"/>
			<point x="65" y="375" type="curve" smooth="yes"/>
			<point x="65" y="175"/>
			<point x="55" y="42"/>
			<point x="55" y="10" type="curve"/>
			<point x="60" y="0" type="line"/>
			<point x="164" y="0" type="line"/>
			<point x="169" y="10" type="line"/>
			<point x="159.33068" y="113.13944"/>
			<point x="150" y="192.75"/>
			<point x="150" y="440" type="curve"/>
			<point x="132" y="618" type="line"/>
			<point x="119" y="569" type="line"/>
			<point x="162" y="482" type="line"/>
			<point x="480" y="0" type="line"/>
			<point x="561" y="0" type="line"/>
			<point x="566" y="6" type="line"/>
			<point x="562" y="35"/>
			<point x="553" y="212"/>
			<point x="553" y="322" type="curve" smooth="yes"/>
			<point x="553" y="569"/>
			<point x="556" y="617"/>
			<point x="563" y="660" type="curve"/>
			<point x="558" y="670" type="line"/>
			<point x="463" y="670" type="line"/>
			<point x="458" y="660" type="line"/>
			<point x="463.73099" y="591.22818"/>
			<point x="468" y="526"/>
			<point x="468" y="278" type="curve"/>
=======
	<advance width="706"/>
	<unicode hex="004E"/>
	<anchor x="344" y="690" name="top"/>
	<anchor x="353" y="0" name="bottom"/>
	<outline>
		<contour>
			<point x="95" y="0" type="line"/>
			<point x="199" y="0" type="line"/>
			<point x="204" y="10" type="line"/>
			<point x="195" y="113"/>
			<point x="185" y="193"/>
			<point x="185" y="470" type="curve"/>
			<point x="167" y="648" type="line"/>
			<point x="154" y="599" type="line"/>
			<point x="197" y="512" type="line"/>
			<point x="535" y="0" type="line"/>
			<point x="616" y="0" type="line"/>
			<point x="621" y="6" type="line"/>
			<point x="617" y="35"/>
			<point x="608" y="213"/>
			<point x="608" y="322" type="curve" smooth="yes"/>
			<point x="608" y="475"/>
			<point x="615" y="669"/>
			<point x="618" y="690" type="curve"/>
			<point x="613" y="700" type="line"/>
			<point x="518" y="700" type="line"/>
			<point x="513" y="690" type="line"/>
			<point x="522" y="569"/>
			<point x="523" y="446"/>
			<point x="523" y="278" type="curve"/>
			<point x="536" y="59" type="line"/>
			<point x="562" y="107" type="line"/>
			<point x="516" y="205" type="line"/>
			<point x="183" y="700" type="line"/>
			<point x="90" y="700" type="line"/>
			<point x="85" y="694" type="line"/>
			<point x="89" y="667"/>
			<point x="100" y="505"/>
			<point x="100" y="405" type="curve" smooth="yes"/>
			<point x="100" y="276"/>
			<point x="90" y="26"/>
			<point x="90" y="10" type="curve"/>
>>>>>>> 63ab59a4907c3c208bd4e3ce4e29d61fad11b722
		</contour>
	</outline>
</glyph>
<glyph name="O" format="2">
<<<<<<< HEAD
	<advance width="690"/>
	<unicode hex="004F"/>
	<outline>
		<contour>
			<point x="345" y="80" type="curve" smooth="yes"/>
			<point x="471" y="80"/>
			<point x="540" y="169.5102"/>
			<point x="540" y="335" type="curve" smooth="yes"/>
			<point x="540" y="500.4898"/>
			<point x="471" y="590"/>
			<point x="345" y="590" type="curve" smooth="yes"/>
			<point x="219" y="590"/>
			<point x="150" y="500"/>
			<point x="150" y="335" type="curve" smooth="yes"/>
			<point x="150" y="170"/>
			<point x="219" y="80"/>
		</contour>
		<contour>
			<point x="345" y="-10" type="curve" smooth="yes"/>
			<point x="161" y="-10"/>
			<point x="50" y="120"/>
			<point x="50" y="335" type="curve" smooth="yes"/>
			<point x="50" y="550"/>
			<point x="161" y="680"/>
			<point x="345" y="680" type="curve" smooth="yes"/>
			<point x="529" y="680"/>
			<point x="640" y="550"/>
			<point x="640" y="335" type="curve" smooth="yes"/>
			<point x="640" y="120"/>
			<point x="529" y="-10"/>
=======
	<advance width="740"/>
	<unicode hex="004F"/>
	<anchor x="370" y="700" name="top"/>
	<anchor x="370" y="0" name="bottom"/>
	<anchor x="370" y="350" name="center"/>
	<anchor x="720" y="700" name="topright"/>
	<anchor x="666" y="10" name="ogonek"/>
	<anchor x="20" y="700" name="topleft"/>
	<outline>
		<contour>
			<point x="370" y="-10" type="curve" smooth="yes"/>
			<point x="553" y="-10"/>
			<point x="665" y="122"/>
			<point x="665" y="350" type="curve" smooth="yes"/>
			<point x="665" y="578"/>
			<point x="553" y="710"/>
			<point x="370" y="710" type="curve" smooth="yes"/>
			<point x="187" y="710"/>
			<point x="75" y="578"/>
			<point x="75" y="350" type="curve" smooth="yes"/>
			<point x="75" y="122"/>
			<point x="187" y="-10"/>
		</contour>
		<contour>
			<point x="370" y="80" type="curve" smooth="yes"/>
			<point x="245" y="80"/>
			<point x="175" y="171"/>
			<point x="175" y="350" type="curve" smooth="yes"/>
			<point x="175" y="529"/>
			<point x="245" y="620"/>
			<point x="370" y="620" type="curve" smooth="yes"/>
			<point x="495" y="620"/>
			<point x="565" y="529"/>
			<point x="565" y="350" type="curve" smooth="yes"/>
			<point x="565" y="171"/>
			<point x="495" y="80"/>
>>>>>>> 63ab59a4907c3c208bd4e3ce4e29d61fad11b722
		</contour>
	</outline>
</glyph>
<glyph name="P" format="2">
  <advance width="465"/>
  <unicode hex="0050"/>
  <outline>
    <contour>
      <point x="150" y="343" type="curve"/>
      <point x="150" y="242"/>
      <point x="165" y="10"/>
      <point x="165" y="10" type="curve"/>
      <point x="160" y="0" type="line"/>
      <point x="55" y="0" type="line"/>
      <point x="50" y="10" type="line"/>
      <point x="50" y="10"/>
      <point x="60" y="238"/>
      <point x="60" y="343" type="curve"/>
      <point x="60" y="444"/>
      <point x="50" y="665"/>
      <point x="50" y="665" type="curve"/>
      <point x="55" y="675" type="line"/>
      <point x="206" y="675" type="line" smooth="yes"/>
      <point x="363" y="675"/>
      <point x="445" y="606"/>
      <point x="445" y="459" type="curve" smooth="yes"/>
      <point x="445" y="312"/>
      <point x="343" y="225"/>
      <point x="202" y="225" type="curve" smooth="yes"/>
      <point x="123" y="225" type="line"/>
      <point x="123" y="305" type="line"/>
      <point x="197" y="305" type="line" smooth="yes"/>
      <point x="298" y="305"/>
      <point x="352" y="341"/>
      <point x="352" y="457" type="curve" smooth="yes"/>
      <point x="352" y="546"/>
      <point x="303.66216" y="590"/>
      <point x="206" y="590" type="curve" smooth="yes"/>
      <point x="106" y="590" type="line"/>
      <point x="156" y="627" type="line"/>
      <point x="153" y="540"/>
      <point x="150" y="444"/>
    </contour>
  </outline>
</glyph>
<glyph name="Q" format="2">
  <advance width="690"/>
  <unicode hex="0051"/>
  <outline>
    <contour>
      <point x="345" y="80" type="qcurve" smooth="yes"/>
      <point x="439.02985074626866" y="80.0"/>
      <point x="540.0" y="211.86567164179104"/>
      <point x="540" y="335" type="qcurve" smooth="yes"/>
      <point x="540.0" y="458.13432835820896"/>
      <point x="439.02985074626866" y="590.0"/>
      <point x="345" y="590" type="qcurve" smooth="yes"/>
      <point x="250.97014925373134" y="590.0"/>
      <point x="150.0" y="458.13432835820896"/>
      <point x="150" y="335" type="qcurve" smooth="yes"/>
      <point x="150.0" y="211.86567164179104"/>
      <point x="250.97014925373134" y="80.0"/>
    </contour>
    <contour>
      <point x="345" y="-10" type="qcurve" smooth="yes"/>
      <point x="207.6865671641791" y="-10.0"/>
      <point x="50.0" y="174.55223880597018"/>
      <point x="50" y="335" type="qcurve" smooth="yes"/>
      <point x="50.0" y="495.4477611940298"/>
      <point x="207.6865671641791" y="680.0"/>
      <point x="345" y="680" type="qcurve" smooth="yes"/>
      <point x="482.3134328358209" y="680.0"/>
      <point x="640.0" y="495.4477611940298"/>
      <point x="640" y="335" type="qcurve" smooth="yes"/>
      <point x="640.0" y="174.55223880597018"/>
      <point x="482.3134328358209" y="-10.0"/>
    </contour>
    <contour>
      <point x="406" y="-223" type="line"/>
      <point x="316" y="0" type="line"/>
      <point x="378" y="22" type="line"/>
      <point x="524" y="-157" type="line"/>
      <point x="521" y="-170" type="line"/>
      <point x="425" y="-227" type="line"/>
    </contour>
  </outline>
</glyph>
<glyph name="R" format="2">
	<advance width="605"/>
	<unicode hex="0052"/>
	<anchor x="303" y="0" name="bottom"/>
	<anchor x="303" y="700" name="top"/>
	<outline>
		<contour>
			<point x="85" y="0" type="line"/>
			<point x="190" y="0" type="line"/>
			<point x="195" y="10" type="line"/>
			<point x="189" y="110"/>
			<point x="180" y="232"/>
			<point x="180" y="405" type="curve" smooth="yes"/>
			<point x="180" y="525"/>
			<point x="183" y="565"/>
			<point x="186" y="657" type="curve"/>
			<point x="156" y="620" type="line"/>
			<point x="253" y="620" type="line" smooth="yes"/>
			<point x="357" y="620"/>
			<point x="409" y="567"/>
			<point x="409" y="488" type="curve" smooth="yes"/>
			<point x="409" y="399"/>
			<point x="354" y="377"/>
			<point x="244" y="377" type="curve" smooth="yes"/>
			<point x="173" y="377" type="line"/>
			<point x="173" y="297" type="line"/>
			<point x="249" y="297" type="line" smooth="yes"/>
			<point x="411" y="297"/>
			<point x="502" y="352"/>
			<point x="502" y="490" type="curve" smooth="yes"/>
			<point x="502" y="619"/>
			<point x="413" y="705"/>
			<point x="253" y="705" type="curve" smooth="yes"/>
			<point x="85" y="705" type="line"/>
			<point x="80" y="695" type="line"/>
			<point x="84" y="600"/>
			<point x="90" y="503"/>
			<point x="90" y="383" type="curve" smooth="yes"/>
			<point x="90" y="207"/>
			<point x="84" y="108"/>
			<point x="80" y="10" type="curve"/>
		</contour>
		<contour>
			<point x="469" y="-9" type="curve" smooth="yes"/>
			<point x="501" y="-9"/>
			<point x="520" y="2"/>
			<point x="559" y="27" type="curve"/>
			<point x="540" y="85" type="line"/>
			<point x="461" y="77" type="line"/>
			<point x="493" y="55" type="line"/>
			<point x="461" y="116"/>
			<point x="389" y="287"/>
			<point x="366" y="346" type="curve"/>
			<point x="254" y="313" type="line"/>
			<point x="270" y="302"/>
			<point x="293" y="284"/>
			<point x="308" y="254" type="curve" smooth="yes"/>
			<point x="344" y="184"/>
			<point x="365" y="117"/>
			<point x="386" y="69" type="curve" smooth="yes"/>
			<point x="409" y="17"/>
			<point x="428" y="-9"/>
		</contour>
	</outline>
</glyph>
<glyph name="S" format="2">
	<advance width="515"/>
	<unicode hex="0053"/>
	<anchor x="258" y="0" name="bottom"/>
	<anchor x="258" y="700" name="top"/>
	<outline>
		<contour>
			<point x="259" y="-11" type="curve" smooth="yes"/>
			<point x="363" y="-11"/>
			<point x="475" y="42"/>
			<point x="475" y="194" type="curve" smooth="yes"/>
			<point x="475" y="443"/>
			<point x="152" y="396"/>
			<point x="152" y="535" type="curve" smooth="yes"/>
			<point x="152" y="597"/>
			<point x="209" y="627"/>
			<point x="274" y="627" type="curve" smooth="yes"/>
			<point x="327" y="627"/>
			<point x="386" y="599"/>
			<point x="425" y="569" type="curve"/>
			<point x="433" y="569" type="line"/>
			<point x="474" y="641" type="line"/>
			<point x="472" y="649" type="line"/>
			<point x="406" y="694"/>
			<point x="334" y="710"/>
			<point x="270" y="710" type="curve" smooth="yes"/>
			<point x="155" y="710"/>
			<point x="62" y="645"/>
			<point x="62" y="536" type="curve" smooth="yes"/>
			<point x="62" y="304"/>
			<point x="385" y="351"/>
			<point x="385" y="189" type="curve" smooth="yes"/>
			<point x="385" y="106"/>
			<point x="327" y="74"/>
			<point x="273" y="74" type="curve" smooth="yes"/>
			<point x="216" y="74"/>
			<point x="135" y="93"/>
			<point x="75" y="127" type="curve"/>
			<point x="67" y="126" type="line"/>
			<point x="36" y="46" type="line"/>
			<point x="40" y="38" type="line"/>
			<point x="100" y="9"/>
			<point x="177" y="-11"/>
		</contour>
	</outline>
</glyph>
<glyph name="T" format="2">
  <advance width="448"/>
  <unicode hex="0054"/>
  <outline>
    <contour>
      <point x="176.0" y="430.08955223880594"/>
      <point x="176.0" y="600.0"/>
      <point x="176" y="600" type="qcurve"/>
      <point x="272" y="600" type="line"/>
      <point x="272.0" y="600.0"/>
      <point x="272.0" y="427.5970149253731"/>
      <point x="272" y="347" type="qcurve" smooth="yes"/>
      <point x="272.0" y="266.4029850746269"/>
      <point x="285.0" y="6.0"/>
      <point x="285" y="6" type="qcurve"/>
      <point x="280" y="-4" type="line"/>
      <point x="168" y="-4" type="line"/>
      <point x="163" y="6" type="line"/>
      <point x="163.0" y="6.0"/>
      <point x="176.0" y="265.91044776119406"/>
      <point x="176" y="348" type="qcurve" smooth="yes"/>
    </contour>
    <contour>
      <point x="225" y="582" type="qcurve" smooth="yes"/>
      <point x="133.2089552238806" y="582.0"/>
      <point x="20.0" y="571.0"/>
      <point x="20" y="571" type="qcurve"/>
      <point x="10" y="576" type="line"/>
      <point x="10" y="665" type="line"/>
      <point x="20" y="670" type="line"/>
      <point x="20.0" y="670.0"/>
      <point x="150.37313432835822" y="667.0"/>
      <point x="225" y="667" type="qcurve" smooth="yes"/>
      <point x="301.1194029850746" y="667.0"/>
      <point x="428.0" y="670.0"/>
      <point x="428" y="670" type="qcurve"/>
      <point x="438" y="665" type="line"/>
      <point x="438" y="576" type="line"/>
      <point x="428" y="571" type="line"/>
      <point x="428.0" y="571.0"/>
      <point x="316.7910447761194" y="582.0"/>
    </contour>
  </outline>
</glyph>
<glyph name="U" format="2">
  <advance width="623"/>
  <unicode hex="0055"/>
  <outline>
    <contour>
      <point x="319" y="-10" type="qcurve"/>
      <point x="183.17910447761196" y="-10.0"/>
      <point x="60.0" y="125.20505970149253"/>
      <point x="60" y="276" type="qcurve" smooth="yes"/>
      <point x="60" y="660" type="line"/>
      <point x="69" y="670" type="line"/>
      <point x="151" y="670" type="line"/>
      <point x="160" y="661" type="line"/>
      <point x="160" y="266" type="line" smooth="yes"/>
      <point x="160.0" y="174.65011940298507"/>
      <point x="239.17910447761193" y="75.0"/>
      <point x="325" y="75" type="qcurve"/>
      <point x="389.17910447761193" y="75.0"/>
      <point x="468.0" y="173.2537313432836"/>
      <point x="468" y="274" type="qcurve" smooth="yes"/>
      <point x="468" y="661" type="line"/>
      <point x="477" y="670" type="line"/>
      <point x="554" y="670" type="line"/>
      <point x="563" y="660" type="line"/>
      <point x="563" y="288" type="line" smooth="yes"/>
      <point x="563.0" y="152.92537313432837"/>
      <point x="437.65671641791045" y="-10.0"/>
    </contour>
  </outline>
</glyph>
<glyph name="V" format="2">
	<advance width="586"/>
	<unicode hex="0056"/>
	<outline>
		<contour>
			<point x="226" y="0" type="line"/>
			<point x="354" y="0" type="line"/>
			<point x="360" y="10" type="line"/>
			<point x="411" y="200"/>
			<point x="493" y="472"/>
			<point x="571" y="687" type="curve"/>
			<point x="566" y="697" type="line"/>
			<point x="559" y="697"/>
			<point x="483" y="697"/>
			<point x="476" y="697" type="curve"/>
			<point x="470" y="687" type="line"/>
			<point x="429" y="499"/>
			<point x="333" y="224"/>
			<point x="286" y="40" type="curve"/>
			<point x="314" y="40" type="line"/>
			<point x="258" y="231"/>
			<point x="174" y="473"/>
			<point x="126" y="692" type="curve"/>
			<point x="119" y="700" type="line"/>
			<point x="112" y="700"/>
			<point x="28" y="700"/>
			<point x="21" y="700" type="curve"/>
			<point x="15" y="690" type="line"/>
			<point x="100" y="473"/>
			<point x="163" y="227"/>
			<point x="220" y="10" type="curve"/>
		</contour>
	</outline>
</glyph>
<glyph name="W" format="2">
  <advance width="873"/>
  <unicode hex="0057"/>
  <anchor x="469" y="0" name="bottom"/>
  <anchor x="469" y="700" name="top"/>
  <outline>
    <contour>
      <point x="852" y="700" type="line"/>
      <point x="759" y="700" type="line"/>
      <point x="755" y="690" type="line"/>
      <point x="725.0" y="495.0"/>
      <point x="673.0" y="289.0"/>
      <point x="618" y="50" type="curve"/>
      <point x="649" y="50" type="line"/>
      <point x="608.0" y="188.0"/>
      <point x="540.0" y="451.0"/>
      <point x="502" y="620" type="curve"/>
      <point x="495" y="630" type="line"/>
      <point x="395" y="630" type="line"/>
      <point x="388" y="621" type="line"/>
      <point x="356" y="462"/>
      <point x="294" y="222"/>
      <point x="252" y="50" type="curve"/>
      <point x="280" y="50" type="line"/>
      <point x="233" y="254"/>
      <point x="174" y="465"/>
      <point x="125" y="690" type="curve"/>
      <point x="118" y="700" type="line"/>
      <point x="20" y="700" type="line"/>
      <point x="15" y="690" type="line"/>
      <point x="61.0" y="531.0"/>
      <point x="136.0" y="265.0"/>
      <point x="185" y="6" type="curve"/>
      <point x="199" y="0" type="line"/>
      <point x="319" y="0" type="line"/>
      <point x="325" y="8" type="line"/>
      <point x="375" y="224"/>
      <point x="410.0" y="381.0"/>
      <point x="461" y="597" type="curve"/>
      <point x="413" y="597" type="line"/>
      <point x="464" y="394"/>
      <point x="500" y="223"/>
      <point x="551" y="7" type="curve"/>
      <point x="557" y="0" type="line"/>
      <point x="686" y="0" type="line"/>
      <point x="694" y="6" type="line"/>
      <point x="742.0" y="228"/>
      <point x="804.0" y="488.0"/>
      <point x="858" y="690" type="curve"/>
    </contour>
  </outline>
</glyph>
<glyph name="X" format="2">
	<advance width="572"/>
	<unicode hex="0058"/>
	<outline>
		<contour>
			<point x="430" y="0" type="line"/>
			<point x="540" y="0" type="line"/>
			<point x="547" y="15" type="line"/>
			<point x="398" y="242"/>
			<point x="234" y="526"/>
			<point x="170" y="686" type="curve"/>
			<point x="159" y="700" type="line"/>
			<point x="46" y="700" type="line"/>
			<point x="40" y="686" type="line"/>
			<point x="160" y="511"/>
			<point x="328" y="198"/>
			<point x="419" y="14" type="curve"/>
		</contour>
		<contour>
			<point x="31" y="0" type="line"/>
			<point x="135" y="0" type="line"/>
			<point x="142" y="18" type="line"/>
			<point x="200" y="147"/>
			<point x="236" y="201"/>
			<point x="315" y="339" type="curve"/>
			<point x="245" y="386" type="line"/>
			<point x="149" y="197"/>
			<point x="116" y="148"/>
			<point x="25" y="15" type="curve"/>
		</contour>
		<contour>
			<point x="306" y="305" type="line"/>
			<point x="369" y="434"/>
			<point x="446" y="555"/>
			<point x="528" y="686" type="curve"/>
			<point x="522" y="700" type="line"/>
			<point x="413" y="700" type="line"/>
			<point x="402" y="686" type="line"/>
			<point x="347" y="537"/>
			<point x="292" y="440"/>
			<point x="222" y="329" type="curve"/>
		</contour>
	</outline>
</glyph>
<glyph name="Y" format="2">
	<advance width="500"/>
	<unicode hex="0059"/>
	<anchor x="250" y="700" name="top"/>
	<anchor x="250" y="0" name="bottom"/>
	<anchor x="20" y="700" name="topleft"/>
	<outline>
		<contour>
			<point x="216" y="304" type="line"/>
			<point x="290" y="305" type="line"/>
			<point x="298" y="315" type="line"/>
			<point x="363" y="438"/>
			<point x="447" y="614"/>
			<point x="493" y="690" type="curve"/>
			<point x="488" y="700" type="line"/>
			<point x="483" y="700"/>
			<point x="405" y="700"/>
			<point x="400" y="700" type="curve"/>
			<point x="393" y="692" type="line"/>
			<point x="363" y="631"/>
			<point x="305" y="527"/>
			<point x="229" y="363" type="curve"/>
			<point x="290" y="363" type="line"/>
			<point x="218" y="520"/>
			<point x="145" y="647"/>
			<point x="127" y="690" type="curve"/>
			<point x="121" y="700" type="line"/>
			<point x="115" y="700"/>
			<point x="25" y="700"/>
			<point x="19" y="700" type="curve"/>
			<point x="15" y="690" type="line"/>
			<point x="43" y="639"/>
			<point x="160" y="440"/>
			<point x="208" y="314" type="curve"/>
		</contour>
		<contour>
			<point x="208" y="-5" type="line"/>
			<point x="300" y="-5" type="line"/>
			<point x="305" y="0" type="line"/>
			<point x="299" y="52"/>
			<point x="299" y="104"/>
			<point x="299" y="166" type="curve" smooth="yes"/>
			<point x="299" y="281"/>
			<point x="299" y="333"/>
			<point x="299" y="339" type="curve"/>
			<point x="209" y="339" type="line"/>
			<point x="209" y="333"/>
			<point x="209" y="282"/>
			<point x="209" y="166" type="curve" smooth="yes"/>
			<point x="209" y="103"/>
			<point x="209" y="52"/>
			<point x="203" y="0" type="curve"/>
		</contour>
	</outline>
</glyph>
<glyph name="Z" format="2">
	<advance width="500"/>
	<unicode hex="005A"/>
	<anchor x="250" y="700" name="top"/>
	<anchor x="250" y="11" name="bottom"/>
	<anchor x="250" y="350" name="center"/>
	<outline>
		<contour>
			<point x="32" y="0" type="line"/>
			<point x="95" y="4"/>
			<point x="172" y="7"/>
			<point x="288" y="6" type="curve" smooth="yes"/>
			<point x="345" y="5"/>
			<point x="463" y="3"/>
			<point x="481" y="0" type="curve"/>
			<point x="487" y="14" type="line"/>
			<point x="488" y="88" type="line"/>
			<point x="482" y="100" type="line"/>
			<point x="346" y="92"/>
			<point x="321" y="89"/>
			<point x="126" y="89" type="curve"/>
			<point x="171" y="47" type="line"/>
			<point x="254" y="233"/>
			<point x="392" y="495"/>
			<point x="485" y="690" type="curve"/>
			<point x="478" y="704" type="line"/>
			<point x="416" y="700"/>
			<point x="364" y="698"/>
			<point x="248" y="700" type="curve" smooth="yes"/>
			<point x="191" y="700"/>
			<point x="75" y="702"/>
			<point x="57" y="705" type="curve"/>
			<point x="50" y="691" type="line"/>
			<point x="50" y="617" type="line"/>
			<point x="60" y="604" type="line"/>
			<point x="223" y="614"/>
			<point x="192" y="616"/>
			<point x="376" y="616" type="curve"/>
			<point x="341" y="654" type="line"/>
			<point x="263" y="445"/>
			<point x="164" y="277"/>
			<point x="26" y="15" type="curve"/>
		</contour>
	</outline>
</glyph>
<glyph name="backslash" format="2">
	<advance width="340"/>
	<unicode hex="005C"/>
	<outline>
		<contour>
			<point x="328" y="0" type="line"/>
			<point x="330" y="10" type="line"/>
			<point x="128" y="693" type="line"/>
			<point x="121" y="700" type="line"/>
			<point x="47" y="700" type="line"/>
			<point x="43" y="692" type="line"/>
			<point x="245" y="10" type="line"/>
			<point x="253" y="0" type="line"/>
		</contour>
	</outline>
</glyph>
<glyph name="bracketright" format="2">
	<advance width="295"/>
	<unicode hex="005D"/>
	<outline>
		<contour>
			<point x="145" y="-82" type="line"/>
			<point x="145" y="732" type="line"/>
			<point x="198" y="694" type="line"/>
			<point x="131" y="693"/>
			<point x="48" y="693"/>
			<point x="20" y="692" type="curve"/>
			<point x="10" y="697" type="line"/>
			<point x="10" y="767" type="line"/>
			<point x="20" y="772" type="line"/>
			<point x="47" y="771"/>
			<point x="72" y="771"/>
			<point x="150" y="771" type="curve" smooth="yes"/>
			<point x="230" y="771" type="line"/>
			<point x="235" y="761" type="line"/>
			<point x="223" y="540"/>
			<point x="222" y="102"/>
			<point x="235" y="-120" type="curve"/>
			<point x="230" y="-130" type="line"/>
			<point x="150" y="-130" type="line" smooth="yes"/>
			<point x="72" y="-130"/>
			<point x="47" y="-130"/>
			<point x="20" y="-131" type="curve"/>
			<point x="10" y="-126" type="line"/>
			<point x="10" y="-56" type="line"/>
			<point x="20" y="-51" type="line"/>
			<point x="48" y="-52"/>
			<point x="131" y="-52"/>
			<point x="198" y="-53" type="curve"/>
		</contour>
	</outline>
</glyph>
<glyph name="underscore" format="2">
	<advance width="500"/>
	<unicode hex="005F"/>
	<outline>
		<contour>
			<point x="457" y="0" type="line"/>
			<point x="334" y="3"/>
			<point x="160" y="3"/>
			<point x="37" y="0" type="curve"/>
			<point x="30" y="6" type="line"/>
			<point x="30" y="73" type="line"/>
			<point x="38" y="78" type="line"/>
			<point x="161" y="75"/>
			<point x="334" y="75"/>
			<point x="457" y="78" type="curve"/>
			<point x="467" y="73" type="line"/>
			<point x="467" y="5" type="line"/>
		</contour>
	</outline>
</glyph>
<glyph name="grave" format="2">
	<advance width="316"/>
	<unicode hex="0060"/>
	<anchor x="216" y="510" name="_top"/>
	<outline>
		<contour>
			<point x="246" y="559" type="line"/>
			<point x="285" y="595" type="line"/>
			<point x="286" y="603" type="line"/>
			<point x="127" y="803" type="line"/>
			<point x="117" y="803" type="line"/>
			<point x="52" y="742" type="line"/>
			<point x="50" y="732" type="line"/>
			<point x="239" y="561" type="line"/>
		</contour>
	</outline>
</glyph>
<glyph name="a" format="2">
	<advance width="542"/>
	<unicode hex="0061"/>
	<anchor x="288" y="510" name="top"/>
	<outline>
		<contour>
			<point x="423" y="-9" type="curve" smooth="yes"/>
			<point x="441" y="-9"/>
			<point x="473" y="-4"/>
			<point x="493" y="0" type="curve"/>
			<point x="497" y="65" type="line"/>
			<point x="396" y="85" type="line"/>
			<point x="445" y="37" type="line"/>
			<point x="445" y="341" type="line" smooth="yes"/>
			<point x="445" y="470"/>
			<point x="367" y="520"/>
			<point x="265" y="520" type="curve"/>
			<point x="204" y="520"/>
			<point x="147" y="507"/>
			<point x="90" y="492" type="curve"/>
			<point x="89" y="488" type="line"/>
			<point x="104" y="426" type="line"/>
			<point x="107" y="426" type="line"/>
			<point x="156" y="436"/>
			<point x="198" y="445"/>
			<point x="239" y="445" type="curve" smooth="yes"/>
			<point x="310" y="445"/>
			<point x="360" y="419"/>
			<point x="360" y="344" type="curve" smooth="yes"/>
			<point x="360" y="57" type="line" smooth="yes"/>
			<point x="360" y="12"/>
			<point x="373" y="-9"/>
		</contour>
		<contour>
			<point x="221" y="287" type="line" smooth="yes"/>
			<point x="120" y="287"/>
			<point x="55" y="235"/>
			<point x="55" y="143" type="curve" smooth="yes"/>
			<point x="55" y="53"/>
			<point x="120" y="-10"/>
			<point x="211" y="-10" type="curve"/>
			<point x="297" y="-10"/>
			<point x="354" y="41"/>
			<point x="371" y="106" type="curve"/>
			<point x="336" y="70" type="line"/>
			<point x="378" y="70" type="line"/>
			<point x="360" y="201" type="line"/>
			<point x="360" y="114"/>
			<point x="320" y="65"/>
			<point x="234" y="65" type="curve" smooth="yes"/>
			<point x="183" y="65"/>
			<point x="145" y="95"/>
			<point x="145" y="149" type="curve"/>
			<point x="145" y="196"/>
			<point x="165" y="228"/>
			<point x="240" y="228" type="curve" smooth="yes"/>
			<point x="373" y="228" type="line"/>
			<point x="373" y="287" type="line"/>
		</contour>
	</outline>
</glyph>
<glyph name="b" format="2">
  <advance width="562"/>
  <unicode hex="0062"/>
  <outline>
    <contour>
      <point x="96" y="732" type="line"/>
      <point x="96.0" y="732.0"/>
      <point x="106.0" y="591.2388059701492"/>
      <point x="106" y="389" type="qcurve" smooth="yes"/>
      <point x="106.0" y="186.76119402985077"/>
      <point x="96.0" y="10.0"/>
      <point x="96" y="10" type="qcurve"/>
      <point x="101" y="0" type="line"/>
      <point x="146" y="0" type="line"/>
      <point x="181" y="72" type="line"/>
      <point x="191" y="72" type="line"/>
      <point x="191" y="699" type="line" smooth="yes"/>
      <point x="191.0" y="746.0149253731344"/>
      <point x="167.1044776119403" y="780.0"/>
      <point x="138" y="780" type="qcurve" smooth="yes"/>
      <point x="111.88059701492537" y="780.0"/>
      <point x="62.91044776119403" y="769.4776119402985"/>
      <point x="45" y="765" type="qcurve"/>
      <point x="52" y="700" type="line"/>
      <point x="115" y="703" type="line"/>
    </contour>
    <contour>
      <point x="412" y="258" type="line" smooth="yes"/>
      <point x="412.0" y="149.7910447761194"/>
      <point x="356.5223880597015" y="75.0"/>
      <point x="311" y="75" type="qcurve"/>
      <point x="268.46268656716416" y="75.0"/>
      <point x="199.1044776119403" y="105.58208955223881"/>
      <point x="170" y="122" type="qcurve"/>
      <point x="158" y="74" type="line"/>
      <point x="186" y="74" type="line"/>
      <point x="212.86567164179104" y="32.95522388059702"/>
      <point x="278.7761194029851" y="-10.0"/>
      <point x="334" y="-10" type="qcurve"/>
      <point x="416.8358208955224" y="-10.0"/>
      <point x="507.0" y="135.61194029850748"/>
      <point x="507" y="258" type="qcurve" smooth="yes"/>
      <point x="507" y="283" type="line" smooth="yes"/>
      <point x="507.0" y="407.6268656716418"/>
      <point x="425.5820895522388" y="520.0"/>
      <point x="342" y="520" type="qcurve"/>
      <point x="287.5223880597015" y="520.0"/>
      <point x="217.6417910447761" y="473.32835820895525"/>
      <point x="196" y="439" type="qcurve"/>
      <point x="168" y="439" type="line"/>
      <point x="191" y="255" type="line"/>
      <point x="191.0" y="360.2238805970149"/>
      <point x="260.4925373134328" y="440.0"/>
      <point x="309" y="440" type="qcurve" smooth="yes"/>
      <point x="356.76119402985074" y="440.0"/>
      <point x="412.0" y="377.2686567164179"/>
      <point x="412" y="281" type="qcurve" smooth="yes"/>
    </contour>
  </outline>
</glyph>
<glyph name="c" format="2">
	<advance width="488"/>
	<unicode hex="0063"/>
	<anchor x="244" y="510" name="top"/>
	<anchor x="244" y="0" name="bottom"/>
	<outline>
		<contour>
			<point x="363" y="406" type="curve"/>
			<point x="370" y="406" type="line"/>
			<point x="426" y="463" type="line"/>
			<point x="426" y="469" type="line"/>
			<point x="386" y="496"/>
			<point x="349" y="520"/>
			<point x="267" y="520" type="curve" smooth="yes"/>
			<point x="124" y="520"/>
			<point x="55" y="430.1194"/>
			<point x="55" y="254" type="curve" smooth="yes"/>
			<point x="55" y="73.9005"/>
			<point x="124.65174" y="-10"/>
			<point x="255" y="-10" type="curve" smooth="yes"/>
			<point x="334.60199" y="-10"/>
			<point x="393.24378" y="13.14428"/>
			<point x="442" y="42" type="curve"/>
			<point x="443" y="45" type="line"/>
			<point x="419" y="96" type="line"/>
			<point x="416" y="97" type="line"/>
			<point x="371.22388" y="79.08955"/>
			<point x="332.68657" y="65"/>
			<point x="270" y="65" type="curve" smooth="yes"/>
			<point x="182.43781" y="65"/>
			<point x="145" y="121.68159"/>
			<point x="145" y="258" type="curve" smooth="yes"/>
			<point x="145" y="399.29353"/>
			<point x="188" y="445"/>
			<point x="262" y="445" type="curve" smooth="yes"/>
			<point x="309" y="445"/>
			<point x="347" y="426"/>
		</contour>
	</outline>
</glyph>
<glyph name="d" format="2">
  <advance width="552"/>
  <unicode hex="0064"/>
  <outline>
    <contour>
      <point x="360" y="723" type="line"/>
      <point x="365.97014925373134" y="658.8208955223881"/>
      <point x="370.0" y="466.29850746268653"/>
      <point x="370" y="276" type="qcurve"/>
      <point x="370.0" y="166.2985074626866"/>
      <point x="307.44776119402985" y="70.0"/>
      <point x="247" y="70" type="qcurve" smooth="yes"/>
      <point x="199.98507462686567" y="70.0"/>
      <point x="150.0" y="151.71641791044777"/>
      <point x="150" y="245" type="qcurve" smooth="yes"/>
      <point x="150" y="270" type="line" smooth="yes"/>
      <point x="150.0" y="361.7910447761194"/>
      <point x="204.49253731343285" y="440.0"/>
      <point x="253" y="440" type="qcurve" smooth="yes"/>
      <point x="288.82089552238807" y="440.0"/>
      <point x="359.1641791044776" y="412.14925373134326"/>
      <point x="392" y="392" type="qcurve"/>
      <point x="392" y="442" type="line"/>
      <point x="346" y="442" type="line"/>
      <point x="370" y="429" type="line"/>
      <point x="360.2985074626866" y="465.56716417910445"/>
      <point x="291.4776119402985" y="520.0"/>
      <point x="237" y="520" type="qcurve" smooth="yes"/>
      <point x="164.61194029850748" y="520.0"/>
      <point x="55.0" y="409.77611940298505"/>
      <point x="55" y="265" type="qcurve" smooth="yes"/>
      <point x="55" y="240" type="line" smooth="yes"/>
      <point x="55.0" y="112.38805970149255"/>
      <point x="146.64179104477614" y="-9.0"/>
      <point x="225" y="-9" type="qcurve" smooth="yes"/>
      <point x="295.14925373134326" y="-9.0"/>
      <point x="375.02985074626866" y="74.73134328358209"/>
      <point x="381" y="121" type="qcurve"/>
      <point x="344" y="72" type="line"/>
      <point x="402" y="72" type="line"/>
      <point x="369" y="93" type="line"/>
      <point x="369" y="57" type="line" smooth="yes"/>
      <point x="369.0" y="23.417910447761194"/>
      <point x="388.8805970149254" y="-9.0"/>
      <point x="415" y="-9" type="qcurve" smooth="yes"/>
      <point x="430.67164179104475" y="-9.0"/>
      <point x="485.8358208955224" y="-3.731343283582089"/>
      <point x="503" y="0" type="qcurve"/>
      <point x="507" y="65" type="line"/>
      <point x="414" y="84" type="line"/>
      <point x="455" y="37" type="line"/>
      <point x="455" y="322" type="line" smooth="yes"/>
      <point x="455.0" y="510.05970149253733"/>
      <point x="460.0" y="679.9402985074627"/>
      <point x="460" y="718" type="qcurve"/>
      <point x="460.0" y="749.3432835820895"/>
      <point x="434.5970149253731" y="780.0"/>
      <point x="404" y="780" type="qcurve" smooth="yes"/>
      <point x="377.13432835820896" y="780.0"/>
      <point x="315.35820895522386" y="766.9701492537314"/>
      <point x="287" y="761" type="qcurve"/>
      <point x="294" y="696" type="line"/>
      <point x="384" y="700" type="line"/>
    </contour>
  </outline>
</glyph>
<glyph name="e" format="2">
  <advance width="501"/>
  <unicode hex="0065"/>
  <outline>
    <contour>
      <point x="55" y="253" type="qcurve" smooth="yes"/>
      <point x="55.0" y="385.08955223880594"/>
      <point x="161.53731343283584" y="520.0"/>
      <point x="269" y="520" type="qcurve" smooth="yes"/>
      <point x="369.0" y="520.0"/>
      <point x="460.2238805970149" y="392.05970149253733"/>
      <point x="455" y="304" type="qcurve" smooth="yes"/>
      <point x="451" y="241" type="line"/>
      <point x="440" y="228" type="line"/>
      <point x="355.67164179104475" y="228.0"/>
      <point x="197.32835820895522" y="228.0"/>
      <point x="113" y="228" type="qcurve"/>
      <point x="108" y="299" type="line"/>
      <point x="375" y="299" type="line"/>
      <point x="365" y="288" type="line"/>
      <point x="365.0" y="379.04477611940297"/>
      <point x="310.74626865671644" y="445.0"/>
      <point x="260" y="445" type="qcurve" smooth="yes"/>
      <point x="204.02985074626866" y="445.0"/>
      <point x="145.0" y="359.7164179104477"/>
      <point x="145" y="253" type="qcurve" smooth="yes"/>
      <point x="145.0" y="146.28358208955225"/>
      <point x="208.3582089552239" y="65.0"/>
      <point x="280" y="65" type="qcurve"/>
      <point x="315.07462686567163" y="65.0"/>
      <point x="377.92537313432837" y="83.31343283582089"/>
      <point x="413" y="96" type="qcurve"/>
      <point x="420" y="95" type="line"/>
      <point x="440" y="51" type="line"/>
      <point x="439" y="44" type="line"/>
      <point x="400.1940298507463" y="21.611940298507463"/>
      <point x="317.4925373134328" y="-10.0"/>
      <point x="266" y="-10" type="qcurve" smooth="yes"/>
      <point x="160.7761194029851" y="-10.0"/>
      <point x="55.0" y="120.91044776119404"/>
    </contour>
  </outline>
</glyph>
<glyph name="f" format="2">
	<advance width="338"/>
	<unicode hex="0066"/>
<<<<<<< HEAD
	<guideline x="236" y="686" angle="90"/>
=======
	<guideline x="236" y="686" angle="90" identifier="kJy2339NW6"/>
>>>>>>> 63ab59a4907c3c208bd4e3ce4e29d61fad11b722
	<outline>
		<contour>
			<point x="117" y="0" type="line"/>
			<point x="204" y="0" type="line"/>
			<point x="214" y="10" type="line"/>
			<point x="209" y="70"/>
<<<<<<< HEAD
			<point x="204" y="135"/>
			<point x="204" y="265" type="curve" smooth="yes"/>
			<point x="204" y="594" type="line" smooth="yes"/>
			<point x="204" y="669"/>
			<point x="220" y="705"/>
			<point x="279" y="705" type="curve" smooth="yes"/>
			<point x="300" y="705"/>
			<point x="327.17931" y="701.75942"/>
=======
			<point x="204" y="136"/>
			<point x="204" y="265" type="curve" smooth="yes"/>
			<point x="204" y="594" type="line" smooth="yes"/>
			<point x="204" y="668.62687"/>
			<point x="220.29353" y="705"/>
			<point x="279" y="705" type="curve" smooth="yes"/>
			<point x="299.89552" y="705"/>
			<point x="327.3227" y="701.72082"/>
>>>>>>> 63ab59a4907c3c208bd4e3ce4e29d61fad11b722
			<point x="356" y="694" type="curve"/>
			<point x="361" y="697" type="line"/>
			<point x="376" y="757" type="line"/>
			<point x="374" y="761" type="line"/>
<<<<<<< HEAD
			<point x="354.45933" y="768.19919"/>
			<point x="323.41935" y="780"/>
			<point x="278" y="780" type="curve" smooth="yes"/>
			<point x="162" y="780"/>
			<point x="119" y="703"/>
			<point x="119" y="612" type="curve" smooth="yes"/>
			<point x="119" y="265" type="line" smooth="yes"/>
			<point x="119" y="133"/>
			<point x="113" y="67"/>
=======
			<point x="354.55655" y="768.16337"/>
			<point x="323.19338" y="780"/>
			<point x="278" y="780" type="curve" smooth="yes"/>
			<point x="162.57711" y="780"/>
			<point x="119" y="702.54726"/>
			<point x="119" y="612" type="curve" smooth="yes"/>
			<point x="119" y="265" type="line" smooth="yes"/>
			<point x="119" y="133.65672"/>
			<point x="112.9801" y="66.71642"/>
>>>>>>> 63ab59a4907c3c208bd4e3ce4e29d61fad11b722
			<point x="109" y="10" type="curve"/>
		</contour>
		<contour>
			<point x="47" y="445" type="line"/>
<<<<<<< HEAD
			<point x="97" y="446"/>
			<point x="137" y="447"/>
			<point x="185" y="447" type="curve"/>
			<point x="219.44275" y="447"/>
			<point x="265.72651" y="446.07631"/>
=======
			<point x="96.75124" y="445.99502"/>
			<point x="137.23881" y="447"/>
			<point x="185" y="447" type="curve" smooth="yes"/>
			<point x="219.27139" y="447"/>
			<point x="266.02638" y="446.07096"/>
>>>>>>> 63ab59a4907c3c208bd4e3ce4e29d61fad11b722
			<point x="326" y="445" type="curve"/>
			<point x="333" y="452" type="line"/>
			<point x="333" y="505" type="line"/>
			<point x="326" y="510" type="line"/>
			<point x="47" y="510" type="line"/>
			<point x="40" y="503" type="line"/>
			<point x="40" y="452" type="line"/>
		</contour>
	</outline>
</glyph>
<glyph name="g" format="2">
  <advance width="501"/>
  <unicode hex="0067"/>
  <outline>
    <contour>
      <point x="148" y="36" type="line"/>
      <point x="94.86773" y="22.96756"/>
      <point x="30" y="-1.06306"/>
      <point x="30" y="-85" type="curve" smooth="yes"/>
      <point x="30" y="-172"/>
      <point x="102" y="-220"/>
      <point x="253" y="-220" type="curve" smooth="yes"/>
      <point x="393" y="-220"/>
      <point x="476" y="-166"/>
      <point x="476" y="-68" type="curve"/>
      <point x="476" y="92.15152"/>
      <point x="168" y="44.20588"/>
      <point x="168" y="107" type="curve"/>
      <point x="168" y="124"/>
      <point x="178" y="132"/>
      <point x="188" y="146" type="curve"/>
      <point x="142" y="163" type="line"/>
      <point x="114" y="150"/>
      <point x="78" y="127"/>
      <point x="78" y="91" type="curve"/>
      <point x="78" y="-52.42675"/>
      <point x="386" y="21.72368"/>
      <point x="386" y="-71" type="curve"/>
      <point x="386" y="-119"/>
      <point x="361" y="-155"/>
      <point x="263" y="-155" type="curve" smooth="yes"/>
      <point x="165" y="-155"/>
      <point x="120" y="-133"/>
      <point x="120" y="-76" type="curve"/>
      <point x="120" y="-28.75"/>
      <point x="150" y="14"/>
      <point x="218" y="14" type="curve"/>
    </contour>
    <contour>
      <point x="246" y="128" type="curve" smooth="yes"/>
      <point x="363" y="128"/>
      <point x="442" y="186.52941"/>
      <point x="442" y="327" type="curve" smooth="yes"/>
      <point x="442" y="461.51515"/>
      <point x="362.98429" y="520"/>
      <point x="246" y="520" type="curve" smooth="yes"/>
      <point x="130.07254" y="520"/>
      <point x="48" y="461.51515"/>
      <point x="48" y="327" type="curve" smooth="yes"/>
      <point x="48" y="194.33333"/>
      <point x="129" y="128"/>
    </contour>
    <contour>
      <point x="246" y="203" type="curve" smooth="yes"/>
      <point x="163" y="203"/>
      <point x="138" y="236.67424"/>
      <point x="138" y="330" type="curve" smooth="yes"/>
      <point x="138" y="413.375"/>
      <point x="168.40777" y="445"/>
      <point x="246" y="445" type="curve" smooth="yes"/>
      <point x="323.66337" y="445"/>
      <point x="352" y="413.375"/>
      <point x="352" y="330" type="curve" smooth="yes"/>
      <point x="352" y="236.67424"/>
      <point x="339" y="203"/>
    </contour>
    <contour>
      <point x="471" y="538" type="line"/>
      <point x="454" y="635" type="line"/>
      <point x="323" y="635"/>
      <point x="297" y="597"/>
      <point x="316" y="504" type="curve"/>
      <point x="355" y="493" type="line"/>
      <point x="355" y="505" type="line"/>
    </contour>
  </outline>
</glyph>
<glyph name="h" format="2">
  <advance width="596"/>
  <unicode hex="0068"/>
  <outline>
    <contour>
      <point x="189" y="251" type="qcurve" smooth="yes"/>
      <point x="189.0" y="342.7910447761194"/>
      <point x="248.2985074626866" y="440.0"/>
      <point x="308" y="440" type="qcurve"/>
      <point x="369.19402985074623" y="440.0"/>
      <point x="414.0" y="363.8059701492537"/>
      <point x="414" y="275" type="qcurve"/>
      <point x="414.0" y="216.044776119403"/>
      <point x="410.0" y="106.04477611940298"/>
      <point x="410" y="65" type="qcurve" smooth="yes"/>
      <point x="410.0" y="26.194029850746276"/>
      <point x="442.11940298507466" y="-10.0"/>
      <point x="466" y="-10" type="qcurve"/>
      <point x="483.1641791044776" y="-10.0"/>
      <point x="526.8507462686567" y="-3.9850746268656714"/>
      <point x="547" y="-1" type="qcurve"/>
      <point x="551" y="64" type="line"/>
      <point x="457" y="83" type="line"/>
      <point x="499" y="32" type="line"/>
      <point x="499" y="365" type="line" smooth="yes"/>
      <point x="499.0" y="444.1044776119403"/>
      <point x="415.64179104477614" y="520.0"/>
      <point x="344" y="520" type="qcurve"/>
      <point x="267.8805970149254" y="520.0"/>
      <point x="185.70149253731344" y="434.55223880597015"/>
      <point x="176" y="395" type="qcurve"/>
      <point x="213" y="439" type="line"/>
      <point x="179" y="439" type="line"/>
      <point x="189" y="413" type="line"/>
      <point x="189" y="718" type="line" smooth="yes"/>
      <point x="189.0" y="748.5970149253732"/>
      <point x="164.59701492537312" y="780.0"/>
      <point x="134" y="780" type="qcurve"/>
      <point x="114.59701492537314" y="780.0"/>
      <point x="66.64179104477611" y="770.223880597015"/>
      <point x="45" y="765" type="qcurve"/>
      <point x="52" y="700" type="line"/>
      <point x="113" y="703" type="line"/>
      <point x="94" y="732" type="line"/>
      <point x="94.0" y="732.0"/>
      <point x="104.0" y="542.1492537313433"/>
      <point x="104" y="372" type="qcurve"/>
      <point x="104.0" y="157.07462686567166"/>
      <point x="94.0" y="10.0"/>
      <point x="94" y="10" type="qcurve"/>
      <point x="99" y="0" type="line"/>
      <point x="194" y="0" type="line"/>
      <point x="199" y="10" type="line"/>
      <point x="199.0" y="10.0"/>
      <point x="189.0" y="124.88059701492539"/>
    </contour>
  </outline>
</glyph>
<glyph name="i" format="2">
  <advance width="290"/>
  <unicode hex="0069"/>
  <outline>
    <contour>
      <point x="69" y="696" type="qcurve"/>
      <point x="69.0" y="728.0895522388059"/>
      <point x="110.65671641791045" y="766.0"/>
      <point x="142" y="766" type="qcurve" smooth="yes"/>
      <point x="174.08955223880596" y="766.0"/>
      <point x="214.0" y="727.3432835820895"/>
      <point x="214" y="696" type="qcurve" smooth="yes"/>
      <point x="214.0" y="664.6567164179105"/>
      <point x="173.34328358208955" y="621.0"/>
      <point x="142" y="621" type="qcurve" smooth="yes"/>
      <point x="107.67164179104478" y="621.0"/>
      <point x="69.0" y="664.6567164179105"/>
    </contour>
    <contour>
      <point x="110" y="472" type="line"/>
      <point x="110.0" y="472.0"/>
      <point x="120.0" y="375.74626865671644"/>
      <point x="120" y="275" type="qcurve" smooth="yes"/>
      <point x="120.0" y="127.23880597014926"/>
      <point x="110.0" y="10.0"/>
      <point x="110" y="10" type="qcurve"/>
      <point x="115" y="0" type="line"/>
      <point x="210" y="0" type="line"/>
      <point x="215" y="10" type="line"/>
      <point x="215.0" y="10.0"/>
      <point x="205.0" y="127.23880597014926"/>
      <point x="205" y="275" type="qcurve" smooth="yes"/>
      <point x="205" y="458" type="line" smooth="yes"/>
      <point x="205.0" y="488.5970149253731"/>
      <point x="180.34328358208955" y="520.0"/>
      <point x="149" y="520" type="qcurve"/>
      <point x="127.35820895522389" y="520.0"/>
      <point x="64.40298507462686" y="508.4776119402985"/>
      <point x="45" y="504" type="qcurve"/>
      <point x="52" y="438" type="line"/>
      <point x="129" y="443" type="line"/>
    </contour>
  </outline>
</glyph>
<glyph name="j" format="2">
	<advance width="300"/>
	<unicode hex="006A"/>
	<outline>
		<contour>
			<point x="185" y="621" type="curve" smooth="yes"/>
			<point x="227" y="621"/>
			<point x="257" y="654"/>
			<point x="257" y="696" type="curve" smooth="yes"/>
			<point x="257" y="738"/>
			<point x="228" y="766"/>
			<point x="185" y="766" type="curve" smooth="yes"/>
			<point x="143" y="766"/>
			<point x="112" y="739"/>
			<point x="112" y="696" type="curve"/>
			<point x="112" y="654"/>
			<point x="139" y="621"/>
		</contour>
		<contour>
			<point x="166" y="470" type="line"/>
			<point x="168" y="430"/>
			<point x="172" y="310"/>
			<point x="172" y="245" type="curve" smooth="yes"/>
			<point x="172" y="-41" type="line" smooth="yes"/>
			<point x="172" y="-116"/>
			<point x="156" y="-152"/>
			<point x="97" y="-152" type="curve" smooth="yes"/>
			<point x="76" y="-152"/>
			<point x="48" y="-149"/>
			<point x="20" y="-141" type="curve"/>
			<point x="15" y="-144" type="line"/>
			<point x="0" y="-204" type="line"/>
			<point x="2" y="-208" type="line"/>
			<point x="21" y="-215"/>
			<point x="52" y="-227"/>
			<point x="98" y="-227" type="curve" smooth="yes"/>
			<point x="214" y="-227"/>
			<point x="257" y="-150"/>
			<point x="257" y="-59" type="curve" smooth="yes"/>
			<point x="257" y="245" type="line" smooth="yes"/>
			<point x="257" y="316"/>
			<point x="260" y="386"/>
			<point x="261" y="457" type="curve"/>
			<point x="261" y="498"/>
			<point x="247" y="519"/>
			<point x="205" y="519" type="curve"/>
			<point x="176" y="519"/>
			<point x="127" y="509"/>
			<point x="101" y="503" type="curve"/>
			<point x="108" y="437" type="line"/>
			<point x="185" y="442" type="line"/>
		</contour>
	</outline>
</glyph>
<glyph name="k" format="2">
	<advance width="541"/>
	<unicode hex="006B"/>
	<outline>
		<contour>
<<<<<<< HEAD
<<<<<<< HEAD
			<point x="459" y="-9" type="curve" smooth="yes"/>
			<point x="484" y="-9"/>
			<point x="513" y="5"/>
			<point x="546" y="37" type="curve"/>
			<point x="526" y="89" type="line"/>
			<point x="439" y="79" type="line"/>
			<point x="479" y="52" type="line"/>
			<point x="337" y="303" type="line"/>
			<point x="337" y="269" type="line"/>
			<point x="399" y="345"/>
			<point x="449" y="422"/>
			<point x="510" y="499" type="curve"/>
			<point x="506" y="510" type="line"/>
			<point x="415" y="510" type="line"/>
			<point x="406" y="501" type="line"/>
			<point x="359" y="431"/>
			<point x="309" y="360"/>
			<point x="257" y="301" type="curve"/>
			<point x="247" y="273" type="line"/>
			<point x="326" y="147"/>
			<point x="374" y="-9"/>
>>>>>>> 63ab59a4907c3c208bd4e3ce4e29d61fad11b722
		</contour>
		<contour>
			<point x="134" y="233" type="line"/>
			<point x="324" y="233" type="line"/>
			<point x="324" y="316" type="line"/>
			<point x="134" y="316" type="line"/>
		</contour>
<<<<<<< HEAD
=======
		<contour>
=======
>>>>>>> 10b1224857827ad043e12caf7ec8cb7acfc6b271
=======
>>>>>>> 8a6a77c400bd59e0e3f6293ab732900abd290bcd
			<point x="109" y="0" type="line"/>
			<point x="208" y="0" type="line"/>
			<point x="213" y="10" type="line"/>
			<point x="207" y="93"/>
			<point x="203" y="252"/>
			<point x="203" y="352" type="curve" smooth="yes"/>
			<point x="203" y="459"/>
			<point x="208" y="696.607"/>
			<point x="208" y="718" type="curve" smooth="yes"/>
			<point x="208" y="756.806"/>
			<point x="191.776" y="780"/>
			<point x="147" y="780" type="curve" smooth="yes"/>
			<point x="115.159" y="780"/>
			<point x="75.846" y="769.96"/>
			<point x="45" y="762" type="curve"/>
			<point x="53" y="699" type="line"/>
			<point x="124" y="703" type="line"/>
			<point x="103" y="732" type="line"/>
			<point x="109" y="646"/>
			<point x="114" y="487"/>
			<point x="114" y="356" type="curve" smooth="yes"/>
			<point x="114" y="244"/>
			<point x="110" y="93"/>
			<point x="104" y="10" type="curve"/>
		</contour>
<<<<<<< HEAD
<<<<<<< HEAD
>>>>>>> 63ab59a4907c3c208bd4e3ce4e29d61fad11b722
=======
=======
>>>>>>> 8a6a77c400bd59e0e3f6293ab732900abd290bcd
		<contour>
			<point x="190" y="333" type="curve"/>
			<point x="197" y="231" type="line"/>
			<point x="289" y="314" type="line"/>
			<point x="352" y="381"/>
			<point x="405" y="440"/>
			<point x="458" y="499" type="curve"/>
			<point x="454" y="510" type="line"/>
			<point x="358" y="510" type="line"/>
			<point x="358" y="508"/>
			<point x="273" y="415"/>
			<point x="225" y="364" type="curve"/>
			<point x="217" y="356"/>
			<point x="198" y="333"/>
		</contour>
		<contour>
			<point x="329" y="260" type="line"/>
			<point x="292" y="333" type="line"/>
			<point x="216" y="278" type="line"/>
			<point x="268" y="173" type="line"/>
			<point x="318" y="75"/>
			<point x="363" y="-9"/>
			<point x="427" y="-9" type="curve" smooth="yes"/>
			<point x="452" y="-9"/>
			<point x="481" y="5"/>
			<point x="514" y="37" type="curve"/>
			<point x="494" y="89" type="line"/>
			<point x="407" y="79" type="line"/>
			<point x="447" y="52" type="line"/>
		</contour>
<<<<<<< HEAD
>>>>>>> 10b1224857827ad043e12caf7ec8cb7acfc6b271
=======
>>>>>>> 8a6a77c400bd59e0e3f6293ab732900abd290bcd
	</outline>
</glyph>
<glyph name="l" format="2">
  <advance width="318"/>
  <unicode hex="006C"/>
  <outline>
    <contour>
      <point x="109" y="61" type="qcurve" smooth="yes"/>
      <point x="109.0" y="27.417910447761194"/>
      <point x="140.13432835820896" y="-10.0"/>
      <point x="167" y="-10" type="qcurve"/>
      <point x="194.61194029850745" y="-10.0"/>
      <point x="244.37313432835822" y="-3.731343283582089"/>
      <point x="269" y="0" type="qcurve"/>
      <point x="273" y="64" type="line"/>
      <point x="195" y="79" type="line"/>
      <point x="213" y="52" type="line"/>
      <point x="210.76119402985074" y="110.2089552238806"/>
      <point x="203.0" y="219.07462686567166"/>
      <point x="203" y="384" type="qcurve" smooth="yes"/>
      <point x="203.0" y="548.9253731343283"/>
      <point x="208.0" y="685.9104477611941"/>
      <point x="208" y="718" type="qcurve"/>
      <point x="208.0" y="747.1044776119403"/>
      <point x="180.5820895522388" y="780.0"/>
      <point x="147" y="780" type="qcurve"/>
      <point x="123.11940298507463" y="780.0"/>
      <point x="68.13432835820896" y="767.9701492537314"/>
      <point x="45" y="762" type="qcurve"/>
      <point x="53" y="699" type="line"/>
      <point x="128" y="703" type="line"/>
      <point x="107" y="732" type="line"/>
      <point x="107.0" y="732.0"/>
      <point x="118.0" y="548.1791044776119"/>
      <point x="118" y="384" type="qcurve" smooth="yes"/>
      <point x="118.0" y="219.82089552238807"/>
      <point x="109.0" y="115.4776119402985"/>
    </contour>
  </outline>
</glyph>
<glyph name="m" format="2">
	<advance width="867"/>
	<unicode hex="006D"/>
	<guideline x="414" y="251" angle="0"/>
	<outline>
		<contour>
			<point x="479" y="390" type="line"/>
			<point x="479" y="455"/>
			<point x="436" y="520"/>
			<point x="332" y="520" type="curve"/>
			<point x="256" y="520"/>
			<point x="196" y="468"/>
			<point x="173" y="395" type="curve"/>
			<point x="209" y="440" type="line"/>
			<point x="173" y="440" type="line"/>
			<point x="189" y="413" type="line"/>
			<point x="189" y="458" type="line" smooth="yes"/>
			<point x="189" y="497"/>
			<point x="177" y="520"/>
			<point x="143" y="520" type="curve"/>
			<point x="114" y="520"/>
			<point x="78" y="513"/>
			<point x="45" y="505" type="curve"/>
			<point x="52" y="440" type="line"/>
			<point x="113" y="443" type="line"/>
			<point x="94" y="472" type="line"/>
			<point x="94" y="472"/>
			<point x="104" y="415"/>
			<point x="104" y="275" type="curve" smooth="yes"/>
			<point x="104" y="77"/>
			<point x="94" y="10"/>
			<point x="94" y="10" type="curve"/>
			<point x="99" y="0" type="line"/>
			<point x="194" y="0" type="line"/>
			<point x="199" y="10" type="line"/>
			<point x="199" y="10"/>
			<point x="189" y="89"/>
			<point x="189" y="275" type="curve" smooth="yes"/>
			<point x="189" y="394"/>
			<point x="223" y="440"/>
			<point x="297" y="440" type="curve"/>
			<point x="370" y="440"/>
			<point x="394" y="395"/>
			<point x="394" y="275" type="curve"/>
			<point x="394" y="146"/>
			<point x="389" y="37"/>
			<point x="384" y="6" type="curve"/>
			<point x="388" y="0" type="line"/>
			<point x="484" y="0" type="line"/>
			<point x="489" y="6" type="line"/>
			<point x="482" y="88"/>
			<point x="479" y="129"/>
			<point x="479" y="275" type="curve" smooth="yes"/>
			<point x="479" y="391"/>
			<point x="509" y="440"/>
			<point x="592" y="440" type="curve" smooth="yes"/>
			<point x="664" y="440"/>
			<point x="684" y="398"/>
			<point x="684" y="275" type="curve"/>
			<point x="684" y="196"/>
			<point x="680" y="120"/>
			<point x="680" y="65" type="curve" smooth="yes"/>
			<point x="680" y="13"/>
			<point x="709" y="-10"/>
			<point x="747" y="-10" type="curve"/>
			<point x="767" y="-10"/>
			<point x="799" y="-4"/>
			<point x="818" y="0" type="curve"/>
			<point x="822" y="64" type="line"/>
			<point x="728" y="83" type="line"/>
			<point x="769" y="33" type="line"/>
			<point x="769" y="365" type="line" smooth="yes"/>
			<point x="769" y="460"/>
			<point x="722" y="520"/>
			<point x="623" y="520" type="curve"/>
			<point x="534" y="520"/>
			<point x="475" y="462"/>
			<point x="463" y="395" type="curve"/>
			<point x="500" y="439" type="line"/>
			<point x="463" y="439" type="line"/>
		</contour>
	</outline>
</glyph>
<glyph name="n" format="2">
  <advance width="596"/>
  <unicode hex="006E"/>
  <anchor x="-228" y="510" name="top"/>
  <outline>
    <contour>
      <point x="189" y="251" type="qcurve" smooth="yes"/>
      <point x="189.0" y="342.7910447761194"/>
      <point x="242.32835820895522" y="440.0"/>
      <point x="308" y="440" type="qcurve"/>
      <point x="369.19402985074623" y="440.0"/>
      <point x="414.0" y="363.8059701492537"/>
      <point x="414" y="275" type="qcurve"/>
      <point x="414.0" y="216.044776119403"/>
      <point x="410.0" y="106.04477611940298"/>
      <point x="410" y="65" type="qcurve" smooth="yes"/>
      <point x="410.0" y="26.194029850746276"/>
      <point x="442.11940298507466" y="-10.0"/>
      <point x="466" y="-10" type="qcurve"/>
      <point x="483.1641791044776" y="-10.0"/>
      <point x="526.8507462686567" y="-3.9850746268656714"/>
      <point x="547" y="-1" type="qcurve"/>
      <point x="551" y="64" type="line"/>
      <point x="457" y="83" type="line"/>
      <point x="499" y="32" type="line"/>
      <point x="499" y="365" type="line" smooth="yes"/>
      <point x="499.0" y="444.1044776119403"/>
      <point x="415.64179104477614" y="520.0"/>
      <point x="344" y="520" type="qcurve"/>
      <point x="267.8805970149254" y="520.0"/>
      <point x="185.70149253731344" y="434.55223880597015"/>
      <point x="176" y="395" type="qcurve"/>
      <point x="213" y="439" type="line"/>
      <point x="179" y="439" type="line"/>
      <point x="189" y="413" type="line"/>
      <point x="189" y="458" type="line" smooth="yes"/>
      <point x="189.0" y="488.5970149253731"/>
      <point x="164.59701492537312" y="520.0"/>
      <point x="134" y="520" type="qcurve"/>
      <point x="114.59701492537314" y="520.0"/>
      <point x="66.64179104477611" y="510.2238805970149"/>
      <point x="45" y="505" type="qcurve"/>
      <point x="52" y="440" type="line"/>
      <point x="113" y="443" type="line"/>
      <point x="94" y="472" type="line"/>
      <point x="94.0" y="472.0"/>
      <point x="104.0" y="379.4776119402985"/>
      <point x="104" y="275" type="qcurve" smooth="yes"/>
      <point x="104.0" y="132.46268656716418"/>
      <point x="94.0" y="10.0"/>
      <point x="94" y="10" type="qcurve"/>
      <point x="99" y="0" type="line"/>
      <point x="194" y="0" type="line"/>
      <point x="199" y="10" type="line"/>
      <point x="199.0" y="10.0"/>
      <point x="189.0" y="124.88059701492539"/>
    </contour>
  </outline>
</glyph>
<glyph name="o" format="2">
  <advance width="523"/>
  <unicode hex="006F"/>
  <guideline x="-23" y="461" angle="0" identifier="7lZhvwE96q"/>
  <anchor x="261" y="520" name="top"/>
  <outline>
    <contour>
      <point x="261" y="65" type="qcurve" smooth="yes"/>
      <point x="320.7014925373134" y="65.0"/>
      <point x="378.0" y="158.73134328358208"/>
      <point x="378" y="255" type="qcurve" smooth="yes"/>
      <point x="378.0" y="351.2686567164179"/>
      <point x="320.7014925373134" y="445.0"/>
      <point x="261" y="445" type="qcurve" smooth="yes"/>
      <point x="202.044776119403" y="445.0"/>
      <point x="145.0" y="351.2686567164179"/>
      <point x="145" y="255" type="qcurve" smooth="yes"/>
      <point x="145.0" y="158.73134328358208"/>
      <point x="202.044776119403" y="65.0"/>
    </contour>
    <contour>
      <point x="261" y="-10" type="qcurve" smooth="yes"/>
      <point x="159.50746268656718" y="-10.0"/>
      <point x="55.0" y="124.40298507462688"/>
      <point x="55" y="255" type="qcurve" smooth="yes"/>
      <point x="55.0" y="385.5970149253731"/>
      <point x="159.50746268656718" y="520.0"/>
      <point x="261" y="520" type="qcurve" smooth="yes"/>
      <point x="363.23880597014926" y="520.0"/>
      <point x="468.0" y="385.5970149253731"/>
      <point x="468" y="255" type="qcurve" smooth="yes"/>
      <point x="468.0" y="124.40298507462688"/>
      <point x="363.23880597014926" y="-10.0"/>
    </contour>
  </outline>
</glyph>
<glyph name="p" format="2">
  <advance width="562"/>
  <unicode hex="0070"/>
  <outline>
    <contour>
      <point x="193" y="347" type="line"/>
      <point x="193" y="448" type="line" smooth="yes"/>
      <point x="193.0" y="486.05970149253733"/>
      <point x="173.08955223880596" y="520.0"/>
      <point x="141" y="520" type="qcurve"/>
      <point x="118.5808432835821" y="520.0"/>
      <point x="62.62686567164179" y="509.97014925373134"/>
      <point x="38" y="504" type="qcurve"/>
      <point x="45" y="439" type="line"/>
      <point x="113" y="442" type="line"/>
      <point x="94" y="472" type="line"/>
      <point x="94.0" y="472.0"/>
      <point x="104.76119402985074" y="322.2089552238806"/>
      <point x="107" y="164" type="qcurve" smooth="yes"/>
      <point x="109.23880597014926" y="5.791044776119406"/>
      <point x="99.98507462686567" y="-159.2537313432836"/>
      <point x="97" y="-210" type="qcurve"/>
      <point x="102" y="-220" type="line"/>
      <point x="204" y="-220" type="line"/>
      <point x="209" y="-210" type="line"/>
      <point x="202.28358208955223" y="-127.16417910447763"/>
      <point x="192.0" y="17.13432835820896"/>
      <point x="192" y="244" type="qcurve" smooth="yes"/>
      <point x="192.0" y="352.95522388059703"/>
      <point x="256.02985074626866" y="440.0"/>
      <point x="312" y="440" type="qcurve" smooth="yes"/>
      <point x="362.0" y="440.0"/>
      <point x="412.0" y="363.56716417910445"/>
      <point x="412" y="277" type="qcurve" smooth="yes"/>
      <point x="412" y="252" type="line" smooth="yes"/>
      <point x="412.0" y="162.44776119402985"/>
      <point x="358.02985074626866" y="70.0"/>
      <point x="314" y="70" type="qcurve"/>
      <point x="275.94029850746267" y="70.0"/>
      <point x="212.0597014925373" y="93.35820895522389"/>
      <point x="174" y="115" type="qcurve"/>
      <point x="174" y="69" type="line"/>
      <point x="214" y="69" type="line"/>
      <point x="184" y="105" type="line"/>
      <point x="198.17910447761193" y="44.552238805970156"/>
      <point x="271.2835820895522" y="-10.0"/>
      <point x="328" y="-10" type="qcurve" smooth="yes"/>
      <point x="410.8358208955224" y="-10.0"/>
      <point x="507.0" y="129.13432835820896"/>
      <point x="507" y="256" type="qcurve" smooth="yes"/>
      <point x="507" y="281" type="line" smooth="yes"/>
      <point x="507.0" y="401.8955223880597"/>
      <point x="421.86567164179104" y="520.0"/>
      <point x="345" y="520" type="qcurve" smooth="yes"/>
      <point x="276.34328358208955" y="520.0"/>
      <point x="194.43283582089552" y="451.95522388059703"/>
      <point x="181" y="393" type="qcurve"/>
      <point x="211" y="439" type="line"/>
      <point x="164" y="439" type="line"/>
    </contour>
  </outline>
</glyph>
<glyph name="q" format="2">
  <advance width="548"/>
  <unicode hex="0071"/>
  <outline>
    <contour>
      <point x="371" y="131" type="line"/>
      <point x="371" y="-15" type="line" smooth="yes"/>
      <point x="371.0" y="-52.31343283582089"/>
      <point x="365.0" y="-139.5820895522388"/>
      <point x="365" y="-156" type="qcurve" smooth="yes"/>
      <point x="365.0" y="-194.8059701492537"/>
      <point x="394.4029850746269" y="-230.0"/>
      <point x="425" y="-230" type="qcurve" smooth="yes"/>
      <point x="446.64179104477614" y="-230.0"/>
      <point x="492.34328358208955" y="-221.47761194029852"/>
      <point x="511" y="-217" type="qcurve"/>
      <point x="513" y="-152" type="line"/>
      <point x="419" y="-143" type="line"/>
      <point x="463" y="-176" type="line"/>
      <point x="460.76119402985074" y="-133.46268656716418"/>
      <point x="456.0" y="-8.880597014925371"/>
      <point x="456" y="165" type="qcurve" smooth="yes"/>
      <point x="456.0" y="338.88059701492534"/>
      <point x="462.2686567164179" y="467.91044776119406"/>
      <point x="466" y="500" type="qcurve"/>
      <point x="461" y="510" type="line"/>
      <point x="376" y="510" type="line"/>
      <point x="371" y="500" type="line"/>
      <point x="371" y="253" type="line" smooth="yes"/>
      <point x="371.0" y="168.67164179104478"/>
      <point x="311.97014925373134" y="70.0"/>
      <point x="256" y="70" type="qcurve" smooth="yes"/>
      <point x="197.7910447761194" y="70.0"/>
      <point x="150.0" y="152.22388059701495"/>
      <point x="150" y="247" type="qcurve" smooth="yes"/>
      <point x="150" y="272" type="line" smooth="yes"/>
      <point x="150.0" y="358.56716417910445"/>
      <point x="199.77611940298507" y="435.0"/>
      <point x="255" y="435" type="qcurve" smooth="yes"/>
      <point x="289.32835820895525" y="435.0"/>
      <point x="360.1641791044776" y="406.65671641791045"/>
      <point x="393" y="388" type="qcurve"/>
      <point x="393" y="442" type="line"/>
      <point x="357" y="442" type="line"/>
      <point x="371" y="432" type="line"/>
      <point x="360.55223880597015" y="464.08955223880594"/>
      <point x="290.23880597014926" y="520.0"/>
      <point x="238" y="520" type="qcurve" smooth="yes"/>
      <point x="155.91044776119404" y="520.0"/>
      <point x="55.0" y="401.08955223880594"/>
      <point x="55" y="269" type="qcurve" smooth="yes"/>
      <point x="55" y="244" type="line" smooth="yes"/>
      <point x="55.0" y="111.16417910447763"/>
      <point x="132.2089552238806" y="-10.0"/>
      <point x="224" y="-10" type="qcurve"/>
      <point x="292.65671641791045" y="-10.0"/>
      <point x="370.55223880597015" y="74.23880597014926"/>
      <point x="381" y="122" type="qcurve"/>
      <point x="352" y="82" type="line"/>
      <point x="403" y="82" type="line"/>
    </contour>
  </outline>
</glyph>
<glyph name="r" format="2">
	<advance width="414"/>
	<unicode hex="0072"/>
	<anchor x="207" y="510" name="top"/>
	<anchor x="176" y="3" name="bottom"/>
	<outline>
		<contour>
			<point x="99" y="0" type="line"/>
			<point x="194" y="0" type="line"/>
			<point x="199" y="10" type="line"/>
			<point x="192" y="74"/>
			<point x="189" y="213"/>
			<point x="189" y="286" type="curve" smooth="yes"/>
			<point x="189" y="326"/>
			<point x="189" y="349.41791"/>
			<point x="189" y="392.85075" type="curve" smooth="yes"/>
			<point x="189" y="425"/>
			<point x="189" y="449"/>
			<point x="189" y="458" type="curve"/>
			<point x="189" y="496.80597"/>
			<point x="175.81095" y="520"/>
			<point x="138" y="520" type="curve" smooth="yes"/>
			<point x="110.1393" y="520"/>
			<point x="76.8408" y="512.9602"/>
			<point x="45" y="505" type="curve"/>
			<point x="52" y="440" type="line"/>
			<point x="113" y="443" type="line"/>
			<point x="94" y="472" type="line"/>
			<point x="101" y="423"/>
			<point x="104" y="334"/>
			<point x="104" y="275" type="curve" smooth="yes"/>
			<point x="104" y="202"/>
			<point x="102" y="79"/>
			<point x="94" y="10" type="curve"/>
		</contour>
		<contour>
			<point x="189" y="278" type="line"/>
			<point x="184" y="401"/>
			<point x="273" y="458"/>
			<point x="392" y="426" type="curve"/>
			<point x="401" y="432" type="line"/>
			<point x="411" y="500" type="line"/>
			<point x="405" y="509" type="line"/>
			<point x="393" y="514"/>
			<point x="363.8408" y="520"/>
			<point x="332" y="520" type="curve" smooth="yes"/>
			<point x="248" y="520"/>
			<point x="210" y="481"/>
			<point x="182" y="367" type="curve"/>
			<point x="239" y="429" type="line"/>
			<point x="184" y="429" type="line"/>
<<<<<<< HEAD
<<<<<<< HEAD
			<point x="184" y="262" type="line"/>
>>>>>>> 63ab59a4907c3c208bd4e3ce4e29d61fad11b722
=======
			<point x="184" y="280" type="line"/>
>>>>>>> 10b1224857827ad043e12caf7ec8cb7acfc6b271
=======
			<point x="184" y="280" type="line"/>
>>>>>>> 8a6a77c400bd59e0e3f6293ab732900abd290bcd
		</contour>
	</outline>
</glyph>
<glyph name="s" format="2">
<<<<<<< HEAD
	<advance width="483"/>
	<unicode hex="0073"/>
	<outline>
		<contour>
			<point x="145" y="381" type="curve"/>
			<point x="144" y="421"/>
			<point x="188" y="445"/>
			<point x="236" y="445" type="curve"/>
			<point x="316" y="445"/>
			<point x="339" y="410"/>
			<point x="353" y="334" type="curve"/>
			<point x="355" y="332" type="line"/>
			<point x="427" y="337" type="line"/>
			<point x="429" y="339" type="line"/>
			<point x="429" y="446"/>
			<point x="380" y="520"/>
			<point x="241" y="520" type="curve"/>
			<point x="128" y="520"/>
			<point x="60" y="456"/>
			<point x="60" y="369" type="curve"/>
			<point x="60" y="268"/>
			<point x="152" y="237"/>
			<point x="228" y="214" type="curve" smooth="yes"/>
			<point x="291" y="195"/>
			<point x="353" y="182"/>
			<point x="353" y="128" type="curve"/>
			<point x="353" y="85"/>
			<point x="303" y="65"/>
			<point x="236" y="65" type="curve"/>
			<point x="163" y="65"/>
			<point x="118" y="80"/>
			<point x="72" y="99" type="curve"/>
			<point x="69" y="98" type="line"/>
			<point x="45" y="47" type="line"/>
			<point x="46" y="44" type="line"/>
			<point x="96" y="16"/>
			<point x="152" y="-10"/>
			<point x="246" y="-10" type="curve"/>
			<point x="367" y="-10"/>
			<point x="438" y="38"/>
			<point x="438" y="130" type="curve"/>
			<point x="438" y="244"/>
			<point x="344" y="267"/>
			<point x="267" y="292" type="curve" smooth="yes"/>
			<point x="203" y="313"/>
			<point x="145" y="322"/>
=======
	<advance width="459"/>
	<unicode hex="0073"/>
	<outline>
		<contour>
			<point x="232" y="-10" type="curve" smooth="yes"/>
			<point x="345" y="-10"/>
			<point x="424" y="51"/>
			<point x="424" y="137" type="curve" smooth="yes"/>
			<point x="424" y="337"/>
			<point x="163" y="285"/>
			<point x="163" y="379" type="curve" smooth="yes"/>
			<point x="163" y="420"/>
			<point x="193" y="440"/>
			<point x="253" y="440" type="curve" smooth="yes"/>
			<point x="293" y="440"/>
			<point x="338" y="430"/>
			<point x="371" y="404" type="curve"/>
			<point x="378" y="406" type="line"/>
			<point x="409" y="458" type="line"/>
			<point x="407" y="465" type="line"/>
			<point x="361" y="500"/>
			<point x="301" y="520"/>
			<point x="247" y="520" type="curve" smooth="yes"/>
			<point x="145" y="520"/>
			<point x="73" y="460"/>
			<point x="73" y="374" type="curve" smooth="yes"/>
			<point x="73" y="190"/>
			<point x="334" y="242"/>
			<point x="334" y="129" type="curve" smooth="yes"/>
			<point x="334" y="90"/>
			<point x="301" y="70"/>
			<point x="234" y="70" type="curve" smooth="yes"/>
			<point x="179" y="70"/>
			<point x="113" y="87"/>
			<point x="69" y="105" type="curve"/>
			<point x="66" y="104" type="line"/>
			<point x="40" y="47" type="line"/>
			<point x="41" y="40" type="line"/>
			<point x="97" y="8"/>
			<point x="167" y="-10"/>
>>>>>>> 63ab59a4907c3c208bd4e3ce4e29d61fad11b722
		</contour>
	</outline>
</glyph>
<glyph name="t" format="2">
  <advance width="384"/>
  <unicode hex="0074"/>
  <outline>
    <contour>
      <point x="56" y="444" type="curve"/>
      <point x="50" y="452" type="line"/>
      <point x="50" y="502" type="line"/>
      <point x="56" y="510" type="line"/>
      <point x="315" y="510" type="line"/>
      <point x="320" y="504" type="line"/>
      <point x="320" y="452" type="line"/>
      <point x="315" y="444" type="line"/>
      <point x="255" y="445"/>
      <point x="211" y="447"/>
      <point x="179" y="447" type="curve"/>
      <point x="136" y="447"/>
      <point x="100" y="445"/>
    </contour>
    <contour>
      <point x="290" y="70" type="curve"/>
      <point x="316" y="70"/>
      <point x="329" y="74"/>
      <point x="344" y="78" type="curve"/>
      <point x="364" y="22" type="line"/>
      <point x="337" y="5"/>
      <point x="302" y="-10"/>
      <point x="252" y="-10" type="curve"/>
      <point x="172" y="-10"/>
      <point x="127" y="40"/>
      <point x="127" y="172" type="curve"/>
      <point x="127" y="418"/>
      <point x="125" y="514"/>
      <point x="117" y="590" type="curve"/>
      <point x="125" y="600" type="line"/>
      <point x="211" y="620" type="line"/>
      <point x="221" y="610" type="line"/>
      <point x="219" y="552"/>
      <point x="212" y="404"/>
      <point x="212" y="214" type="curve"/>
      <point x="212" y="140"/>
      <point x="232" y="70"/>
    </contour>
  </outline>
</glyph>
<glyph name="u" format="2">
  <advance width="575"/>
  <unicode hex="0075"/>
  <outline>
    <contour>
      <point x="392" y="259" type="qcurve" smooth="yes"/>
      <point x="392.0" y="167.2089552238806"/>
      <point x="343.44776119402985" y="70.0"/>
      <point x="283" y="70" type="qcurve"/>
      <point x="224.7910447761194" y="70.0"/>
      <point x="182.0" y="146.1940298507463"/>
      <point x="182" y="235" type="qcurve"/>
      <point x="182.0" y="293.95522388059703"/>
      <point x="186.0" y="403.95522388059703"/>
      <point x="186" y="445" type="qcurve" smooth="yes"/>
      <point x="186.0" y="483.8059701492537"/>
      <point x="153.88059701492537" y="520.0"/>
      <point x="130" y="520" type="qcurve"/>
      <point x="112.83582089552239" y="520.0"/>
      <point x="69.14925373134328" y="513.9850746268656"/>
      <point x="49" y="511" type="qcurve"/>
      <point x="45" y="446" type="line"/>
      <point x="139" y="427" type="line"/>
      <point x="97" y="478" type="line"/>
      <point x="97" y="145" type="line" smooth="yes"/>
      <point x="97.0" y="65.8955223880597"/>
      <point x="177.59701492537314" y="-10.0"/>
      <point x="247" y="-10" type="qcurve"/>
      <point x="324.6119402985074" y="-10.0"/>
      <point x="390.07462686567163" y="74.02985074626866"/>
      <point x="405" y="130" type="qcurve"/>
      <point x="368" y="86" type="line"/>
      <point x="406" y="86" type="line"/>
      <point x="393" y="101" type="line"/>
      <point x="393" y="57" type="line" smooth="yes"/>
      <point x="393.0" y="24.16417910447761"/>
      <point x="419.4179104477612" y="-10.0"/>
      <point x="453" y="-10" type="qcurve"/>
      <point x="468.67164179104475" y="-10.0"/>
      <point x="508.089552238806" y="-3.477611940298507"/>
      <point x="526" y="1" type="qcurve"/>
      <point x="530" y="65" type="line"/>
      <point x="448" y="76" type="line"/>
      <point x="485" y="39" type="line"/>
      <point x="485.0" y="39.0"/>
      <point x="477.0" y="131.26865671641792"/>
      <point x="477" y="235" type="qcurve" smooth="yes"/>
      <point x="477.0" y="377.53731343283584"/>
      <point x="487.0" y="500.0"/>
      <point x="487" y="500" type="qcurve"/>
      <point x="482" y="510" type="line"/>
      <point x="387" y="510" type="line"/>
      <point x="382" y="500" type="line"/>
      <point x="382.0" y="500.0"/>
      <point x="392.0" y="385.1194029850746"/>
    </contour>
  </outline>
</glyph>
<glyph name="v" format="2">
  <advance width="478"/>
  <unicode hex="0076"/>
  <guideline x="49" y="459" angle="0" identifier="4lh4eeIw6S"/>
  <outline>
    <contour>
      <point x="468" y="500" type="line"/>
      <point x="309" y="10" type="line"/>
      <point x="303" y="0" type="line"/>
      <point x="202" y="0" type="line"/>
      <point x="196" y="10" type="line"/>
      <point x="10" y="500" type="line"/>
      <point x="15" y="510" type="line"/>
      <point x="15.0" y="510.0"/>
      <point x="104.0" y="510.0"/>
      <point x="104" y="510" type="qcurve"/>
      <point x="110" y="500" type="line"/>
      <point x="116.71641791044776" y="476.86567164179104"/>
      <point x="276.04477611940297" y="55.64179104477611"/>
      <point x="285" y="34" type="qcurve"/>
      <point x="239" y="34" type="line"/>
      <point x="245.71641791044777" y="54.8955223880597"/>
      <point x="378.5223880597015" y="486.32835820895525"/>
      <point x="383" y="502" type="qcurve"/>
      <point x="390" y="510" type="line"/>
      <point x="390.0" y="510.0"/>
      <point x="462.0" y="510.0"/>
      <point x="462" y="510" type="qcurve"/>
    </contour>
  </outline>
</glyph>
<glyph name="w" format="2">
  <advance width="752"/>
  <unicode hex="0077"/>
  <outline>
    <contour>
      <point x="350" y="469" type="line"/>
      <point x="499" y="10" type="line"/>
      <point x="505" y="0" type="line"/>
      <point x="594" y="0" type="line"/>
      <point x="601" y="10" type="line"/>
      <point x="739" y="501" type="line"/>
      <point x="734" y="510" type="line"/>
      <point x="734.0" y="510.0"/>
      <point x="660.0" y="510.0"/>
      <point x="660" y="510" type="qcurve"/>
      <point x="654" y="501" type="line"/>
      <point x="654.0" y="501.0"/>
      <point x="623.4179104477612" y="371.67164179104475"/>
      <point x="607" y="306" type="qcurve"/>
      <point x="589.1042910447761" y="234.41717164179107"/>
      <point x="537.0" y="50.0"/>
      <point x="537" y="50" type="qcurve"/>
      <point x="571" y="50" type="line"/>
      <point x="571.0" y="50.0"/>
      <point x="516.2196641791045" y="204.84620895522386"/>
      <point x="490" y="288" type="qcurve" smooth="yes"/>
      <point x="464.75432089552237" y="369.67719402985074"/>
      <point x="425.0" y="501.0"/>
      <point x="425" y="501" type="qcurve"/>
      <point x="417" y="510" type="line"/>
      <point x="417.0" y="510.0"/>
      <point x="348.0" y="510.0"/>
      <point x="348" y="510" type="qcurve"/>
      <point x="341" y="503" type="line"/>
      <point x="341.0" y="503.0"/>
      <point x="306.5908731343284" y="367.9888731343284"/>
      <point x="282" y="289" type="qcurve" smooth="yes"/>
      <point x="258.1073358208955" y="212.09549253731342"/>
      <point x="208.0" y="50.0"/>
      <point x="208" y="50" type="qcurve"/>
      <point x="242" y="50" type="line"/>
      <point x="242.0" y="50.0"/>
      <point x="177.5661791044776" y="240.76582835820898"/>
      <point x="158" y="310" type="qcurve" smooth="yes"/>
      <point x="140.83582089552237" y="371.19402985074623"/>
      <point x="110.0" y="501.0"/>
      <point x="110" y="501" type="qcurve"/>
      <point x="104" y="510" type="line"/>
      <point x="104.0" y="510.0"/>
      <point x="15.0" y="510.0"/>
      <point x="15" y="510" type="qcurve"/>
      <point x="10" y="501" type="line"/>
      <point x="167" y="10" type="line"/>
      <point x="174" y="0" type="line"/>
      <point x="257" y="0" type="line"/>
      <point x="263" y="10" type="line"/>
      <point x="405" y="469" type="line"/>
    </contour>
  </outline>
</glyph>
<glyph name="y" format="2">
  <advance width="480"/>
  <unicode hex="0079"/>
  <outline>
    <contour>
      <point x="249.0" y="35.0" type="qcurve"/>
      <point x="252.0" y="7.0" type="line"/>
      <point x="206.0" y="7.0" type="line"/>
      <point x="10.0" y="500.0" type="line"/>
      <point x="15.0" y="510.0" type="line"/>
      <point x="15.0" y="510.0"/>
      <point x="105.0" y="510.0"/>
      <point x="105.0" y="510.0" type="qcurve"/>
      <point x="111.0" y="500.0" type="line"/>
      <point x="116" y="482"/>
      <point x="223" y="196"/>
      <point x="276.0" y="72.0" type="qcurve"/>
      <point x="255.0" y="72.0" type="line"/>
      <point x="295.7498166973122" y="192.26165415548238"/>
      <point x="374.0268178516138" y="481.09386248064845"/>
      <point x="380.0" y="502.0" type="qcurve"/>
      <point x="387.0" y="510.0" type="line"/>
      <point x="387.0" y="510.0"/>
      <point x="462.0" y="510.0"/>
      <point x="462.0" y="510.0" type="qcurve"/>
      <point x="468.0" y="500.0" type="line"/>
      <point x="315.0" y="10.0" type="line" smooth="yes"/>
      <point x="272.6147218912514" y="-125.7437011325936"/>
      <point x="198.25414364640886" y="-227.0"/>
      <point x="128.0" y="-227.0" type="qcurve" smooth="yes"/>
      <point x="99" y="-227.0"/>
      <point x="22" y="-212"/>
      <point x="10.0" y="-208.0" type="qcurve"/>
      <point x="8.0" y="-204.0" type="line"/>
      <point x="24.0" y="-140.0" type="line"/>
      <point x="29.0" y="-137.0" type="line"/>
      <point x="50" y="-142"/>
      <point x="96" y="-152"/>
      <point x="124.0" y="-152.0" type="qcurve" smooth="yes"/>
      <point x="154.20833333333334" y="-152.0"/>
      <point x="208.6949957338724" y="-79.86926215846373"/>
    </contour>
  </outline>
</glyph>
<glyph name="z" format="2">
  <advance width="450"/>
  <unicode hex="007A"/>
  <outline>
    <contour>
      <point x="293" y="486" type="line"/>
      <point x="267.6268656716418" y="398.6865671641791"/>
      <point x="105.83582089552237" y="128.910447761194"/>
      <point x="23" y="11" type="qcurve"/>
      <point x="28" y="0" type="line"/>
      <point x="61.582089552238806" y="2.2388059701492535"/>
      <point x="166.56716417910448" y="4.746268656716418"/>
      <point x="230" y="4" type="qcurve"/>
      <point x="291.19402985074623" y="3.253731343283582"/>
      <point x="405.5970149253731" y="3.731343283582089"/>
      <point x="425" y="0" type="qcurve"/>
      <point x="430" y="10" type="line"/>
      <point x="430" y="81" type="line"/>
      <point x="425" y="90" type="line"/>
      <point x="425.0" y="90.0"/>
      <point x="285.94029850746267" y="82.0"/>
      <point x="124" y="82" type="qcurve"/>
      <point x="169" y="59" type="line"/>
      <point x="213.77611940298507" y="159.7462686567164"/>
      <point x="363.80597014925377" y="404.4776119402985"/>
      <point x="425" y="500" type="qcurve"/>
      <point x="420" y="510" type="line"/>
      <point x="386.4179104477612" y="507.76119402985074"/>
      <point x="286.43283582089555" y="505.25373134328356"/>
      <point x="223" y="506" type="qcurve"/>
      <point x="161.80597014925374" y="506.74626865671644"/>
      <point x="77.40298507462686" y="506.2686567164179"/>
      <point x="58" y="510" type="qcurve"/>
      <point x="53" y="500" type="line"/>
      <point x="53" y="429" type="line"/>
      <point x="58" y="420" type="line"/>
      <point x="58.0" y="420.0"/>
      <point x="167.05970149253733" y="428.0"/>
      <point x="329" y="428" type="qcurve"/>
    </contour>
  </outline>
</glyph>
<glyph name="braceleft" format="2">
	<advance width="370"/>
	<unicode hex="007B"/>
	<anchor x="79" y="510" name="_top"/>
	<outline>
		<contour>
			<point x="322" y="800" type="line" smooth="yes"/>
			<point x="153" y="797"/>
			<point x="131" y="720"/>
			<point x="134" y="566" type="curve"/>
			<point x="136" y="455"/>
			<point x="110" y="394"/>
			<point x="40" y="394" type="curve" smooth="yes"/>
			<point x="40" y="354"/>
			<point x="40" y="314"/>
			<point x="40" y="274" type="curve" smooth="yes"/>
			<point x="110" y="274"/>
			<point x="136" y="213"/>
			<point x="134" y="102" type="curve"/>
			<point x="131" y="-52"/>
			<point x="153" y="-129"/>
			<point x="321" y="-132" type="curve" smooth="yes"/>
			<point x="330" y="-126" type="line"/>
			<point x="330" y="-78" type="line"/>
			<point x="324" y="-69" type="line" smooth="yes"/>
			<point x="219" y="-67"/>
			<point x="206" y="-23"/>
			<point x="206" y="102" type="curve"/>
			<point x="206" y="229"/>
			<point x="202" y="330"/>
			<point x="87" y="330" type="curve" smooth="yes"/>
			<point x="87" y="338" type="line" smooth="yes"/>
			<point x="202" y="338"/>
			<point x="206" y="439"/>
			<point x="206" y="566" type="curve"/>
			<point x="206" y="689"/>
			<point x="219" y="734"/>
			<point x="321" y="737" type="curve" smooth="yes"/>
			<point x="330" y="744" type="line"/>
			<point x="330" y="791" type="line"/>
		</contour>
	</outline>
</glyph>
<glyph name="braceright" format="2">
  <advance width="370"/>
  <unicode hex="007D"/>
  <outline>
    <contour>
      <point x="320.0" y="344.0" type="line"/>
      <point x="244.0" y="381.0"/>
      <point x="226.0" y="417.0"/>
      <point x="228.0" y="551.0" type="curve" smooth="yes"/>
      <point x="231.0" y="695.0"/>
      <point x="208.0" y="771.0"/>
      <point x="48.0" y="771.0" type="curve"/>
      <point x="40.0" y="762.0" type="line"/>
      <point x="40.0" y="715.0" type="line"/>
      <point x="49.0" y="708.0" type="line"/>
      <point x="138.0" y="708.0"/>
      <point x="146.0" y="663.0"/>
      <point x="146.0" y="551.0" type="curve" smooth="yes"/>
      <point x="146.0" y="422.0"/>
      <point x="158.0" y="319.0"/>
      <point x="263.0" y="319.0" type="curve"/>
      <point x="263.0" y="326.0" type="line"/>
      <point x="158.0" y="326.0"/>
      <point x="146.0" y="223.0"/>
      <point x="146.0" y="94.0" type="curve" smooth="yes"/>
      <point x="146.0" y="-18.0"/>
      <point x="138.0" y="-63.0"/>
      <point x="49.0" y="-63.0" type="curve"/>
      <point x="40.0" y="-70.0" type="line"/>
      <point x="40.0" y="-117.0" type="line"/>
      <point x="48.0" y="-126.0" type="line"/>
      <point x="208.0" y="-126.0"/>
      <point x="231.0" y="-50.0"/>
      <point x="228.0" y="94.0" type="curve" smooth="yes"/>
      <point x="226.0" y="228.0"/>
      <point x="244.0" y="264.0"/>
      <point x="320.0" y="301.0" type="curve"/>
    </contour>
  </outline>
</glyph>
<glyph name="asciitilde" format="2">
	<advance width="366"/>
	<unicode hex="007E"/>
	<outline>
		<contour>
			<point x="-55" y="261" type="line"/>
			<point x="-32" y="316"/>
			<point x="34" y="351"/>
			<point x="87" y="351" type="curve" smooth="yes"/>
			<point x="156" y="351"/>
			<point x="196" y="281"/>
			<point x="250" y="281" type="curve" smooth="yes"/>
			<point x="300" y="281"/>
			<point x="337" y="321"/>
			<point x="349" y="339" type="curve"/>
			<point x="387" y="293" type="line"/>
			<point x="366" y="243"/>
			<point x="310" y="204"/>
			<point x="244" y="204" type="curve" smooth="yes"/>
			<point x="168" y="204"/>
			<point x="144" y="272"/>
			<point x="87" y="272" type="curve" smooth="yes"/>
			<point x="32" y="272"/>
			<point x="-5" y="233"/>
			<point x="-17" y="215" type="curve"/>
		</contour>
	</outline>
</glyph>
<glyph name="section" format="2">
	<advance width="500"/>
	<unicode hex="00A7"/>
	<anchor x="248" y="700" name="top"/>
	<outline>
		<contour>
			<point x="344" y="151" type="line"/>
			<point x="363" y="170"/>
			<point x="376" y="196"/>
			<point x="376" y="236" type="curve"/>
			<point x="376" y="386"/>
			<point x="50" y="335"/>
			<point x="50" y="520" type="curve" smooth="yes"/>
			<point x="50" y="623"/>
			<point x="133" y="698"/>
			<point x="236" y="704" type="curve"/>
			<point x="250" y="705"/>
			<point x="265" y="706"/>
			<point x="279" y="706" type="curve" smooth="yes"/>
			<point x="324" y="706"/>
			<point x="370" y="700"/>
			<point x="424" y="687" type="curve"/>
			<point x="429" y="680" type="line"/>
			<point x="410" y="596" type="line"/>
			<point x="404" y="592" type="line"/>
			<point x="361" y="606"/>
			<point x="276" y="628"/>
			<point x="220" y="624" type="curve"/>
			<point x="166" y="620"/>
			<point x="135" y="591"/>
			<point x="137" y="541" type="curve" smooth="yes"/>
			<point x="142" y="426"/>
			<point x="453" y="472"/>
			<point x="464" y="258" type="curve"/>
			<point x="467" y="196"/>
			<point x="447" y="146"/>
			<point x="413" y="110" type="curve"/>
		</contour>
		<contour>
			<point x="122" y="316" type="line" smooth="yes"/>
			<point x="102" y="297"/>
			<point x="90" y="271"/>
			<point x="90" y="230" type="curve" smooth="yes"/>
			<point x="90" y="80"/>
			<point x="415" y="132"/>
			<point x="415" y="-53" type="curve" smooth="yes"/>
			<point x="420" y="-156"/>
			<point x="332" y="-231"/>
			<point x="230" y="-238" type="curve"/>
			<point x="218" y="-239"/>
			<point x="205" y="-239"/>
			<point x="192" y="-239" type="curve" smooth="yes"/>
			<point x="146" y="-239"/>
			<point x="98" y="-234"/>
			<point x="41" y="-220" type="curve" smooth="yes"/>
			<point x="37" y="-213" type="line"/>
			<point x="55" y="-129" type="line"/>
			<point x="62" y="-126" type="line" smooth="yes"/>
			<point x="105" y="-139"/>
			<point x="189" y="-161"/>
			<point x="245" y="-157" type="curve"/>
			<point x="298" y="-152"/>
			<point x="329" y="-126"/>
			<point x="329" y="-79" type="curve" smooth="yes"/>
			<point x="329" y="42"/>
			<point x="2" y="10"/>
			<point x="2" y="224" type="curve" smooth="yes"/>
			<point x="2" y="271"/>
			<point x="18" y="321"/>
			<point x="53" y="357" type="curve"/>
		</contour>
	</outline>
</glyph>
<glyph name="dieresis" format="2">
  <advance width="440"/>
  <unicode hex="00A8"/>
  <outline>
    <contour>
      <point x="50" y="670" type="qcurve" smooth="yes"/>
      <point x="50" y="695"/>
      <point x="85" y="727"/>
      <point x="111" y="727" type="qcurve" smooth="yes"/>
      <point x="137" y="727"/>
      <point x="170" y="695"/>
      <point x="170" y="670" type="qcurve" smooth="yes"/>
      <point x="170" y="641"/>
      <point x="136" y="607"/>
      <point x="111" y="607" type="qcurve" smooth="yes"/>
      <point x="82" y="607"/>
      <point x="50" y="644"/>
    </contour>
    <contour>
      <point x="270" y="670" type="qcurve" smooth="yes"/>
      <point x="270" y="695"/>
      <point x="305" y="727"/>
      <point x="331" y="727" type="qcurve" smooth="yes"/>
      <point x="357" y="727"/>
      <point x="390" y="695"/>
      <point x="390" y="670" type="qcurve" smooth="yes"/>
      <point x="390" y="641"/>
      <point x="356" y="607"/>
      <point x="331" y="607" type="qcurve" smooth="yes"/>
      <point x="302" y="607"/>
      <point x="270" y="644"/>
    </contour>
  </outline>
</glyph>
<glyph name="copyright" format="2">
	<advance width="600"/>
	<unicode hex="00A9"/>
	<anchor x="370.96079" y="559.5104" name="top"/>
	<anchor x="366.16639" y="140" name="bottom"/>
	<outline>
		<contour>
			<point x="304" y="50" type="curve" smooth="yes"/>
			<point x="454" y="50"/>
			<point x="548" y="154"/>
			<point x="548" y="320" type="curve" smooth="yes"/>
			<point x="548" y="486"/>
			<point x="454" y="590"/>
			<point x="304" y="590" type="curve" smooth="yes"/>
			<point x="154" y="590"/>
			<point x="60" y="486"/>
			<point x="60" y="320" type="curve" smooth="yes"/>
			<point x="60" y="154"/>
			<point x="154" y="50"/>
		</contour>
		<contour>
			<point x="304" y="98" type="curve" smooth="yes"/>
			<point x="179" y="98"/>
			<point x="112" y="173"/>
			<point x="112" y="320" type="curve" smooth="yes"/>
			<point x="112" y="467"/>
			<point x="179" y="542"/>
			<point x="304" y="542" type="curve" smooth="yes"/>
			<point x="429" y="542"/>
			<point x="496" y="467"/>
			<point x="496" y="320" type="curve" smooth="yes"/>
			<point x="496" y="173"/>
			<point x="429" y="98"/>
		</contour>
		<contour>
			<point x="372" y="403" type="curve"/>
			<point x="376" y="403" type="line"/>
			<point x="396" y="437" type="line"/>
			<point x="396" y="441" type="line"/>
			<point x="375" y="452"/>
			<point x="345" y="465"/>
			<point x="306" y="465" type="curve" smooth="yes"/>
			<point x="226" y="465"/>
			<point x="188" y="415"/>
			<point x="188" y="316" type="curve" smooth="yes"/>
			<point x="188" y="215"/>
			<point x="227" y="169"/>
			<point x="300" y="169" type="curve" smooth="yes"/>
			<point x="340" y="169"/>
			<point x="372" y="182"/>
			<point x="399" y="198" type="curve"/>
			<point x="400" y="201" type="line"/>
			<point x="384" y="231" type="line"/>
			<point x="382" y="233" type="line"/>
			<point x="357" y="223"/>
			<point x="337" y="216"/>
			<point x="308" y="216" type="curve" smooth="yes"/>
			<point x="262" y="216"/>
			<point x="242" y="247"/>
			<point x="242" y="318" type="curve" smooth="yes"/>
			<point x="242" y="398"/>
			<point x="262" y="419"/>
			<point x="303" y="419" type="curve" smooth="yes"/>
			<point x="338" y="419"/>
			<point x="357" y="409"/>
		</contour>
	</outline>
</glyph>
<glyph name="registered" format="2">
	<advance width="600"/>
	<unicode hex="00AE"/>
	<anchor x="370.96079" y="559.5104" name="top"/>
	<anchor x="366.16639" y="140" name="bottom"/>
	<outline>
		<contour>
			<point x="304" y="50" type="curve" smooth="yes"/>
			<point x="454" y="50"/>
			<point x="548" y="154"/>
			<point x="548" y="320" type="curve" smooth="yes"/>
			<point x="548" y="486"/>
			<point x="454" y="590"/>
			<point x="304" y="590" type="curve" smooth="yes"/>
			<point x="154" y="590"/>
			<point x="60" y="486"/>
			<point x="60" y="320" type="curve" smooth="yes"/>
			<point x="60" y="154"/>
			<point x="154" y="50"/>
		</contour>
		<contour>
			<point x="304" y="98" type="curve" smooth="yes"/>
			<point x="179" y="98"/>
			<point x="112" y="173"/>
			<point x="112" y="320" type="curve" smooth="yes"/>
			<point x="112" y="467"/>
			<point x="179" y="542"/>
			<point x="304" y="542" type="curve" smooth="yes"/>
			<point x="429" y="542"/>
			<point x="496" y="467"/>
			<point x="496" y="320" type="curve" smooth="yes"/>
			<point x="496" y="173"/>
			<point x="429" y="98"/>
		</contour>
		<contour>
			<point x="226" y="178" type="line"/>
			<point x="270" y="178" type="line"/>
			<point x="272" y="182" type="line"/>
			<point x="270" y="224"/>
			<point x="266" y="275"/>
			<point x="266" y="347" type="curve" smooth="yes"/>
			<point x="266" y="397"/>
			<point x="267" y="413"/>
			<point x="268" y="451" type="curve"/>
			<point x="256" y="438" type="line"/>
			<point x="296" y="438" type="line" smooth="yes"/>
			<point x="335" y="438"/>
			<point x="354" y="417"/>
			<point x="354" y="386" type="curve" smooth="yes"/>
			<point x="354" y="357"/>
			<point x="330" y="336"/>
			<point x="309" y="336" type="curve" smooth="yes"/>
			<point x="263" y="336" type="line"/>
			<point x="263" y="302" type="line"/>
			<point x="295" y="302" type="line" smooth="yes"/>
			<point x="355" y="302"/>
			<point x="396" y="329"/>
			<point x="396" y="388" type="curve"/>
			<point x="396" y="448"/>
			<point x="358" y="471"/>
			<point x="296" y="471" type="curve" smooth="yes"/>
			<point x="226" y="471" type="line"/>
			<point x="224" y="467" type="line"/>
			<point x="225" y="428"/>
			<point x="228" y="388"/>
			<point x="228" y="338" type="curve" smooth="yes"/>
			<point x="228" y="264"/>
			<point x="225" y="223"/>
			<point x="224" y="182" type="curve"/>
		</contour>
		<contour>
			<point x="378" y="174" type="curve" smooth="yes"/>
			<point x="391" y="174"/>
			<point x="401" y="178"/>
			<point x="414" y="186" type="curve"/>
			<point x="408" y="211" type="line"/>
			<point x="374" y="209" type="line"/>
			<point x="385" y="205" type="line"/>
			<point x="337" y="312" type="line"/>
			<point x="303" y="304" type="line"/>
			<point x="332" y="221" type="line" smooth="yes"/>
			<point x="344" y="186"/>
			<point x="357" y="174"/>
		</contour>
	</outline>
</glyph>
<glyph name="macron" format="2">
	<advance width="600"/>
	<unicode hex="00AF"/>
	<anchor x="298" y="516" name="_top"/>
	<outline>
		<contour>
			<point x="445" y="613" type="line"/>
			<point x="322" y="616"/>
			<point x="268" y="616"/>
			<point x="142" y="613" type="curve"/>
			<point x="135" y="619" type="line"/>
			<point x="135" y="681" type="line"/>
			<point x="143" y="686" type="line"/>
			<point x="269" y="683"/>
			<point x="322" y="683"/>
			<point x="445" y="686" type="curve"/>
			<point x="455" y="681" type="line"/>
			<point x="455" y="618" type="line"/>
		</contour>
	</outline>
</glyph>
<glyph name="degree" format="2">
	<advance width="274"/>
	<unicode hex="00B0"/>
	<outline>
		<contour>
			<point x="136" y="549" type="curve" smooth="yes"/>
			<point x="208" y="548"/>
			<point x="244" y="600"/>
			<point x="244" y="656" type="curve" smooth="yes"/>
			<point x="244" y="711"/>
			<point x="208" y="765"/>
			<point x="136" y="765" type="curve" smooth="yes"/>
			<point x="65" y="765"/>
			<point x="30" y="711"/>
			<point x="30" y="656" type="curve" smooth="yes"/>
			<point x="30" y="602"/>
			<point x="66" y="550"/>
		</contour>
		<contour>
			<point x="136" y="591" type="curve" smooth="yes"/>
			<point x="98" y="591"/>
			<point x="78" y="624"/>
			<point x="78" y="656" type="curve" smooth="yes"/>
			<point x="78" y="691"/>
			<point x="98" y="723"/>
			<point x="136" y="722" type="curve" smooth="yes"/>
			<point x="176" y="721"/>
			<point x="195" y="691"/>
			<point x="195" y="656" type="curve" smooth="yes"/>
			<point x="195" y="620"/>
			<point x="176" y="591"/>
		</contour>
	</outline>
</glyph>
<glyph name="acute" format="2">
	<advance width="316"/>
	<unicode hex="00B4"/>
	<anchor x="118" y="510" name="_top"/>
	<outline>
		<contour>
			<point x="70" y="559" type="line"/>
			<point x="77" y="561" type="line"/>
			<point x="266" y="732" type="line"/>
			<point x="264" y="742" type="line"/>
			<point x="199" y="803" type="line"/>
			<point x="189" y="803" type="line"/>
			<point x="30" y="603" type="line"/>
			<point x="31" y="595" type="line"/>
		</contour>
	</outline>
</glyph>
<glyph name="paragraph" format="2">
	<advance width="583"/>
	<unicode hex="00B6"/>
	<outline>
		<contour>
			<point x="413" y="353" type="curve" smooth="yes"/>
			<point x="413" y="156"/>
			<point x="409" y="82"/>
			<point x="406" y="9" type="curve"/>
			<point x="414" y="0" type="line"/>
			<point x="495" y="0" type="line"/>
			<point x="503" y="9" type="line"/>
			<point x="500" y="81"/>
			<point x="496" y="158"/>
			<point x="496" y="355" type="curve" smooth="yes"/>
			<point x="496" y="561"/>
			<point x="500" y="599"/>
			<point x="503" y="691" type="curve"/>
			<point x="495" y="700" type="line"/>
			<point x="414" y="700" type="line"/>
			<point x="406" y="691" type="line"/>
			<point x="409" y="598"/>
			<point x="413" y="559"/>
		</contour>
		<contour>
			<point x="273" y="691" type="line"/>
			<point x="236" y="691" type="line"/>
			<point x="239" y="598"/>
			<point x="243" y="559"/>
			<point x="243" y="353" type="curve" smooth="yes"/>
			<point x="243" y="156"/>
			<point x="239" y="82"/>
			<point x="236" y="9" type="curve"/>
			<point x="244" y="0" type="line"/>
			<point x="325" y="0" type="line"/>
			<point x="333" y="9" type="line"/>
			<point x="330" y="81"/>
			<point x="326" y="158"/>
			<point x="326" y="355" type="curve" smooth="yes"/>
			<point x="326" y="561"/>
			<point x="330" y="599"/>
			<point x="333" y="691" type="curve"/>
			<point x="325" y="700" type="line"/>
			<point x="244" y="700" type="line" smooth="yes"/>
			<point x="112" y="700"/>
			<point x="45" y="601"/>
			<point x="45" y="500" type="curve" smooth="yes"/>
			<point x="45" y="393"/>
			<point x="120" y="284"/>
			<point x="273" y="284" type="curve"/>
		</contour>
	</outline>
</glyph>
<glyph name="cedilla" format="2">
	<advance width="600"/>
	<unicode hex="00B8"/>
	<anchor x="287" y="-11" name="_bottom"/>
	<outline>
		<contour>
			<point x="297" y="-220" type="curve" smooth="yes"/>
			<point x="377" y="-220"/>
			<point x="408" y="-175"/>
			<point x="407" y="-136" type="curve" smooth="yes"/>
			<point x="407" y="-84"/>
			<point x="357" y="-51"/>
			<point x="297" y="-51" type="curve"/>
			<point x="315" y="-11" type="line"/>
			<point x="263" y="-11" type="line"/>
			<point x="233" y="-88" type="line"/>
			<point x="234" y="-89"/>
			<point x="235" y="-89"/>
			<point x="236" y="-90" type="curve"/>
			<point x="287" y="-90"/>
			<point x="355" y="-95"/>
			<point x="355" y="-136" type="curve"/>
			<point x="355" y="-172"/>
			<point x="267" y="-183"/>
			<point x="214" y="-149" type="curve"/>
			<point x="211" y="-151" type="line"/>
			<point x="190" y="-192" type="line"/>
			<point x="192" y="-196" type="line"/>
			<point x="218" y="-206"/>
			<point x="242" y="-220"/>
		</contour>
	</outline>
</glyph>
<glyph name="questiondown" format="2">
	<advance width="494"/>
	<unicode hex="00BF"/>
	<outline>
		<contour>
			<point x="334" y="355" type="line"/>
			<point x="241" y="355" type="line"/>
			<point x="235" y="345" type="line"/>
			<point x="243" y="245" type="line"/>
			<point x="257" y="261" type="line"/>
			<point x="154" y="213"/>
			<point x="50" y="159"/>
			<point x="50" y="16" type="curve" smooth="yes"/>
			<point x="50" y="-125"/>
			<point x="133" y="-186"/>
			<point x="257" y="-186" type="curve" smooth="yes"/>
			<point x="339" y="-186"/>
			<point x="405" y="-163"/>
			<point x="462" y="-120" type="curve"/>
			<point x="464" y="-113" type="line"/>
			<point x="437" y="-62" type="line"/>
			<point x="432" y="-59" type="line"/>
			<point x="391" y="-81"/>
			<point x="338" y="-101"/>
			<point x="276" y="-101" type="curve" smooth="yes"/>
			<point x="191" y="-101"/>
			<point x="139" y="-51"/>
			<point x="139" y="27" type="curve" smooth="yes"/>
			<point x="139" y="110"/>
			<point x="228" y="171"/>
			<point x="324" y="203" type="curve"/>
			<point x="338" y="230" type="line"/>
			<point x="340" y="345" type="line"/>
		</contour>
		<contour>
			<point x="221" y="508" type="curve" smooth="yes"/>
			<point x="221" y="537"/>
			<point x="258" y="570"/>
			<point x="282" y="570" type="curve" smooth="yes"/>
			<point x="306" y="570"/>
			<point x="343" y="537"/>
			<point x="343" y="508" type="curve" smooth="yes"/>
			<point x="343" y="479"/>
			<point x="306" y="446"/>
			<point x="282" y="446" type="curve" smooth="yes"/>
			<point x="258" y="446"/>
			<point x="221" y="479"/>
		</contour>
	</outline>
</glyph>
<glyph name="Aogonek" format="2">
	<advance width="581"/>
	<unicode hex="0104"/>
	<anchor x="527" y="10" name="_ogonek"/>
	<outline>
		<component base="A" xOffset="-5"/>
		<contour>
			<point x="526" y="11" type="line"/>
			<point x="450" y="-20"/>
			<point x="412" y="-85"/>
			<point x="412" y="-138" type="curve" smooth="yes"/>
			<point x="412" y="-184"/>
			<point x="440" y="-221"/>
			<point x="494" y="-221" type="curve" smooth="yes"/>
			<point x="516" y="-221"/>
			<point x="542" y="-215"/>
			<point x="573" y="-201" type="curve"/>
			<point x="577" y="-194" type="line"/>
			<point x="566" y="-145" type="line"/>
			<point x="560" y="-140" type="line"/>
			<point x="519" y="-145"/>
			<point x="502" y="-127"/>
			<point x="502" y="-101" type="curve" smooth="yes"/>
			<point x="502" y="-71"/>
			<point x="525" y="-31"/>
			<point x="560" y="0" type="curve"/>
		</contour>
	</outline>
</glyph>
<glyph name="Eogonek" format="2">
  <advance width="485"/>
  <unicode hex="0118"/>
  <anchor x="404" y="9" name="_ogonek"/>
  <outline>
    <contour>
      <point x="417" y="20" type="line"/>
      <point x="341" y="-11"/>
      <point x="303" y="-76"/>
      <point x="303" y="-129" type="curve" smooth="yes"/>
      <point x="303" y="-175"/>
      <point x="331" y="-212"/>
      <point x="385" y="-212" type="curve" smooth="yes"/>
      <point x="407" y="-212"/>
      <point x="433" y="-206"/>
      <point x="464" y="-192" type="curve"/>
      <point x="467" y="-184" type="line"/>
      <point x="458" y="-136" type="line"/>
      <point x="451" y="-131" type="line"/>
      <point x="410" y="-136"/>
      <point x="393" y="-123"/>
      <point x="393" y="-99" type="curve" smooth="yes"/>
      <point x="393" y="-62"/>
      <point x="440" y="-6"/>
      <point x="445" y="0" type="curve"/>
    </contour>
    <component base="E" xOffset="-5"/>
  </outline>
</glyph>
<glyph name="Iogonek" format="2">
	<advance width="431"/>
	<unicode hex="012E"/>
	<outline>
		<component base="I" xOffset="-5"/>
		<contour>
			<point x="359" y="20" type="line"/>
			<point x="283" y="-11"/>
			<point x="245" y="-76"/>
			<point x="245" y="-129" type="curve" smooth="yes"/>
			<point x="245" y="-175"/>
			<point x="273" y="-212"/>
			<point x="327" y="-212" type="curve" smooth="yes"/>
			<point x="349" y="-212"/>
			<point x="375" y="-206"/>
			<point x="406" y="-192" type="curve"/>
			<point x="409" y="-187" type="line"/>
			<point x="398" y="-134" type="line"/>
			<point x="393" y="-131" type="line"/>
			<point x="352" y="-136"/>
			<point x="335" y="-123"/>
			<point x="335" y="-99" type="curve" smooth="yes"/>
			<point x="335" y="-62"/>
			<point x="382" y="-6"/>
			<point x="387" y="0" type="curve"/>
		</contour>
	</outline>
</glyph>
<glyph name="idotless" format="2">
	<advance width="290"/>
	<unicode hex="0131"/>
	<anchor x="145" y="510" name="top"/>
	<anchor x="145" y="0" name="bottom"/>
	<anchor x="198" y="10" name="ogonek"/>
	<outline>
		<contour>
			<point x="115" y="0" type="line"/>
			<point x="210" y="0" type="line"/>
			<point x="215" y="10" type="line"/>
			<point x="206" y="86"/>
			<point x="205" y="195"/>
			<point x="205" y="275" type="curve" smooth="yes"/>
			<point x="205" y="458" type="line" smooth="yes"/>
			<point x="205" y="498.796"/>
			<point x="190.791" y="520"/>
			<point x="149" y="520" type="curve" smooth="yes"/>
			<point x="120.144" y="520"/>
			<point x="70.871" y="509.97"/>
			<point x="45" y="504" type="curve"/>
			<point x="52" y="438" type="line"/>
			<point x="129" y="443" type="line"/>
			<point x="110" y="472" type="line"/>
			<point x="117" y="423"/>
			<point x="120" y="335"/>
			<point x="120" y="275" type="curve" smooth="yes"/>
			<point x="120" y="202"/>
			<point x="118" y="79"/>
			<point x="110" y="10" type="curve"/>
		</contour>
	</outline>
</glyph>
<glyph name="Uogonek" format="2">
	<advance width="663"/>
	<unicode hex="0172"/>
	<anchor x="410" y="3" name="ogonek"/>
	<anchor x="332" y="700" name="top"/>
	<anchor x="648" y="700" name="topright"/>
	<anchor x="332" y="0" name="bottom"/>
	<outline>
		<contour>
			<point x="392" y="-8" type="curve" smooth="yes"/>
			<point x="515" y="51"/>
			<point x="581" y="112"/>
			<point x="583" y="306" type="curve" smooth="yes"/>
			<point x="584" y="433"/>
			<point x="587" y="561"/>
			<point x="593" y="690" type="curve"/>
			<point x="584" y="700" type="line"/>
			<point x="490" y="700" type="line"/>
			<point x="481" y="691" type="line"/>
			<point x="487" y="557"/>
			<point x="488" y="422"/>
			<point x="488" y="287" type="curve" smooth="yes"/>
			<point x="488" y="154"/>
			<point x="443" y="79"/>
			<point x="334" y="79" type="curve" smooth="yes"/>
			<point x="223" y="79"/>
			<point x="179" y="154"/>
			<point x="179" y="296" type="curve" smooth="yes"/>
			<point x="179" y="444"/>
			<point x="181" y="561"/>
			<point x="186" y="691" type="curve"/>
			<point x="177" y="700" type="line"/>
			<point x="79" y="700" type="line"/>
			<point x="70" y="690" type="line"/>
			<point x="75" y="562"/>
			<point x="80" y="434"/>
			<point x="80" y="306" type="curve" smooth="yes"/>
			<point x="80" y="84"/>
			<point x="164" y="-11"/>
			<point x="332" y="-11" type="curve" smooth="yes"/>
			<point x="353" y="-11"/>
			<point x="367" y="-5"/>
			<point x="385" y="-1" type="curve"/>
			<point x="359" y="20" type="line"/>
			<point x="283" y="-11"/>
			<point x="245" y="-76"/>
			<point x="245" y="-129" type="curve" smooth="yes"/>
			<point x="245" y="-175"/>
			<point x="273" y="-212"/>
			<point x="327" y="-212" type="curve" smooth="yes"/>
			<point x="349" y="-212"/>
			<point x="375" y="-206"/>
			<point x="406" y="-192" type="curve"/>
			<point x="409" y="-187" type="line"/>
			<point x="398" y="-134" type="line"/>
			<point x="393" y="-131" type="line"/>
			<point x="352" y="-136"/>
			<point x="335" y="-123"/>
			<point x="335" y="-90" type="curve" smooth="yes"/>
			<point x="335" y="-62"/>
			<point x="352" y="-27"/>
		</contour>
	</outline>
</glyph>
<glyph name="circumflex" format="2">
	<advance width="366"/>
	<unicode hex="02C6"/>
	<anchor x="177" y="517" name="_top"/>
	<outline>
		<contour>
			<point x="199" y="762" type="curve"/>
			<point x="163" y="762" type="line"/>
			<point x="193" y="705"/>
			<point x="232" y="648"/>
			<point x="270" y="569" type="curve"/>
			<point x="281" y="569" type="line"/>
			<point x="336" y="601" type="line"/>
			<point x="335" y="613" type="line"/>
			<point x="292" y="670"/>
			<point x="251" y="737"/>
			<point x="211" y="799" type="curve"/>
			<point x="158" y="799" type="line"/>
			<point x="116" y="734"/>
			<point x="81" y="680"/>
			<point x="30" y="604" type="curve"/>
			<point x="31" y="595" type="line"/>
			<point x="83" y="569" type="line"/>
			<point x="94" y="569" type="line"/>
			<point x="142" y="660"/>
			<point x="164" y="695"/>
		</contour>
	</outline>
</glyph>
<glyph name="caron" format="2">
  <advance width="366"/>
  <unicode hex="02C7"/>
  <anchor x="184" y="516" name="_top"/>
  <outline>
    <contour>
      <point x="170.0" y="606.0" type="curve"/>
      <point x="206.0" y="606.0" type="line"/>
      <point x="174.0" y="659.0"/>
      <point x="141.0" y="713.0"/>
      <point x="99.0" y="789.0" type="curve"/>
      <point x="88.0" y="789.0" type="line"/>
      <point x="34.0" y="757.0" type="line"/>
      <point x="34.0" y="745.0" type="line"/>
      <point x="77.0" y="689.0"/>
      <point x="121.0" y="628.0"/>
      <point x="162.0" y="569.0" type="curve"/>
      <point x="209.0" y="569.0" type="line"/>
      <point x="249.0" y="631.0"/>
      <point x="287.0" y="680.0"/>
      <point x="339.0" y="751.0" type="curve"/>
      <point x="338.0" y="760.0" type="line"/>
      <point x="286.0" y="789.0" type="line"/>
      <point x="275.0" y="789.0" type="line"/>
      <point x="230.0" y="708.0"/>
      <point x="209.0" y="669.0"/>
    </contour>
  </outline>
</glyph>
<glyph name="breve" format="2">
	<advance width="600"/>
	<unicode hex="02D8"/>
	<anchor x="293" y="517" name="_top"/>
	<outline>
		<contour>
			<point x="405" y="754" type="curve"/>
			<point x="446" y="742" type="line"/>
			<point x="446" y="677"/>
			<point x="410" y="568"/>
			<point x="293" y="568" type="curve" smooth="yes"/>
			<point x="176" y="568"/>
			<point x="139" y="672"/>
			<point x="139" y="746" type="curve"/>
			<point x="188" y="753" type="line"/>
			<point x="206" y="692"/>
			<point x="236" y="637"/>
			<point x="296" y="637" type="curve" smooth="yes"/>
			<point x="353" y="637"/>
			<point x="388" y="694"/>
		</contour>
	</outline>
</glyph>
<glyph name="dotaccent" format="2">
	<advance width="222"/>
	<unicode hex="02D9"/>
	<anchor x="112" y="520" name="_top"/>
	<outline>
		<contour>
			<point x="172" y="659" type="curve" smooth="yes"/>
			<point x="172" y="630"/>
			<point x="135" y="597"/>
			<point x="111" y="597" type="curve" smooth="yes"/>
			<point x="87" y="597"/>
			<point x="50" y="630"/>
			<point x="50" y="659" type="curve" smooth="yes"/>
			<point x="50" y="688"/>
			<point x="87" y="721"/>
			<point x="111" y="721" type="curve" smooth="yes"/>
			<point x="135" y="721"/>
			<point x="172" y="688"/>
		</contour>
	</outline>
</glyph>
<glyph name="ring" format="2">
	<advance width="600"/>
	<unicode hex="02DA"/>
	<anchor x="302" y="519" name="_top"/>
	<outline>
		<contour>
			<point x="298" y="613" type="curve" smooth="yes"/>
			<point x="354" y="613"/>
			<point x="384" y="641"/>
			<point x="384" y="699" type="curve" smooth="yes"/>
			<point x="384" y="755"/>
			<point x="356" y="785"/>
			<point x="298" y="785" type="curve" smooth="yes"/>
			<point x="242" y="785"/>
			<point x="212" y="757"/>
			<point x="212" y="699" type="curve" smooth="yes"/>
			<point x="212" y="642"/>
			<point x="240" y="613"/>
		</contour>
		<contour>
			<point x="298" y="650" type="curve" smooth="yes"/>
			<point x="267" y="650"/>
			<point x="250" y="667"/>
			<point x="250" y="699" type="curve" smooth="yes"/>
			<point x="250" y="730"/>
			<point x="266" y="747"/>
			<point x="298" y="747" type="curve" smooth="yes"/>
			<point x="329" y="747"/>
			<point x="346" y="731"/>
			<point x="346" y="699" type="curve" smooth="yes"/>
			<point x="346" y="668"/>
			<point x="330" y="650"/>
		</contour>
	</outline>
</glyph>
<glyph name="ogonek" format="2">
	<advance width="600"/>
	<unicode hex="02DB"/>
	<anchor x="380" y="-5" name="_ogonek"/>
	<outline>
		<contour>
			<point x="349" y="-6" type="curve"/>
			<point x="313" y="-32"/>
			<point x="289" y="-102"/>
			<point x="289" y="-136" type="curve" smooth="yes"/>
			<point x="289" y="-209"/>
			<point x="377" y="-260"/>
			<point x="460" y="-211" type="curve"/>
			<point x="444" y="-187"/>
			<point x="440" y="-178"/>
			<point x="427" y="-156" type="curve"/>
			<point x="339" y="-166"/>
			<point x="339" y="-74"/>
			<point x="409" y="-6" type="curve"/>
			<point x="388" y="-6"/>
			<point x="365" y="-6"/>
		</contour>
	</outline>
</glyph>
<glyph name="tilde" format="2">
	<advance width="402"/>
	<unicode hex="02DC"/>
	<anchor x="195" y="510" name="_top"/>
	<outline>
		<contour>
<<<<<<< HEAD
			<point x="126" y="623" type="curve" smooth="yes"/>
			<point x="111" y="623"/>
			<point x="70" y="615"/>
			<point x="58" y="583" type="curve"/>
			<point x="27" y="583" type="line"/>
			<point x="17" y="643"/>
			<point x="51" y="708"/>
			<point x="130" y="708" type="curve"/>
			<point x="198" y="708"/>
			<point x="230" y="664"/>
			<point x="287" y="664" type="curve" smooth="yes"/>
			<point x="300" y="664"/>
			<point x="333" y="674"/>
			<point x="344" y="703" type="curve"/>
			<point x="380" y="703" type="line"/>
			<point x="391" y="642"/>
			<point x="362" y="578"/>
			<point x="284" y="578" type="curve" smooth="yes"/>
			<point x="200" y="578"/>
			<point x="188" y="623"/>
=======
			<point x="272" y="605" type="curve" smooth="yes"/>
			<point x="345" y="605"/>
			<point x="385" y="666"/>
			<point x="385" y="750" type="curve"/>
			<point x="336" y="750" type="line"/>
			<point x="330" y="713"/>
			<point x="308" y="690"/>
			<point x="273" y="690" type="curve" smooth="yes"/>
			<point x="227" y="690"/>
			<point x="185" y="752"/>
			<point x="112" y="752" type="curve" smooth="yes"/>
			<point x="49" y="752"/>
			<point x="9" y="691"/>
			<point x="9" y="607" type="curve"/>
			<point x="58" y="607" type="line"/>
			<point x="64" y="644"/>
			<point x="82" y="667"/>
			<point x="111" y="667" type="curve" smooth="yes"/>
			<point x="156" y="667"/>
			<point x="198" y="605"/>
>>>>>>> 63ab59a4907c3c208bd4e3ce4e29d61fad11b722
		</contour>
	</outline>
</glyph>
<glyph name="hungarumlaut" format="2">
	<advance width="600"/>
	<unicode hex="02DD"/>
	<anchor x="259" y="518" name="_top"/>
	<outline>
		<contour>
			<point x="234" y="579" type="line"/>
			<point x="241" y="581" type="line"/>
			<point x="343" y="708" type="line"/>
			<point x="340" y="718" type="line"/>
			<point x="283" y="718" type="line"/>
			<point x="275" y="712" type="line"/>
			<point x="203" y="587" type="line"/>
			<point x="204" y="579" type="line"/>
		</contour>
		<contour>
			<point x="320" y="579" type="line"/>
			<point x="327" y="581" type="line"/>
			<point x="429" y="708" type="line"/>
			<point x="426" y="718" type="line"/>
			<point x="369" y="718" type="line"/>
			<point x="361" y="712" type="line"/>
			<point x="289" y="587" type="line"/>
			<point x="290" y="579" type="line"/>
		</contour>
	</outline>
</glyph>
<glyph name="circumflexcomb" format="2">
	<advance width="308"/>
	<unicode hex="0302"/>
	<anchor x="153" y="517" name="_top"/>
	<outline>
		<contour>
			<point x="169" y="752" type="curve"/>
			<point x="133" y="752" type="line"/>
			<point x="165" y="699"/>
			<point x="198" y="645"/>
			<point x="240" y="569" type="curve"/>
			<point x="251" y="569" type="line"/>
			<point x="305" y="601" type="line"/>
			<point x="305" y="613" type="line"/>
			<point x="262" y="669"/>
			<point x="218" y="730"/>
			<point x="177" y="789" type="curve"/>
			<point x="130" y="789" type="line"/>
			<point x="90" y="727"/>
			<point x="52" y="678"/>
			<point x="0" y="607" type="curve"/>
			<point x="1" y="598" type="line"/>
			<point x="53" y="569" type="line"/>
			<point x="64" y="569" type="line"/>
			<point x="109" y="650"/>
			<point x="130" y="689"/>
		</contour>
	</outline>
</glyph>
<glyph name="tildecomb" format="2">
  <advance width="366"/>
  <unicode hex="0303"/>
  <anchor x="186" y="510" name="_top"/>
  <outline>
    <contour>
      <point x="260" y="579.0" type="curve"/>
      <point x="306" y="579.0"/>
      <point x="353.6319385828302" y="625.1653281876605"/>
      <point x="344" y="708.0" type="curve"/>
      <point x="304" y="708.0" type="line"/>
      <point x="299" y="679"/>
      <point x="281.0" y="659.0"/>
      <point x="252" y="659.0" type="curve"/>
      <point x="218" y="659.0"/>
      <point x="178" y="710.0"/>
      <point x="116" y="710.0" type="curve"/>
      <point x="71.0" y="710.0"/>
      <point x="20.332113162281836" y="663.8264742270846"/>
      <point x="29" y="581.0" type="curve"/>
      <point x="69" y="581.0" type="line"/>
      <point x="79" y="610"/>
      <point x="87.0" y="630.0"/>
      <point x="119" y="630.0" type="curve" smooth="yes"/>
      <point x="161.0" y="630.0"/>
      <point x="195.0" y="579.0"/>
    </contour>
  </outline>
</glyph>
<glyph name="dotaccentcomb" format="2">
  <advance width="132"/>
  <unicode hex="0307"/>
  <anchor x="66" y="510" name="_top"/>
  <outline>
    <contour>
      <point x="60" y="623.0" type="curve" smooth="yes"/>
      <point x="83" y="623.0"/>
      <point x="127" y="630.0"/>
      <point x="127" y="674.0" type="curve" smooth="yes"/>
      <point x="127" y="701.0"/>
      <point x="116" y="745.0"/>
      <point x="74" y="745.0" type="curve" smooth="yes"/>
      <point x="51" y="745.0"/>
      <point x="5" y="737.0"/>
      <point x="5" y="694.0" type="curve" smooth="yes"/>
      <point x="5" y="664.0"/>
      <point x="16" y="623.0"/>
    </contour>
  </outline>
</glyph>
<glyph name="dieresiscomb" format="2">
	<advance width="412"/>
	<unicode hex="0308"/>
	<anchor x="205" y="510" name="_top"/>
	<outline>
		<contour>
			<point x="290" y="617" type="curve" smooth="yes"/>
			<point x="314" y="617"/>
			<point x="357" y="624"/>
			<point x="357" y="668" type="curve" smooth="yes"/>
			<point x="357" y="695"/>
			<point x="347" y="739"/>
			<point x="305" y="739" type="curve" smooth="yes"/>
			<point x="282" y="739"/>
			<point x="235" y="731"/>
			<point x="235" y="688" type="curve" smooth="yes"/>
			<point x="235" y="658"/>
			<point x="247" y="617"/>
		</contour>
		<contour>
			<point x="110" y="617" type="curve" smooth="yes"/>
			<point x="133" y="617"/>
			<point x="177" y="624"/>
			<point x="177" y="668" type="curve" smooth="yes"/>
			<point x="177" y="695"/>
			<point x="166" y="739"/>
			<point x="124" y="739" type="curve" smooth="yes"/>
			<point x="101" y="739"/>
			<point x="55" y="731"/>
			<point x="55" y="688" type="curve" smooth="yes"/>
			<point x="55" y="658"/>
			<point x="66" y="617"/>
		</contour>
	</outline>
</glyph>
<glyph name="ringcomb" format="2">
	<advance width="248"/>
	<unicode hex="030A"/>
	<anchor x="124" y="519" name="_top"/>
	<outline>
		<contour>
			<point x="238" y="664" type="curve" smooth="yes"/>
			<point x="238" y="745"/>
			<point x="197" y="784"/>
			<point x="124" y="784" type="curve" smooth="yes"/>
			<point x="54" y="784"/>
			<point x="10" y="748"/>
			<point x="10" y="664" type="curve" smooth="yes"/>
			<point x="10" y="583"/>
			<point x="51" y="544"/>
			<point x="124" y="544" type="curve" smooth="yes"/>
			<point x="196" y="544"/>
			<point x="238" y="580"/>
		</contour>
		<contour>
			<point x="180" y="664" type="curve" smooth="yes"/>
			<point x="180" y="620"/>
			<point x="162" y="598"/>
			<point x="124" y="598" type="curve" smooth="yes"/>
			<point x="88" y="598"/>
			<point x="70" y="620"/>
			<point x="70" y="664" type="curve" smooth="yes"/>
			<point x="70" y="708"/>
			<point x="88" y="730"/>
			<point x="124" y="730" type="curve" smooth="yes"/>
			<point x="162" y="730"/>
			<point x="180" y="708"/>
		</contour>
	</outline>
</glyph>
<glyph name="endash" format="2">
	<advance width="497"/>
	<unicode hex="2013"/>
	<outline>
		<contour>
			<point x="437" y="273" type="line"/>
			<point x="314" y="276"/>
			<point x="180" y="276"/>
			<point x="57" y="273" type="curve"/>
			<point x="50" y="279" type="line"/>
			<point x="50" y="346" type="line"/>
			<point x="58" y="351" type="line"/>
			<point x="181" y="348"/>
			<point x="314" y="348"/>
			<point x="437" y="351" type="curve"/>
			<point x="447" y="346" type="line"/>
			<point x="447" y="278" type="line"/>
		</contour>
	</outline>
</glyph>
<glyph name="emdash" format="2">
	<advance width="767"/>
	<unicode hex="2014"/>
	<outline>
		<contour>
			<point x="707" y="271" type="line"/>
			<point x="584" y="274"/>
			<point x="180" y="274"/>
			<point x="57" y="271" type="curve"/>
			<point x="50" y="277" type="line"/>
			<point x="50" y="348" type="line"/>
			<point x="58" y="353" type="line"/>
			<point x="181" y="350"/>
			<point x="584" y="350"/>
			<point x="707" y="353" type="curve"/>
			<point x="717" y="348" type="line"/>
			<point x="717" y="276" type="line"/>
		</contour>
	</outline>
</glyph>
<glyph name="quoteleft" format="2">
	<advance width="230"/>
	<unicode hex="2018"/>
	<outline>
		<contour>
			<point x="80" y="473" type="curve" smooth="yes"/>
			<point x="80" y="524"/>
			<point x="118" y="607"/>
			<point x="161" y="710" type="curve"/>
			<point x="168" y="710" type="line"/>
			<point x="197" y="697" type="line"/>
			<point x="200" y="691" type="line"/>
			<point x="155" y="519"/>
			<point x="200" y="514"/>
			<point x="200" y="473" type="curve" smooth="yes"/>
			<point x="200" y="451"/>
			<point x="165" y="411"/>
			<point x="141" y="411" type="curve" smooth="yes"/>
			<point x="117" y="411"/>
			<point x="80" y="451"/>
		</contour>
	</outline>
</glyph>
<glyph name="quotedblleft" format="2">
  <advance width="410"/>
  <unicode hex="201C"/>
  <outline>
    <contour>
      <point x="200" y="486" type="qcurve"/>
      <point x="200.0" y="521.820895522388"/>
      <point x="129.25373134328356" y="566.6119402985074"/>
      <point x="80" y="539" type="qcurve"/>
      <point x="117" y="520" type="line"/>
      <point x="117.0" y="565.5223880597015"/>
      <point x="171.08955223880596" y="659.1343283582089"/>
      <point x="189" y="686" type="qcurve"/>
      <point x="156" y="711" type="line"/>
      <point x="117.19402985074628" y="668.4626865671642"/>
      <point x="60.0" y="559.955223880597"/>
      <point x="60" y="501" type="qcurve"/>
      <point x="60.0" y="462.1940298507463"/>
      <point x="97.91044776119404" y="416.0"/>
      <point x="130" y="416" type="qcurve" smooth="yes"/>
      <point x="161.34328358208955" y="416.0"/>
      <point x="200.0" y="453.91044776119406"/>
    </contour>
    <contour>
      <point x="370" y="486" type="qcurve"/>
      <point x="370.0" y="521.820895522388"/>
      <point x="299.25373134328356" y="566.6119402985074"/>
      <point x="250" y="539" type="qcurve"/>
      <point x="287" y="520" type="line"/>
      <point x="287.0" y="565.5223880597015"/>
      <point x="341.089552238806" y="659.1343283582089"/>
      <point x="359" y="686" type="qcurve"/>
      <point x="326" y="711" type="line"/>
      <point x="287.1940298507463" y="668.4626865671642"/>
      <point x="230.0" y="559.955223880597"/>
      <point x="230" y="501" type="qcurve"/>
      <point x="230.0" y="462.1940298507463"/>
      <point x="267.91044776119406" y="416.0"/>
      <point x="300" y="416" type="qcurve" smooth="yes"/>
      <point x="331.34328358208955" y="416.0"/>
      <point x="370.0" y="453.91044776119406"/>
    </contour>
  </outline>
</glyph>
<glyph name="quotedblright" format="2">
  <advance width="410"/>
  <unicode hex="201D"/>
  <outline>
    <contour>
      <point x="210" y="710" type="qcurve"/>
      <point x="210.0" y="674"/>
      <point x="281" y="629"/>
      <point x="330" y="657" type="qcurve"/>
      <point x="293" y="676" type="line"/>
      <point x="293.0" y="630"/>
      <point x="239" y="537"/>
      <point x="221" y="510" type="qcurve"/>
      <point x="254" y="485" type="line"/>
      <point x="293" y="528"/>
      <point x="350.0" y="636"/>
      <point x="350" y="695" type="qcurve"/>
      <point x="350.0" y="734"/>
      <point x="312" y="780.0"/>
      <point x="280" y="780" type="qcurve" smooth="yes"/>
      <point x="249" y="780.0"/>
      <point x="210.0" y="742"/>
    </contour>
    <contour>
      <point x="40" y="710" type="qcurve"/>
      <point x="40.0" y="674"/>
      <point x="111" y="629"/>
      <point x="160" y="657" type="qcurve"/>
      <point x="123" y="676" type="line"/>
      <point x="123.0" y="630"/>
      <point x="69" y="537"/>
      <point x="51" y="510" type="qcurve"/>
      <point x="84" y="485" type="line"/>
      <point x="123" y="528"/>
      <point x="180.0" y="636"/>
      <point x="180" y="695" type="qcurve"/>
      <point x="180.0" y="734"/>
      <point x="142" y="780.0"/>
      <point x="110" y="780" type="qcurve" smooth="yes"/>
      <point x="79" y="780.0"/>
      <point x="40.0" y="742"/>
    </contour>
  </outline>
</glyph>
<glyph name="bullet" format="2">
	<advance width="403"/>
	<unicode hex="2022"/>
	<outline>
		<contour>
			<point x="323" y="299" type="curve" smooth="yes"/>
			<point x="322" y="241"/>
			<point x="250" y="175"/>
			<point x="202" y="175" type="curve" smooth="yes"/>
			<point x="155" y="175"/>
			<point x="80" y="241"/>
			<point x="80" y="299" type="curve" smooth="yes"/>
			<point x="80" y="357"/>
			<point x="155" y="423"/>
			<point x="202" y="423" type="curve" smooth="yes"/>
			<point x="250" y="423"/>
			<point x="324" y="357"/>
		</contour>
	</outline>
</glyph>
<glyph name="guilsinglright" format="2">
	<advance width="311"/>
	<unicode hex="203A"/>
	<outline>
		<contour>
			<point x="261" y="262" type="curve"/>
			<point x="261" y="297" type="line"/>
			<point x="205" y="357"/>
			<point x="163" y="412"/>
			<point x="95" y="500" type="curve"/>
			<point x="86" y="499" type="line"/>
			<point x="30" y="449" type="line"/>
			<point x="30" y="442" type="line"/>
			<point x="104" y="371"/>
			<point x="148" y="319"/>
			<point x="200" y="259" type="curve"/>
			<point x="200" y="300" type="line"/>
			<point x="148" y="240"/>
			<point x="104" y="188"/>
			<point x="30" y="117" type="curve"/>
			<point x="30" y="110" type="line"/>
			<point x="86" y="60" type="line"/>
			<point x="95" y="59" type="line"/>
			<point x="163" y="147"/>
			<point x="205" y="202"/>
		</contour>
	</outline>
</glyph>
<glyph name="trademark" format="2">
	<advance width="622"/>
	<unicode hex="2122"/>
	<outline>
		<contour>
			<point x="130" y="408" type="line"/>
			<point x="168" y="408" type="line"/>
			<point x="170" y="411" type="line"/>
			<point x="168" y="456"/>
			<point x="168" y="501"/>
			<point x="168" y="554" type="curve" smooth="yes"/>
			<point x="168" y="622"/>
			<point x="168" y="667"/>
			<point x="168" y="672" type="curve"/>
			<point x="130" y="672" type="line"/>
			<point x="130" y="667"/>
			<point x="130" y="623"/>
			<point x="130" y="554" type="curve" smooth="yes"/>
			<point x="130" y="500"/>
			<point x="130" y="456"/>
			<point x="127" y="411" type="curve"/>
		</contour>
		<contour>
			<point x="54" y="660" type="line"/>
			<point x="85" y="663"/>
			<point x="100" y="664"/>
			<point x="148" y="664" type="curve" smooth="yes"/>
			<point x="197" y="664"/>
			<point x="210" y="663"/>
			<point x="241" y="660" type="curve"/>
			<point x="245" y="662" type="line"/>
			<point x="245" y="699" type="line"/>
			<point x="241" y="701" type="line"/>
			<point x="218" y="701"/>
			<point x="171" y="699"/>
			<point x="148" y="700" type="curve" smooth="yes"/>
			<point x="116" y="701"/>
			<point x="78" y="701"/>
			<point x="54" y="701" type="curve"/>
			<point x="50" y="699" type="line"/>
			<point x="50" y="662" type="line"/>
		</contour>
		<contour>
			<point x="254" y="409" type="line"/>
			<point x="291" y="409" type="line"/>
			<point x="293" y="413" type="line"/>
			<point x="299" y="498"/>
			<point x="312" y="585"/>
			<point x="325" y="680" type="curve"/>
			<point x="307" y="680" type="line"/>
			<point x="328" y="628"/>
			<point x="370" y="483"/>
			<point x="386" y="413" type="curve"/>
			<point x="388" y="409" type="line"/>
			<point x="435" y="409" type="line"/>
			<point x="438" y="413" type="line"/>
			<point x="453" y="477"/>
			<point x="494" y="614"/>
			<point x="509" y="680" type="curve"/>
			<point x="495" y="680" type="line"/>
			<point x="504" y="610"/>
			<point x="517" y="513"/>
			<point x="528" y="413" type="curve"/>
			<point x="531" y="409" type="line"/>
			<point x="570" y="409" type="line"/>
			<point x="572" y="413" type="line"/>
			<point x="561" y="482"/>
			<point x="538" y="625"/>
			<point x="533" y="698" type="curve"/>
			<point x="527" y="701" type="line"/>
			<point x="478" y="701" type="line"/>
			<point x="476" y="698" type="line"/>
			<point x="460" y="614"/>
			<point x="430" y="522"/>
			<point x="409" y="436" type="curve"/>
			<point x="422" y="436" type="line"/>
			<point x="397" y="524"/>
			<point x="366" y="611"/>
			<point x="347" y="698" type="curve"/>
			<point x="345" y="701" type="line"/>
			<point x="294" y="701" type="line"/>
			<point x="291" y="698" type="line"/>
			<point x="285" y="620"/>
			<point x="266" y="492"/>
			<point x="252" y="413" type="curve"/>
		</contour>
	</outline>
</glyph>
<glyph name="rightArrow" format="2">
	<advance width="614"/>
	<unicode hex="2192"/>
	<outline>
		<contour>
			<point x="506" y="320" type="curve"/>
			<point x="506" y="394" type="line"/>
			<point x="447" y="394"/>
			<point x="151" y="399"/>
			<point x="59" y="402" type="curve"/>
			<point x="50" y="394" type="line"/>
			<point x="50" y="320" type="line"/>
			<point x="59" y="312" type="line"/>
			<point x="152" y="315"/>
			<point x="447" y="320"/>
		</contour>
		<contour>
			<point x="513" y="343" type="curve"/>
			<point x="513" y="372" type="line"/>
			<point x="463" y="321"/>
			<point x="400" y="268"/>
			<point x="346" y="218" type="curve"/>
			<point x="345" y="206" type="line"/>
			<point x="397" y="154" type="line"/>
			<point x="409" y="155" type="line"/>
			<point x="458" y="213"/>
			<point x="524" y="291"/>
			<point x="564" y="341" type="curve"/>
			<point x="564" y="374" type="line"/>
			<point x="524" y="424"/>
			<point x="458" y="502"/>
			<point x="409" y="560" type="curve"/>
			<point x="397" y="561" type="line"/>
			<point x="345" y="509" type="line"/>
			<point x="346" y="497" type="line"/>
			<point x="400" y="447"/>
			<point x="463" y="394"/>
		</contour>
	</outline>
</glyph>
